<svg width="76" height="24" viewBox="0 0 76 24" fill="none" xmlns="http://www.w3.org/2000/svg">
<g id="badge_v1">
<g id="Rectangle 6792">
<path d="M0 20C0 22.2091 1.79086 24 4 24H72.7639C74.2507 24 75.2177 22.4354 74.5528 21.1056L65.1056 2.21114C64.428 0.856009 63.043 0 61.5279 0H4C1.79086 0 0 1.79086 0 4V20Z" fill="url(#paint0_linear_1581_6242)"/>
<path d="M0 20C0 22.2091 1.79086 24 4 24H72.7639C74.2507 24 75.2177 22.4354 74.5528 21.1056L65.1056 2.21114C64.428 0.856009 63.043 0 61.5279 0H4C1.79086 0 0 1.79086 0 4V20Z" fill="black" fill-opacity="0.2"/>
</g>
<path id="Rectangle 6793" d="M0 4C0 1.79086 1.79086 0 4 0H72.7639C74.2507 0 75.2177 1.56463 74.5528 2.89443L65.1056 21.7889C64.428 23.144 63.043 24 61.5279 24H4C1.79086 24 0 22.2091 0 20V4Z" fill="url(#paint1_linear_1581_6242)"/>
<path id="&#236;&#157;&#184;&#236;&#166;&#157;&#235;&#139;&#168;&#236;&#178;&#180;" d="M32.4111 7.75586V14.7705H31.208V7.75586H32.4111ZM24.4941 10.8174C24.4941 9.40479 25.6382 8.39502 27.1152 8.38965C28.5923 8.39502 29.731 9.40479 29.7256 10.8174C29.731 12.2515 28.5923 13.2559 27.1152 13.2559C25.6382 13.2559 24.4941 12.2515 24.4941 10.8174ZM25.665 10.8174C25.6597 11.6768 26.2827 12.2139 27.1152 12.2139C27.9263 12.2139 28.5547 11.6768 28.5547 10.8174C28.5547 9.97949 27.9263 9.43164 27.1152 9.43164C26.2827 9.43164 25.6597 9.97949 25.665 10.8174ZM25.9873 17.2627V14.0615H27.1904V16.2959H32.6797V17.2627H25.9873ZM42.6807 12.2676V13.2344H33.8291V12.2676H42.6807ZM34.2588 10.8926C36.0581 10.7153 37.229 9.99561 37.4116 9.18457H34.6348V8.20703H41.8857V9.18457H39.082C39.2593 9.98486 40.4194 10.7153 42.2617 10.8926L41.8428 11.8379C40.0757 11.6553 38.7705 10.9517 38.2441 9.96875C37.7178 10.9517 36.4287 11.6553 34.667 11.8379L34.2588 10.8926ZM34.8604 15.6621C34.8604 14.5342 36.1333 13.8789 38.2441 13.8789C40.3389 13.8789 41.6011 14.5342 41.6064 15.6621C41.6011 16.8062 40.3389 17.4453 38.2441 17.4453C36.1333 17.4453 34.8604 16.8062 34.8604 15.6621ZM36.0742 15.6621C36.0688 16.2261 36.8315 16.5054 38.2441 16.5107C39.6353 16.5054 40.4033 16.2261 40.4141 15.6621C40.4033 15.0981 39.6353 14.8135 38.2441 14.8135C36.8315 14.8135 36.0688 15.0981 36.0742 15.6621ZM50.9951 7.74512V10.4736H52.3594V11.4619H50.9951V14.7705H49.8027V7.74512H50.9951ZM43.7441 13.127V8.55078H48.0947V9.50684H44.9258V12.1494C46.752 12.1494 47.7671 12.0903 48.9219 11.8486L49.0508 12.8154C47.7778 13.0679 46.6499 13.127 44.5283 13.127H43.7441ZM44.7754 17.2627V14.0293H45.9678V16.2959H51.3818V17.2627H44.7754ZM55.8076 10.71C55.8076 12.2139 56.4253 13.7285 57.7842 14.459L57.1182 15.3398C56.2158 14.8618 55.6035 14.0078 55.2544 12.9873C54.9106 14.0884 54.2983 15.0337 53.3906 15.5654L52.6924 14.6631C54.0674 13.8682 54.6743 12.2461 54.6797 10.71V10.4092H53.0254V9.44238H54.6797V8.08887H55.8076V9.44238H57.4297V10.4092H55.8076V10.71ZM56.8281 12.4609V11.4727H58.0957V7.92773H59.2236V16.9834H58.0957V12.4609H56.8281ZM60.0615 17.4561V7.74512H61.2002V17.4561H60.0615Z" fill="white"/>
<g id="label_&#236;&#157;&#184;&#236;&#166;&#157;&#235;&#139;&#168;&#236;&#178;&#180;">
<g id="bedge_&#236;&#157;&#184;&#236;&#166;&#157;&#235;&#139;&#168;&#236;&#178;&#180;">
<path id="Subtract" fill-rule="evenodd" clip-rule="evenodd" d="M14.2044 5.36851C13.5343 4.87716 12.6229 4.87716 11.9528 5.36851L11.3383 5.81914C11.046 6.03344 10.6986 6.15987 10.337 6.18357L9.57655 6.2334C8.7474 6.28774 8.04927 6.87354 7.85178 7.68066L7.67065 8.42091C7.58451 8.77293 7.39968 9.09306 7.13789 9.34368L6.58738 9.87066C5.98715 10.4453 5.82889 11.3428 6.19641 12.088L6.53347 12.7715C6.69377 13.0965 6.75796 13.4606 6.7185 13.8208L6.63553 14.5784C6.54506 15.4044 7.00073 16.1936 7.76129 16.5282L8.45884 16.8352C8.79056 16.9811 9.07373 17.2187 9.27508 17.5201L9.69846 18.1537C10.1601 18.8446 11.0165 19.1563 11.8142 18.9238L12.5458 18.7105C12.8938 18.6091 13.2634 18.6091 13.6114 18.7105L14.343 18.9238C15.1407 19.1563 15.9971 18.8446 16.4588 18.1537L16.8821 17.5201C17.0835 17.2187 17.3667 16.9811 17.6984 16.8352L18.3959 16.5282C19.1565 16.1936 19.6122 15.4044 19.5217 14.5784L19.4387 13.8208C19.3993 13.4606 19.4635 13.0965 19.6237 12.7715L19.9608 12.088C20.3283 11.3428 20.1701 10.4453 19.5698 9.87066L19.0193 9.34368C18.7575 9.09306 18.5727 8.77294 18.4866 8.42091L18.3054 7.68066C18.1079 6.87354 17.4098 6.28774 16.5807 6.2334L15.8202 6.18357C15.4586 6.15987 15.1112 6.03344 14.8189 5.81914L14.2044 5.36851ZM16.3657 11.3657C16.6781 11.0533 16.6781 10.5467 16.3657 10.2343C16.0533 9.9219 15.5467 9.9219 15.2343 10.2343L12.8 12.6686L11.3657 11.2343C11.0533 10.9219 10.5467 10.9219 10.2343 11.2343C9.92188 11.5467 9.92188 12.0533 10.2343 12.3657L12.2343 14.3657C12.5467 14.6781 13.0533 14.6781 13.3657 14.3657L16.3657 11.3657Z" fill="white"/>
</g>
</g>
</g>
<defs>
<linearGradient id="paint0_linear_1581_6242" x1="4" y1="12" x2="69.5" y2="12" gradientUnits="userSpaceOnUse">
<stop stop-color="#2B82FF"/>
<stop offset="0.879544" stop-color="#53AEF0"/>
</linearGradient>
<linearGradient id="paint1_linear_1581_6242" x1="4" y1="12" x2="69.5" y2="12" gradientUnits="userSpaceOnUse">
<stop stop-color="#2B82FF"/>
<stop offset="0.879544" stop-color="#53AEF0"/>
</linearGradient>
</defs>
</svg>
