<svg width="360" height="260" viewBox="0 0 360 260" fill="none" xmlns="http://www.w3.org/2000/svg">
<circle cx="229.678" cy="95.3222" r="21.7889" fill="#DDE1E6"/>
<path d="M255 96.5C255 93.02 254.315 89.574 252.983 86.3589C251.651 83.1438 249.699 80.2224 247.238 77.7617C244.778 75.3009 241.856 73.3489 238.641 72.0172C235.426 70.6854 231.98 70 228.5 70L228.5 96.5H255Z" fill="#CBD1D8"/>
<g clip-path="url(#clip0_533_9341)">
<path d="M216.764 247.441L184.798 247.904L184.588 233.363L202.555 233.103C210.279 232.991 216.645 239.174 216.756 246.899L216.764 247.441Z" fill="#71B9F8"/>
<path d="M114.993 207.782L125.669 177.818L139.367 182.698L133.39 199.475C130.798 206.752 122.781 210.557 115.504 207.964L114.993 207.782Z" fill="#71B9F8"/>
<path d="M184.55 233.389L206.656 233.069L200.695 169.046L178.588 169.366L184.55 233.389Z" fill="#F8BFEC"/>
<path d="M132.237 202.283L139.397 182.756L161.176 188.802L165.969 169.55L188.076 169.229L176.298 214.45L132.237 202.283Z" fill="#F8BFEC"/>
<path d="M181.756 196.603L203.565 194.351L200.695 169.046L178.588 169.366L181.756 196.603Z" fill="#0080EE"/>
<path d="M161.076 188.58L165.969 169.55L188.076 169.229L181.527 194.908L161.076 188.58Z" fill="#0080EE"/>
<path d="M179.453 140.006C182.33 136.636 180.809 130.616 176.057 126.56C171.304 122.503 165.12 121.948 162.243 125.318C159.367 128.688 160.888 134.708 165.64 138.765C170.392 142.821 176.577 143.377 179.453 140.006Z" fill="black"/>
<path d="M171.009 148.704C173.885 145.334 172.364 139.314 167.612 135.258C162.859 131.202 156.675 130.646 153.799 134.016C150.922 137.386 152.443 143.407 157.195 147.463C161.948 151.519 168.132 152.075 171.009 148.704Z" fill="black"/>
<path d="M162.561 157.397C165.437 154.026 163.917 148.006 159.164 143.95C154.412 139.894 148.227 139.338 145.351 142.708C142.474 146.078 143.995 152.099 148.748 156.155C153.5 160.211 159.684 160.767 162.561 157.397Z" fill="black"/>
<path d="M154.108 166.095C156.985 162.724 155.464 156.704 150.712 152.648C145.959 148.592 139.775 148.036 136.898 151.406C134.022 154.776 135.543 160.797 140.295 164.853C145.047 168.909 151.232 169.465 154.108 166.095Z" fill="black"/>
<path d="M183.168 137.084C188.294 137.084 192.45 132.928 192.45 127.802C192.45 122.675 188.294 118.519 183.168 118.519C178.041 118.519 173.885 122.675 173.885 127.802C173.885 132.928 178.041 137.084 183.168 137.084Z" fill="#F8BFEC"/>
<path d="M190.206 121.695C190.206 121.695 184.153 122.29 180.122 118.725C180.122 118.725 182.634 117.695 185.786 118.779C188.939 119.863 190.206 121.702 190.206 121.702V121.695Z" fill="black"/>
<path d="M181.282 118.466C181.282 118.466 179.008 124.229 173.916 126.221C173.916 126.221 174.145 123.466 176.588 121.114C179.031 118.763 181.282 118.466 181.282 118.466Z" fill="black"/>
<path d="M201.147 170.026L166.006 170.535L165.738 152.064C165.603 142.729 173.073 135.04 182.407 134.905L183.72 134.886C193.055 134.75 200.744 142.22 200.88 151.555L201.147 170.026Z" fill="#FF7A69"/>
<path d="M207.777 112.717L181.533 144.554L192.4 153.513L218.645 121.676L207.777 112.717Z" fill="#FF7A69"/>
<path d="M211.061 103.641L207.634 112.687L212.221 116.611L218.496 121.687L228.84 111.267C229.649 110.321 229.572 108.908 228.664 108.13C228.122 107.664 227.397 107.534 226.725 107.71C226.794 107.023 226.55 106.328 226.008 105.863C225.466 105.397 224.74 105.267 224.069 105.443C224.137 104.756 223.893 104.061 223.351 103.595C222.809 103.13 222.084 103 221.412 103.176C221.481 102.489 221.237 101.794 220.695 101.328C219.786 100.55 218.382 100.695 217.572 101.641L215.328 104.267C215.328 103.366 214.794 102.534 213.916 102.237C212.779 101.847 211.496 102.489 211.053 103.649L211.061 103.641Z" fill="#F8BFEC"/>
<path d="M226.725 107.649L222.672 112.008" stroke="black" stroke-miterlimit="10"/>
<path d="M224.145 105.344L220.092 109.702" stroke="black" stroke-miterlimit="10"/>
<path d="M221.565 103.038L217.519 107.397" stroke="black" stroke-miterlimit="10"/>
<path d="M181.458 194.809L184.359 183.656" stroke="black" stroke-miterlimit="10"/>
<path d="M187.038 129.756C187.696 129.756 188.229 129.223 188.229 128.565C188.229 127.907 187.696 127.374 187.038 127.374C186.38 127.374 185.847 127.907 185.847 128.565C185.847 129.223 186.38 129.756 187.038 129.756Z" stroke="black" stroke-miterlimit="10"/>
</g>
<defs>
<clipPath id="clip0_533_9341">
<rect width="130" height="194.908" fill="white" transform="translate(115 53)"/>
</clipPath>
</defs>
</svg>
