<svg width="132" height="151" viewBox="0 0 132 151" fill="none" xmlns="http://www.w3.org/2000/svg">
<rect x="8" y="6" width="74" height="96" rx="8" fill="#DDE1E7"/>
<rect x="18" y="33" width="54" height="4" rx="1" fill="white"/>
<rect x="18" y="22" width="26" height="4" rx="1" fill="white"/>
<rect x="18" y="44" width="54" height="4" rx="1" fill="white"/>
<path d="M108.991 134.018L125.998 129.607L129.497 143.099L99.9869 150.753L99.7306 149.765C97.9408 142.864 102.091 135.808 108.991 134.018Z" fill="#28214E"/>
<path d="M125.866 129.725L105.916 134.881L89.2332 76.0966H110.422L125.866 129.725Z" fill="#F8BFEC"/>
<path d="M112.554 5.61561C122.044 -1.43653 127.839 -0.887673 130.666 2.90963C133.487 6.70693 132.268 12.3167 122.778 19.3689C113.288 26.421 96.2991 28.4569 96.2991 28.4569C96.2991 28.4569 103.07 12.6741 112.56 5.61561H112.554Z" fill="black"/>
<path d="M101.597 39.4856C99.6317 43.9913 94.3857 46.0463 89.88 44.0806C85.3743 42.115 83.3193 36.869 85.2849 32.3633C87.2506 27.8575 92.4966 25.8025 97.0023 27.7682C101.508 29.7339 103.563 34.9799 101.597 39.4856Z" fill="#F8BFEC"/>
<path d="M86.6043 30.1653C86.6043 30.1653 92.4184 30.6503 96.2221 27.1785C96.2221 27.1785 93.7969 26.2212 90.791 27.3061C87.785 28.3911 86.598 30.1653 86.598 30.1653H86.6043Z" fill="black"/>
<path d="M95.1102 26.9564C95.1102 26.9564 97.3695 32.445 102.277 34.283C102.277 34.283 102.016 31.6472 99.6415 29.4263C97.2674 27.2053 95.1102 26.9564 95.1102 26.9564Z" fill="black"/>
<path d="M86.1501 34.4433C86.1501 34.4433 86.1884 40.3403 91.1791 39.8808C95.1998 39.517 95.2955 34.1306 95.2955 34.1306" stroke="black" stroke-miterlimit="10"/>
<path d="M74.4595 67.8969L96.3307 64.5847L96.0562 51.6292L77.7271 54.4181" fill="#6DC68F"/>
<path d="M57.8679 54.4191L74.4612 67.898L83.5237 57.891L66.924 44.4185L57.8679 54.4191Z" fill="#6DC68F"/>
<path d="M59.6408 35.3237C58.8495 35.7322 58.4538 36.5937 58.5814 37.4426L56.086 35.2663C55.1862 34.4813 53.8332 34.5387 53.0801 35.4003C52.627 35.9172 52.4993 36.6065 52.6589 37.2511C52.0015 37.1809 51.3314 37.4043 50.8847 37.9212C50.4316 38.4381 50.3039 39.1274 50.4635 39.772C49.8061 39.7018 49.136 39.9252 48.6893 40.4421C48.2362 40.959 48.1085 41.6483 48.2681 42.2929C47.6107 42.2227 46.9406 42.4461 46.4939 42.963C45.7408 43.8246 45.862 45.1712 46.7683 45.9626L58.0262 54.406L63.2658 48.726L67.0695 44.367L62.5574 36.2683C61.983 35.228 60.6747 34.8004 59.6472 35.3301L59.6408 35.3237Z" fill="#F8BFEC"/>
<path d="M48.2545 42.2415L52.7028 45.809" stroke="black" stroke-miterlimit="10"/>
<path d="M50.3802 39.6958L54.8285 43.2634" stroke="black" stroke-miterlimit="10"/>
<path d="M52.506 37.1483L56.9543 40.7158" stroke="black" stroke-miterlimit="10"/>
<path d="M115.508 92.4984L95.5578 97.655L89.2332 76.0966H110.422L115.508 92.4984Z" fill="#437CED"/>
<path d="M82.2369 136.682H99.8066V150.62H69.3196V149.599C69.3196 142.47 75.1081 136.682 82.2369 136.682Z" fill="#28214E"/>
<path d="M99.8249 136.809H79.4471L77.2197 75.6887H98.408L99.8249 136.809Z" fill="#F8BFEC"/>
<path d="M99.142 96.0218H77.8005L77.2197 75.6887H98.5612L99.142 96.0218Z" fill="#437CED"/>
<path d="M99.4454 112.973L99.2348 86.896" stroke="black" stroke-miterlimit="10"/>
<path d="M92.4009 42.7203H94.8644C103.48 42.7203 110.468 49.715 110.468 58.3243V76.628H76.7905V58.3243C76.7905 49.7086 83.7852 42.7203 92.3945 42.7203H92.4009Z" fill="#6DC68F"/>
<path d="M0 91C0 89.8954 0.895431 89 2 89H11C12.1046 89 13 89.8954 13 91V116H0V91Z" fill="#C0C7CF"/>
<path d="M19 83C19 81.8954 19.8954 81 21 81H30C31.1046 81 32 81.8954 32 83V116H19V83Z" fill="#C0C7CF"/>
<path d="M38 72C38 70.8954 38.8954 70 40 70H49C50.1046 70 51 70.8954 51 72V116H38V72Z" fill="#C0C7CF"/>
</svg>
