<svg width="170" height="186" viewBox="0 0 170 186" fill="none" xmlns="http://www.w3.org/2000/svg">
<g clip-path="url(#clip0_1465_9263)">
<path d="M58.9445 170.122H76.7706V185.136H43.9296C43.9296 176.852 50.6599 170.122 58.9445 170.122Z" fill="#89C6CC"/>
<path d="M131 185.136H98.159V170.122H115.985C124.27 170.122 131 176.852 131 185.136Z" fill="#89C6CC"/>
<path d="M77.4251 170.256H54.6014L69.661 103.947H92.4847L77.4251 170.256Z" fill="#437CED"/>
<path d="M97.1476 170.256H119.971L104.912 103.947H82.088L97.1476 170.256Z" fill="#437CED"/>
<path d="M87.3458 68.432C77.373 68.432 69.2074 76.597 69.2074 86.5689V104.959H105.484V86.5689C105.484 76.597 97.3186 68.432 87.3458 68.432Z" fill="#405A7B"/>
<path d="M122.068 61.0776L117.762 84.0109C115.747 94.7636 105.923 102.252 95.0132 101.345L102.755 59.174L122.068 61.0776Z" fill="#405A7B"/>
<path d="M102.666 59.2557C102.666 59.2557 102.294 57.1215 103.194 52.1913C103.261 51.8195 103.35 51.4775 103.454 51.1428L104.562 33.348C104.636 32.1656 105.581 31.2138 106.763 31.1394C108.124 31.0576 109.27 32.1359 109.27 33.4967V39.9365L109.575 40.1447C110.073 39.6316 110.802 39.349 111.56 39.4606C112.72 39.639 113.531 40.6652 113.486 41.8104C113.784 40.7024 114.862 39.9588 116.022 40.1372C117.264 40.3231 118.119 41.4906 117.934 42.7325L117.919 42.8292C118.105 41.5873 119.272 40.7321 120.514 40.918C121.756 41.104 122.611 42.2714 122.425 43.5133L121.89 47.0306C121.823 47.4545 121.637 47.8337 121.384 48.1386H121.392C121.392 48.1386 122.939 49.6482 122.767 53.4704C122.596 57.2926 121.949 60.9512 121.949 60.9512" fill="#F8BFEC"/>
<path d="M112.943 45.588L113.471 42.0707" stroke="black" stroke-miterlimit="10"/>
<path d="M108.965 41.3865L108.251 46.287" stroke="black" stroke-miterlimit="10"/>
<path d="M117.398 46.2573L117.934 42.7399" stroke="black" stroke-miterlimit="10"/>
<path d="M113.427 42.0632L112.795 46.6662" stroke="black" stroke-miterlimit="10"/>
<path d="M117.919 42.8441L117.383 46.3614C117.197 47.6032 118.052 48.7707 119.294 48.9566C120.536 49.1425 121.704 48.2799 121.89 47.0455L122.425 43.5282" stroke="black" stroke-miterlimit="10"/>
<path d="M115.725 57.4859C115.517 54.8684 111.627 51.7452 111.627 51.7452L113.985 51.998C115.346 52.2062 116.617 51.2693 116.825 49.9084C117.026 48.5699 116.126 47.3132 114.795 47.0827C112.899 46.748 110.43 46.3465 109.508 46.3614C107.931 46.3762 104.101 47.2686 103.201 52.1988" stroke="black" stroke-miterlimit="10"/>
<path d="M87.1823 70.7149C92.4765 70.7149 96.7683 66.4234 96.7683 61.1296C96.7683 55.8358 92.4765 51.5444 87.1823 51.5444C81.888 51.5444 77.5962 55.8358 77.5962 61.1296C77.5962 66.4234 81.888 70.7149 87.1823 70.7149Z" fill="#F8BFEC"/>
<path d="M77.9606 58.3857C77.9606 58.3857 83.91 56.3556 86.1708 51.2916C86.1708 51.2916 83.3671 51.3957 80.8684 53.7604C78.3696 56.1251 77.9606 58.3857 77.9606 58.3857Z" fill="black"/>
<path d="M84.9735 51.5518C84.9735 51.5518 89.5695 55.9986 95.2066 55.7012C95.2066 55.7012 93.8159 53.2101 90.5139 52.0426C87.212 50.8751 84.9735 51.5592 84.9735 51.5592V51.5518Z" fill="black"/>
<path d="M87.4351 64.5206C88.9507 64.5206 90.1793 63.9845 90.1793 63.3233C90.1793 62.6621 88.9507 62.1261 87.4351 62.1261C85.9195 62.1261 84.6909 62.6621 84.6909 63.3233C84.6909 63.9845 85.9195 64.5206 87.4351 64.5206Z" stroke="black" stroke-miterlimit="10"/>
<path d="M86.2622 80.1179C89.0435 68.3345 81.7451 56.5276 69.9608 53.7464C58.1764 50.9653 46.3685 58.2631 43.5871 70.0465C40.8058 81.8299 48.1042 93.6368 59.8885 96.4179C71.6729 99.199 83.4808 91.9013 86.2622 80.1179Z" fill="#E27057"/>
<path d="M64.9238 94.4067C75.5985 94.4067 84.2521 85.7538 84.2521 75.08C84.2521 64.4062 75.5985 55.7533 64.9238 55.7533C54.249 55.7533 45.5955 64.4062 45.5955 75.08C45.5955 85.7538 54.249 94.4067 64.9238 94.4067Z" fill="#F8F6DF"/>
<path d="M77.1968 65.9728L73.6472 62.4235L53.1806 82.8884L56.7302 86.4377L77.1968 65.9728Z" fill="#E27057"/>
<path d="M73.6524 86.4448L77.202 82.8955L56.7354 62.4306L53.1858 65.9799L73.6524 86.4448Z" fill="#E27057"/>
</g>
<path fill-rule="evenodd" clip-rule="evenodd" d="M147.5 39C159.926 39 170 30.2696 170 19.5C170 8.73045 159.926 0 147.5 0C135.074 0 125 8.73045 125 19.5C125 25.8796 128.535 31.5437 134 35.1014V43.7624C134 44.5841 134.936 45.0551 135.596 44.5655L143.509 38.6942C144.804 38.8951 146.138 39 147.5 39Z" fill="#D3D7DC"/>
<ellipse cx="138.696" cy="19.1863" rx="2.71628" ry="2.71628" fill="white"/>
<ellipse cx="147.525" cy="19.1863" rx="2.71628" ry="2.71628" fill="white"/>
<ellipse cx="156.353" cy="19.1863" rx="2.71628" ry="2.71628" fill="white"/>
<path fill-rule="evenodd" clip-rule="evenodd" d="M8 21C3.58172 21 0 24.5817 0 29V39.7176C0 44.1358 3.58172 47.7176 8 47.7176H38.0136C38.202 47.7176 38.389 47.711 38.5742 47.6982L45.7563 50.0068C46.5767 50.2705 47.3242 49.4423 46.9781 48.6531L44.8689 43.8436C45.5955 42.6388 46.0136 41.227 46.0136 39.7175V29C46.0136 24.5817 42.4318 21 38.0136 21H8Z" fill="#D3D7DC"/>
<ellipse cx="13.3575" cy="34.3589" rx="2.96862" ry="2.96862" fill="white"/>
<ellipse cx="23.0057" cy="34.3589" rx="2.96862" ry="2.96862" fill="white"/>
<ellipse cx="32.6539" cy="34.3589" rx="2.96862" ry="2.96862" fill="white"/>
<defs>
<clipPath id="clip0_1465_9263">
<rect width="88" height="165.136" fill="white" transform="translate(43 20)"/>
</clipPath>
</defs>
</svg>
