<svg width="181" height="195" viewBox="0 0 181 195" fill="none" xmlns="http://www.w3.org/2000/svg">
<g id="_?&#235;&#141;&#137;&#236;&#148;&#160;??1" clip-path="url(#clip0_533_8919)">
<g id="Group">
<path id="Vector" d="M34.533 171.944L62.1299 172.345L61.8155 194.11L14.1048 193.417L14.1278 191.822C14.2886 180.691 23.4327 171.783 34.533 171.944Z" fill="#28214E"/>
<path id="Vector_2" d="M153.035 122.344L143.852 96.4973L164.299 89.1919L180.23 134.032L178.732 134.567C168.274 138.303 156.757 132.822 153.031 122.335L153.035 122.344Z" fill="#28214E"/>
<path id="Vector_3" d="M62.1843 172.383L29.1977 171.905L52.3549 76.0857L85.3415 76.5641L62.1843 172.383Z" fill="#F8BFEC"/>
<path id="Vector_4" d="M154.515 125.829L143.821 96.597L111.321 105.657L104.175 76.8431L71.1788 76.3647L88.7505 144.038L154.515 125.829Z" fill="#F8BFEC"/>
</g>
<path id="Vector_5" d="M75.7308 116.779L43.1915 113.411L52.355 76.0857L85.3415 76.5641L75.7308 116.779Z" fill="#28214E"/>
<path id="Vector_6" d="M110.427 100.873L104.175 76.8431L71.1788 76.3647L79.915 110.341L110.427 100.873Z" fill="#28214E"/>
<path id="Vector_7" d="M109.731 10.655C114.025 15.6981 111.759 24.7079 104.662 30.7775C97.5661 36.8472 88.343 37.6844 84.0495 32.6413C79.756 27.5982 82.022 18.5884 89.1182 12.5187C96.2145 6.44905 105.438 5.61186 109.731 10.655Z" fill="#292A2C"/>
<path id="Vector_8" d="M122.343 23.6713C126.637 28.7144 124.371 37.7242 117.275 43.7939C110.178 49.8636 100.955 50.7008 96.6617 45.6577C92.3682 40.6146 94.6342 31.6047 101.73 25.5351C108.827 19.4654 118.05 18.6282 122.343 23.6713Z" fill="#292A2C"/>
<path id="Vector_9" d="M129.884 56.8183C136.977 50.7471 139.247 41.7356 134.953 36.6905C130.659 31.6453 121.428 32.4771 114.334 38.5482C107.241 44.6194 104.971 53.6309 109.265 58.676C113.559 63.7212 122.79 62.8894 129.884 56.8183Z" fill="#292A2C"/>
<path id="Vector_10" d="M147.558 49.6943C151.851 54.7374 149.585 63.7472 142.489 69.8169C135.393 75.8865 126.17 76.7237 121.876 71.6806C117.583 66.6375 119.849 57.6277 126.945 51.558C134.041 45.4884 143.264 44.6512 147.558 49.6943Z" fill="#292A2C"/>
<path id="Vector_11" d="M80.6404 28.0806C88.2007 26.8988 93.3743 19.7946 92.1957 12.213C91.0172 4.63147 83.933 -0.556564 76.3726 0.625258C68.8122 1.80708 63.6387 8.91122 64.8172 16.4928C65.9958 24.0744 73.08 29.2624 80.6404 28.0806Z" fill="#F8BFEC"/>
<path id="Vector_12" d="M67.9985 5.22317C67.9985 5.22317 77.0427 6.1102 83.0457 0.778062C83.0457 0.778062 79.2888 -0.766762 74.5878 0.857795C69.8868 2.48235 67.9985 5.22317 67.9985 5.22317Z" fill="#292A2C"/>
<path id="Vector_13" d="M81.3163 0.399414C81.3163 0.399414 84.7054 9.02053 92.3085 12.0105C92.3085 12.0105 91.9607 7.88434 88.3132 4.36612C84.6657 0.847911 81.3064 0.409381 81.3064 0.409381L81.3163 0.399414Z" fill="#292A2C"/>
<path id="Vector_14" d="M67.1935 11.8909C67.1935 11.8909 67.1139 21.1001 74.896 20.5021C81.1573 20.0237 81.4356 11.6218 81.4356 11.6218" stroke="#292A2C" stroke-miterlimit="10"/>
<path id="Vector_15" d="M76.7252 24.9537L80.5611 25.0095C93.977 25.2044 104.701 36.2847 104.507 49.7282L104.094 78.3095L51.6528 77.5476L52.0657 48.9664C52.26 35.5129 63.3093 24.7588 76.7153 24.9536L76.7252 24.9537Z" fill="#BB93E3"/>
<g id="Group_2">
<path id="Vector_16" d="M29.388 79.0283L88.6882 62.3801L83.0213 42.0812L23.7211 58.7294L29.388 79.0283Z" fill="#BB93E3"/>
<g id="Group_3">
<path id="Vector_17" d="M5.71254 60.7871C5.59327 62.1724 6.39831 63.4083 7.63071 63.9465L2.69117 65.4315C0.9022 65.9697 -0.141365 67.8036 0.375448 69.5178C0.683548 70.5444 1.48858 71.2919 2.46258 71.6208C1.8265 72.4281 1.56809 73.4945 1.86625 74.5211C2.17435 75.5476 2.97939 76.2951 3.95338 76.624C3.31731 77.4313 3.0589 78.4977 3.35706 79.5243C3.66516 80.5508 4.4702 81.2983 5.44419 81.6272C4.80811 82.4345 4.54971 83.501 4.84787 84.5275C5.35474 86.2418 7.2431 87.1986 9.02213 86.6604L29.4859 78.8167L26.3453 67.1557L23.7612 58.5047L9.3501 57.7273C7.5015 57.6177 5.85168 58.9931 5.69266 60.7871H5.71254Z" fill="#F8BFEC"/>
<path id="Vector_18" d="M5.37463 81.5873L13.7728 78.687" stroke="#292A2C" stroke-miterlimit="10"/>
<path id="Vector_19" d="M3.78442 76.6639L12.1727 73.7537" stroke="#292A2C" stroke-miterlimit="10"/>
<path id="Vector_20" d="M2.19421 71.7403L10.5825 68.8301" stroke="#292A2C" stroke-miterlimit="10"/>
</g>
</g>
<path id="Vector_21" d="M80.1038 110.481L76.7247 97.9526" stroke="#292A2C" stroke-miterlimit="10"/>
</g>
<defs>
<clipPath id="clip0_533_8919">
<rect width="180" height="194" fill="white" transform="translate(0.236328 0.110352)"/>
</clipPath>
</defs>
</svg>
