<svg width="16" height="16" viewBox="0 0 16 16" fill="none" xmlns="http://www.w3.org/2000/svg">
<path fill-rule="evenodd" clip-rule="evenodd" d="M7.33856 13.3515C7.7406 13.6171 8.25915 13.6171 8.66059 13.3515C9.93734 12.5088 12.7172 10.4944 13.9149 8.24026C15.4935 5.2666 13.6396 2.30078 11.1887 2.30078C9.79186 2.30078 8.95156 3.03061 8.48673 3.65782C8.4309 3.73464 8.35769 3.79716 8.27307 3.84027C8.18846 3.88337 8.09484 3.90584 7.99988 3.90584C7.90491 3.90584 7.8113 3.88337 7.72668 3.84027C7.64206 3.79716 7.56885 3.73464 7.51302 3.65782C7.04819 3.03061 6.20789 2.30078 4.81101 2.30078C2.36012 2.30078 0.506257 5.2666 2.08545 8.24026C3.28192 10.4944 6.06301 12.5088 7.33856 13.3515Z" fill="#EC4552"/>
</svg>
