<svg width="206" height="116" viewBox="0 0 206 116" fill="none" xmlns="http://www.w3.org/2000/svg">
<g id="img">
<g id="Group 3467250">
<rect id="Rectangle 6714" x="29" y="11" width="100" height="70" rx="8" fill="#D1CDE9"/>
<path id="Rectangle 6715" d="M29 19C29 14.5817 32.5817 11 37 11H121C125.418 11 129 14.5817 129 19V25H29V19Z" fill="#9DA2D3"/>
<circle id="Ellipse 41" cx="39" cy="18" r="2" fill="white"/>
<circle id="Ellipse 42" cx="46.6777" cy="18" r="2" fill="white"/>
<circle id="Ellipse 43" cx="54.3555" cy="18" r="2" fill="white"/>
<rect id="Rectangle 6716" x="44" y="37" width="19" height="4" rx="2" fill="white" fill-opacity="0.57"/>
<rect id="Rectangle 6717" x="44" y="50" width="52" height="4" rx="2" fill="white" fill-opacity="0.57"/>
<rect id="Rectangle 6718" x="44" y="63" width="52" height="4" rx="2" fill="white" fill-opacity="0.57"/>
</g>
<g id="Group 3467252">
<g id="Group 3467206">
<path id="Vector" d="M137.667 64.7123C135.31 70.1151 129.02 72.5793 123.617 70.2223C118.214 67.8652 115.75 61.5747 118.107 56.1719C120.464 50.7691 126.754 48.305 132.157 50.662C137.56 53.019 140.024 59.3095 137.667 64.7123Z" fill="#F8BFEC"/>
<path id="Vector_2" d="M119.689 53.5364C119.689 53.5364 126.66 54.1181 131.221 49.955C131.221 49.955 128.313 48.8071 124.709 50.108C121.104 51.409 119.681 53.5364 119.681 53.5364H119.689Z" fill="black"/>
<path id="Vector_3" d="M129.887 49.6892C129.887 49.6892 132.597 56.2705 138.481 58.4745C138.481 58.4745 138.168 55.3139 135.321 52.6508C132.474 49.9877 129.887 49.6892 129.887 49.6892Z" fill="black"/>
<path id="Vector_4" d="M119.143 58.6665C119.143 58.6665 119.189 65.7376 125.174 65.1866C129.995 64.7504 130.11 58.2915 130.11 58.2915" stroke="black" stroke-miterlimit="10"/>
<path id="Vector_5" d="M105.126 98.7811L131.352 94.8094L131.023 79.2744L109.044 82.6186" fill="#FF7A69"/>
<g id="Group">
<path id="Vector_6" d="M85.229 82.6207L105.126 98.7832L115.993 86.7837L96.0882 70.6289L85.229 82.6207Z" fill="#FF7A69"/>
<g id="Group_2">
<path id="Vector_7" d="M87.3567 59.7224C86.4078 60.2122 85.9333 61.2453 86.0864 62.2631L83.0942 59.6535C82.0152 58.7122 80.3928 58.7811 79.4898 59.8142C78.9464 60.4341 78.7934 61.2606 78.9847 62.0335C78.1965 61.9493 77.3929 62.2172 76.8572 62.837C76.3139 63.4569 76.1608 64.2834 76.3522 65.0563C75.5639 64.9721 74.7604 65.24 74.2247 65.8598C73.6814 66.4797 73.5283 67.3062 73.7196 68.0791C72.9314 67.9949 72.1279 68.2628 71.5922 68.8827C70.6892 69.9158 70.8346 71.5305 71.9213 72.4794L85.4206 82.6039L91.7035 75.793L96.2645 70.5662L90.854 60.855C90.1653 59.6076 88.5965 59.0949 87.3644 59.73L87.3567 59.7224Z" fill="#F8BFEC"/>
<path id="Vector_8" d="M73.7032 68.0173L79.0372 72.2952" stroke="black" stroke-miterlimit="10"/>
<path id="Vector_9" d="M76.2533 64.9653L81.5872 69.2432" stroke="black" stroke-miterlimit="10"/>
<path id="Vector_10" d="M78.8011 61.9099L84.1351 66.1878" stroke="black" stroke-miterlimit="10"/>
</g>
</g>
<path id="Vector_11" d="M126.64 68.5908H129.594C139.926 68.5908 148.305 76.9782 148.305 87.3016V109.25H107.922V87.3016C107.922 76.9705 116.309 68.5908 126.633 68.5908H126.64Z" fill="#FF7A69"/>
</g>
<g id="Group 3467251">
<path id="Vector 71 (Stroke)" fill-rule="evenodd" clip-rule="evenodd" d="M122.907 48.1252C125.172 46.9473 127.754 46.6353 130.54 47.471C136.785 49.3445 138.574 54.493 139.219 56.963L136.544 57.6607C135.968 55.4533 134.556 51.5611 129.746 50.1182C127.65 49.4895 125.81 49.7307 124.183 50.5772C122.52 51.4418 121.003 52.9807 119.707 55.0545L117.363 53.5895C118.831 51.2421 120.677 49.2852 122.907 48.1252Z" fill="#6F7ADE"/>
<circle id="Ellipse 44" cx="138.435" cy="61.5075" r="5.52751" fill="#6F7ADE"/>
<path id="Ellipse 46" d="M120.918 53.3599C120.386 53.0201 119.788 52.7979 119.164 52.7084C118.539 52.6188 117.903 52.6639 117.297 52.8406C116.691 53.0174 116.131 53.3217 115.652 53.7331C115.174 54.1445 114.789 54.6534 114.524 55.2258C114.259 55.7982 114.119 56.4207 114.114 57.0516C114.109 57.6824 114.239 58.307 114.496 58.8834C114.752 59.4598 115.129 59.9746 115.601 60.3933C116.073 60.812 116.629 61.1249 117.232 61.311C118.097 58.5069 119.337 55.8324 120.918 53.3599Z" fill="#6F7ADE"/>
<circle id="Ellipse 45" cx="138.435" cy="61.5077" r="3.31651" fill="white" fill-opacity="0.62"/>
</g>
</g>
<g id="Group 3467228">
<path id="Union" fill-rule="evenodd" clip-rule="evenodd" d="M170.5 62.3333C180.165 62.3333 188 55.543 188 47.1667C188 38.7903 180.165 32 170.5 32C160.835 32 153 38.7903 153 47.1667C153 52.4479 156.115 57.0986 160.839 59.8145L159.634 67.3821C159.561 67.8444 160.106 68.1453 160.458 67.8365L167.064 62.0411C168.175 62.2328 169.324 62.3333 170.5 62.3333Z" fill="#9DA2D3"/>
<ellipse id="Ellipse 30" cx="163.653" cy="46.9217" rx="2.11267" ry="2.11267" fill="white" fill-opacity="0.86"/>
<ellipse id="Ellipse 31" cx="170.519" cy="46.9217" rx="2.11267" ry="2.11267" fill="white" fill-opacity="0.86"/>
<ellipse id="Ellipse 32" cx="177.384" cy="46.9217" rx="2.11267" ry="2.11267" fill="white" fill-opacity="0.86"/>
</g>
<path id="Vector 110" d="M151.955 8L150.045 16.6228L145.818 14.7545L147.727 19.2096L142 21.7964L148 22.9461L145.682 28.6946L150.727 24.8144L155.5 32L154.818 23.6647L160 23.3772L155.364 20.2156L159.318 16.0479L153.455 17.0539L151.955 8Z" fill="#FF7A69" fill-opacity="0.73"/>
</g>
</svg>
