<svg width="136" height="36" viewBox="0 0 136 36" fill="none" xmlns="http://www.w3.org/2000/svg">
<g id="logo">
<g id="Group 3467178">
<path id="Vector" d="M116.86 18.6004C116.86 16.7585 117.189 15.1495 117.845 13.7734C118.522 12.3973 119.433 11.3388 120.576 10.5978C121.74 9.85682 123.032 9.48633 124.45 9.48633C125.678 9.48633 126.737 9.72979 127.626 10.2167C128.515 10.7037 129.203 11.36 129.69 12.1856V9.70862H135.914V27.5239H129.69V25.0469C129.203 25.8726 128.504 26.5289 127.594 27.0158C126.705 27.5028 125.657 27.7462 124.45 27.7462C123.032 27.7462 121.74 27.3757 120.576 26.6348C119.433 25.8938 118.522 24.8352 117.845 23.4591C117.189 22.0618 116.86 20.4423 116.86 18.6004ZM129.69 18.6004C129.69 17.4572 129.372 16.5574 128.737 15.9011C128.123 15.2448 127.361 14.9167 126.451 14.9167C125.519 14.9167 124.747 15.2448 124.133 15.9011C123.519 16.5362 123.212 17.436 123.212 18.6004C123.212 19.7436 123.519 20.654 124.133 21.3314C124.747 21.9877 125.519 22.3159 126.451 22.3159C127.361 22.3159 128.123 21.9877 128.737 21.3314C129.372 20.6751 129.69 19.7648 129.69 18.6004Z" fill="#203B82"/>
<path id="Vector_2" d="M115.931 9.70557L104.626 35.9998H97.8616L102.117 26.7587L94.813 9.70557H101.736L105.483 19.8041L109.103 9.70557H115.931Z" fill="#203B82"/>
<path id="Vector_3" d="M92.8868 9.7085V27.5238H86.6626V9.7085H92.8868Z" fill="#203B82"/>
<path id="Vector_4" d="M78.3658 12.85C79.0645 11.8338 79.9113 11.0293 80.9064 10.4365C81.9014 9.84376 82.9705 9.54736 84.1137 9.54736V16.1844H82.3671C81.0122 16.1844 80.0066 16.4491 79.3503 16.9783C78.694 17.5076 78.3658 18.4286 78.3658 19.7412V27.5215H72.1416V9.70614H78.3658V12.85Z" fill="#203B82"/>
<path id="Vector_5" d="M59.9233 27.7462C58.1449 27.7462 56.5465 27.3757 55.1281 26.6348C53.7308 25.8938 52.6299 24.8352 51.8254 23.4591C51.0209 22.083 50.6187 20.4634 50.6187 18.6004C50.6187 16.7585 51.0209 15.1495 51.8254 13.7734C52.6511 12.3973 53.7625 11.3388 55.1598 10.5978C56.5783 9.85682 58.1767 9.48633 59.955 9.48633C61.7334 9.48633 63.3212 9.85682 64.7185 10.5978C66.1369 11.3388 67.2484 12.3973 68.0529 13.7734C68.8785 15.1495 69.2914 16.7585 69.2914 18.6004C69.2914 20.4423 68.8785 22.0618 68.0529 23.4591C67.2484 24.8352 66.1369 25.8938 64.7185 26.6348C63.3 27.3757 61.7016 27.7462 59.9233 27.7462ZM59.9233 22.3476C60.7913 22.3476 61.5111 22.0301 62.0827 21.395C62.6755 20.7387 62.9719 19.8071 62.9719 18.6004C62.9719 17.3937 62.6755 16.4727 62.0827 15.8376C61.5111 15.2025 60.8019 14.8849 59.955 14.8849C59.1082 14.8849 58.399 15.2025 57.8273 15.8376C57.2557 16.4727 56.9699 17.3937 56.9699 18.6004C56.9699 19.8283 57.2451 20.7598 57.7956 21.395C58.346 22.0301 59.0553 22.3476 59.9233 22.3476Z" fill="#203B82"/>
<path id="Vector_6" d="M39.4198 27.7462C37.6415 27.7462 36.0431 27.3757 34.6246 26.6348C33.2274 25.8938 32.1265 24.8352 31.322 23.4591C30.5175 22.083 30.1152 20.4634 30.1152 18.6004C30.1152 16.7585 30.5175 15.1495 31.322 13.7734C32.1476 12.3973 33.2591 11.3388 34.6564 10.5978C36.0748 9.85682 37.6732 9.48633 39.4516 9.48633C41.23 9.48633 42.8178 9.85682 44.2151 10.5978C45.6335 11.3388 46.745 12.3973 47.5495 13.7734C48.3751 15.1495 48.788 16.7585 48.788 18.6004C48.788 20.4423 48.3751 22.0618 47.5495 23.4591C46.745 24.8352 45.6335 25.8938 44.2151 26.6348C42.7966 27.3757 41.1982 27.7462 39.4198 27.7462ZM39.4198 22.3476C40.2878 22.3476 41.0077 22.0301 41.5793 21.395C42.1721 20.7387 42.4685 19.8071 42.4685 18.6004C42.4685 17.3937 42.1721 16.4727 41.5793 15.8376C41.0077 15.2025 40.2984 14.8849 39.4516 14.8849C38.6048 14.8849 37.8955 15.2025 37.3239 15.8376C36.7523 16.4727 36.4665 17.3937 36.4665 18.6004C36.4665 19.8283 36.7417 20.7598 37.2922 21.395C37.8426 22.0301 38.5518 22.3476 39.4198 22.3476Z" fill="#203B82"/>
<path id="Vector_7" d="M29.0409 9.70557L24.4997 27.5209H17.5133L15.0363 16.7237L12.464 27.5209H5.5094L1 9.70557H7.19249L9.19314 21.5189L11.8289 9.70557H18.4977L21.2288 21.5507L23.1977 9.70557H29.0409Z" fill="#267DFF"/>
<ellipse id="Ellipse 5" cx="89.8372" cy="4.21609" rx="4.21609" ry="4.21609" fill="#267DFF"/>
</g>
</g>
</svg>
