<svg width="540" height="540" viewBox="0 0 540 540" fill="none" xmlns="http://www.w3.org/2000/svg">
<rect width="540" height="540" rx="40" fill="#D7E3F3"/>
<path d="M75 139.8C75 116.643 75 105.064 79.6494 96.2828C83.4014 89.1965 89.1965 83.4014 96.2828 79.6494C105.064 75 116.643 75 139.8 75H400.2C423.357 75 434.936 75 443.717 79.6494C450.803 83.4014 456.599 89.1965 460.351 96.2828C465 105.064 465 116.643 465 139.8V540H75V139.8Z" fill="white"/>
<path d="M73 115C73 91.804 91.804 73 115 73H425C448.196 73 467 91.804 467 115H463C463 94.0132 445.987 77 425 77H115C94.0132 77 77 94.0132 77 115H73ZM465 540H75H465ZM73 540V115C73 91.804 91.804 73 115 73V77C94.0132 77 77 94.0132 77 115V540H73ZM425 73C448.196 73 467 91.804 467 115V540H463V115C463 94.0132 445.987 77 425 77V73Z" fill="black"/>
<rect x="99.5" y="317.5" width="107" height="39" rx="7.5" stroke="#267DFF"/>
<path d="M147.752 331.924V333.305H140.369V331.924H143.199V330.748H144.936V331.924H147.752ZM144.061 333.701C145.865 333.701 147.123 334.631 147.123 335.998C147.123 337.365 145.865 338.295 144.061 338.295C142.256 338.295 140.971 337.365 140.971 335.998C140.971 334.631 142.256 333.701 144.061 333.701ZM144.061 335.014C143.227 335.014 142.666 335.355 142.68 335.998C142.666 336.627 143.227 336.955 144.061 336.955C144.895 336.955 145.469 336.627 145.469 335.998C145.469 335.355 144.895 335.014 144.061 335.014ZM150.24 330.816V334.043H151.922V335.465H150.24V338.623H148.49V330.816H150.24ZM150.24 339.143V343.258H148.49V340.537H141.859V339.143H150.24ZM155.941 331.35C157.534 331.336 158.799 332.245 159.141 333.578H161.219V330.816H162.955V337.502H161.219V334.973H159.154C158.826 336.34 157.548 337.27 155.941 337.27C154.027 337.27 152.619 336.025 152.633 334.289C152.619 332.58 154.027 331.336 155.941 331.35ZM155.941 332.799C154.971 332.785 154.273 333.359 154.287 334.289C154.273 335.219 154.971 335.807 155.941 335.807C156.885 335.807 157.568 335.219 157.568 334.289C157.568 333.359 156.885 332.785 155.941 332.799ZM156.379 338.049V339.252H161.219V338.049H162.955V343.121H154.656V338.049H156.379ZM156.379 341.713H161.219V340.592H156.379V341.713Z" fill="#267DFF"/>
<rect x="216.5" y="317.5" width="107" height="39" rx="7.5" stroke="#DFE2EC"/>
<path d="M267.527 330.967V339.949H266.461V330.967H267.527ZM257.738 337.625C259.563 337.03 260.842 335.506 260.842 333.797V333.469H258.039V332.607H260.842V331.021H261.922V332.607H264.697V333.469H261.908V333.797C261.901 335.403 263.207 336.839 265.025 337.393L264.492 338.254C263.063 337.789 261.936 336.825 261.389 335.567C260.855 336.921 259.728 337.974 258.285 338.473L257.738 337.625ZM259.68 342.848V339.115H260.746V341.945H267.91V342.848H259.68ZM279.258 331.473V335.574H275.662V337.133H280.666V338.008H269.592V337.133H274.596V335.574H271.027V331.473H279.258ZM270.822 340.141V339.279H279.299V343.107H278.219V340.141H270.822ZM272.08 334.713H278.191V332.334H272.08V334.713Z" fill="#222222"/>
<rect x="333.5" y="317.5" width="107" height="39" rx="7.5" stroke="#DFE2EC"/>
<path d="M377.842 331.691C378.867 331.685 379.735 332.074 380.303 332.717H383.488V330.953H384.568V338.158H383.488V336.422H380.303C379.742 337.064 378.867 337.454 377.842 337.447C376.023 337.454 374.677 336.265 374.684 334.576C374.677 332.874 376.023 331.685 377.842 331.691ZM375.709 334.576C375.709 335.704 376.598 336.538 377.842 336.531C379.045 336.538 379.947 335.704 379.947 334.576C379.947 333.421 379.045 332.614 377.842 332.621C376.598 332.614 375.709 333.421 375.709 334.576ZM376.461 340.756C376.454 339.293 378.013 338.445 380.535 338.445C383.051 338.445 384.609 339.293 384.609 340.756C384.609 342.232 383.051 343.08 380.535 343.08C378.013 343.08 376.454 342.232 376.461 340.756ZM377.514 340.756C377.507 341.672 378.669 342.226 380.535 342.219C382.401 342.226 383.563 341.672 383.557 340.756C383.563 339.833 382.401 339.286 380.535 339.279C378.669 339.286 377.507 339.833 377.514 340.756ZM380.815 333.592C380.925 333.893 380.986 334.221 380.986 334.576C380.986 334.918 380.925 335.239 380.822 335.533H383.488V333.592H380.815ZM396.627 330.953V343.135H395.561V330.953H396.627ZM387.275 332.977V332.088H392.936V336.408H388.396V339.279C390.413 339.286 392.211 339.19 394.385 338.842L394.494 339.744C392.259 340.093 390.413 340.182 388.314 340.182H387.303V335.533H391.855V332.977H387.275Z" fill="#222222"/>
<rect x="99.5" y="366.5" width="107" height="39" rx="7.5" stroke="#DFE2EC"/>
<path d="M144.864 379.953V392.135H143.784V379.953H144.864ZM136.62 380.992V384.205H140.243V380.992H141.296V389.195H135.554V380.992H136.62ZM136.62 388.293H140.243V385.066H136.62V388.293ZM150.292 380.691C151.317 380.685 152.192 381.067 152.753 381.717H155.938V379.953H157.019V387.158H155.938V385.422H152.767C152.192 386.071 151.317 386.454 150.292 386.447C148.474 386.461 147.134 385.271 147.134 383.576C147.134 381.867 148.474 380.678 150.292 380.691ZM150.292 381.621C149.048 381.607 148.159 382.428 148.159 383.576C148.159 384.711 149.048 385.531 150.292 385.531C151.495 385.531 152.397 384.711 152.397 383.576C152.397 382.428 151.495 381.607 150.292 381.621ZM152.985 387.445C155.501 387.445 157.06 388.293 157.06 389.756C157.06 391.232 155.501 392.08 152.985 392.08C150.456 392.08 148.911 391.232 148.911 389.756C148.911 388.293 150.456 387.445 152.985 387.445ZM152.985 388.279C151.126 388.279 149.964 388.84 149.964 389.756C149.964 390.672 151.126 391.219 152.985 391.219C154.858 391.219 156.007 390.672 156.007 389.756C156.007 388.84 154.858 388.279 152.985 388.279ZM153.272 382.592C153.375 382.893 153.437 383.221 153.437 383.576C153.437 383.918 153.375 384.239 153.272 384.533H155.938V382.592H153.272ZM169.077 379.953V392.135H168.011V379.953H169.077ZM165.386 381.088V385.408H160.847V388.279C162.863 388.279 164.661 388.19 166.835 387.842L166.944 388.744C164.702 389.1 162.856 389.182 160.765 389.182H159.753V384.533H164.306V381.977H159.726V381.088H165.386Z" fill="#222222"/>
<rect x="216.5" y="366.5" width="107" height="39" rx="7.5" stroke="#DFE2EC"/>
<path d="M268.967 386.051V386.939H257.893V386.051H262.896V384.738H259.369V380.281H260.436V381.648H266.451V380.281H267.518V384.738H263.963V386.051H268.967ZM263.43 387.842C266.041 387.842 267.6 388.607 267.613 389.961C267.6 391.328 266.041 392.08 263.43 392.08C260.791 392.08 259.232 391.328 259.232 389.961C259.232 388.607 260.791 387.842 263.43 387.842ZM263.43 388.676C261.475 388.676 260.326 389.141 260.326 389.961C260.326 390.781 261.475 391.246 263.43 391.246C265.357 391.246 266.52 390.781 266.52 389.961C266.52 389.141 265.357 388.676 263.43 388.676ZM260.436 383.891H266.451V382.496H260.436V383.891ZM274.066 383.221C274.066 385.367 275.488 387.568 277.211 388.416L276.555 389.277C275.215 388.573 274.094 387.138 273.561 385.449C273.014 387.247 271.865 388.778 270.498 389.51L269.814 388.648C271.592 387.773 273 385.436 273.014 383.221V381.006H274.066V383.221ZM279.398 379.953V384.889H281.436V385.818H279.398V392.107H278.332V379.953H279.398Z" fill="#222222"/>
<rect x="333.5" y="366.5" width="107" height="39" rx="7.5" stroke="#DFE2EC"/>
<path d="M366.908 383.686C366.895 385.641 368.303 387.787 370.066 388.621L369.451 389.469C368.084 388.806 366.929 387.356 366.389 385.709C365.828 387.5 364.604 389.072 363.244 389.77L362.588 388.922C364.338 388.074 365.842 385.764 365.855 383.686V382.1H363.025V381.211H369.643V382.1H366.908V383.686ZM372.199 379.953V384.875H374.236V385.791H372.199V392.107H371.133V379.953H372.199ZM384.941 379.953V392.107H383.861V379.953H384.941ZM381.346 381.279C381.332 384.779 379.705 387.869 375.631 389.824L375.043 388.949C378.331 387.391 380.006 385.06 380.252 382.154H375.604V381.279H381.346ZM397.369 379.953V392.107H396.316V385.75H394.635V391.506H393.609V380.281H394.635V384.861H396.316V379.953H397.369ZM392.229 381.539C392.215 384.629 391.135 387.555 387.635 389.496L387.006 388.744C389.829 387.172 390.998 384.943 391.176 382.428H387.471V381.539H392.229ZM400.664 380.473V382.223H404.205V380.473H405.271V385.764H399.611V380.473H400.664ZM400.664 384.889H404.205V383.057H400.664V384.889ZM408.594 379.953V382.592H410.426V383.494H408.594V386.242H407.527V379.953H408.594ZM408.594 386.816V389.756H401.922V391.096H409.045V391.971H400.869V388.936H407.527V387.678H400.842V386.816H408.594Z" fill="#222222"/>
<rect x="99.5" y="415.5" width="107" height="39" rx="7.5" stroke="#DFE2EC"/>
<path d="M145.473 431.25C145.473 432.48 146.689 433.52 148.412 433.902L147.975 434.764C146.573 434.422 145.493 433.677 144.967 432.686C144.44 433.759 143.347 434.572 141.904 434.928L141.439 434.066C143.189 433.684 144.406 432.549 144.406 431.25V431.195H141.699V430.348H144.406V428.994H145.473V430.348H148.18V431.195H145.473V431.25ZM150.914 428.967V441.121H149.861V428.967H150.914ZM140.865 435.789C143.189 435.789 146.279 435.762 148.973 435.42L149.041 436.199C147.879 436.391 146.676 436.507 145.5 436.568V440.752H144.434V436.623C143.203 436.685 142.034 436.691 141.016 436.691L140.865 435.789ZM159.322 430.156V438.059H153.703V430.156H159.322ZM154.756 431.018V437.184H158.27V431.018H154.756ZM163.014 428.953V441.135H161.934V428.953H163.014Z" fill="#222222"/>
<rect x="216.5" y="415.5" width="107" height="39" rx="7.5" stroke="#DFE2EC"/>
<path d="M264.783 430.184V431.072H257.906V430.184H260.859V428.844H261.926V430.184H264.783ZM261.379 431.66C263.006 431.66 264.154 432.535 264.154 433.861C264.154 435.174 263.006 436.035 261.379 436.035C259.738 436.035 258.617 435.174 258.631 433.861C258.617 432.535 259.738 431.66 261.379 431.66ZM261.379 432.494C260.326 432.494 259.629 433.041 259.629 433.861C259.629 434.668 260.326 435.229 261.379 435.229C262.432 435.229 263.143 434.668 263.156 433.861C263.143 433.041 262.432 432.494 261.379 432.494ZM267.969 428.953V436.145H266.889V435.064H264.77V434.176H266.889V432.686H264.783V431.797H266.889V428.953H267.969ZM261.119 436.65V437.936H266.902V436.65H267.969V440.943H260.053V436.65H261.119ZM261.119 440.082H266.902V438.77H261.119V440.082ZM279.959 428.953V441.107H278.893V428.953H279.959ZM270.061 437.867C271.1 437.86 272.289 437.854 273.52 437.812V436.486C272.063 436.329 271.113 435.502 271.127 434.285C271.113 432.918 272.289 432.029 274.039 432.029C275.789 432.029 276.979 432.918 276.979 434.285C276.979 435.488 276.035 436.315 274.6 436.473V437.771C275.775 437.724 276.965 437.635 278.086 437.484L278.168 438.305C275.461 438.742 272.48 438.783 270.225 438.783L270.061 437.867ZM277.771 430.457V431.332H270.32V430.457H273.52V428.967H274.6V430.457H277.771ZM274.039 432.863C272.918 432.863 272.125 433.438 272.125 434.285C272.125 435.133 272.918 435.68 274.039 435.666C275.174 435.68 275.953 435.133 275.953 434.285C275.953 433.438 275.174 432.863 274.039 432.863Z" fill="#222222"/>
<path d="M229.969 221.023V225.867H232.371V227.918H229.969V233.875H227.469V221.023H229.969ZM224.578 222.449V224.441H219.051V228.934C222.264 228.914 224.031 228.816 226.023 228.387L226.277 230.379C224.051 230.848 222 230.945 218.055 230.945H216.551V222.449H224.578ZM230.613 236.492V238.484H218.445V232.508H220.926V236.492H230.613ZM238.699 226.434C238.699 229.129 239.676 231.824 242.195 233.191L240.828 235.008C239.227 234.188 238.162 232.742 237.547 231.004C236.922 232.898 235.857 234.5 234.246 235.438L232.82 233.562C235.379 232.078 236.336 229.188 236.355 226.434V226.023H233.484V224.031H236.355V221.629H238.68V224.031H241.492V226.023H238.699V226.434ZM248.523 221.023V238.797H246.16V221.023H248.523ZM244.891 221.316V237.977H242.547V229.793H240.457V227.762H242.547V221.316H244.891ZM256.199 222.215C259.012 222.195 261.121 224.031 261.121 226.57C261.121 229.129 259.012 230.945 256.199 230.945C253.387 230.945 251.258 229.129 251.258 226.57C251.258 224.031 253.387 222.195 256.199 222.215ZM256.199 224.363C254.793 224.363 253.719 225.184 253.738 226.57C253.719 227.977 254.793 228.777 256.199 228.777C257.605 228.777 258.68 227.977 258.699 226.57C258.68 225.184 257.625 224.363 256.199 224.363ZM265.379 221.023V238.836H262.898V221.023H265.379ZM250.516 233.172C253.68 233.191 258.074 233.133 261.883 232.605L262.078 234.402C258.133 235.164 253.914 235.203 250.809 235.203L250.516 233.172ZM286.492 221.727V227.977H281.668V229.676H288.543V231.688H272.332V229.676H279.168V227.977H274.344V221.727H286.492ZM276.785 223.66V226.023H284.051V223.66H276.785ZM286.57 232.996V238.797H284.09V234.949H274.129V232.996H286.57ZM299.871 222.02V223.992H296.336C296.355 226.092 297.605 228.24 300.418 229.168L299.188 231.082C297.215 230.457 295.867 229.168 295.105 227.566C294.305 229.344 292.889 230.779 290.789 231.453L289.52 229.48C292.439 228.543 293.768 226.209 293.797 223.992H290.223V222.02H299.871ZM304.598 232.391V238.797H302.117V234.383H292.391V232.391H304.598ZM304.598 221.023V231.609H302.117V227.332H299.363V225.301H302.117V221.023H304.598ZM315.008 221.277C319.09 221.277 321.453 222.352 321.473 224.305C321.453 226.277 319.09 227.352 315.008 227.352C310.906 227.352 308.523 226.277 308.523 224.305C308.523 222.352 310.906 221.277 315.008 221.277ZM315.008 223.094C312.391 223.094 311.121 223.523 311.141 224.305C311.121 225.184 312.391 225.516 315.008 225.516C317.645 225.516 318.895 225.184 318.895 224.305C318.895 223.523 317.645 223.094 315.008 223.094ZM323.113 228.191V230.164H306.902V228.191H323.113ZM321.141 231.199V235.73H311.238V236.805H321.609V238.68H308.797V233.992H318.68V233.016H308.777V231.199H321.141ZM233.475 254.07C233.475 256.375 234.705 258.66 237.537 259.598L236.189 261.551C234.305 260.857 233.006 259.549 232.264 257.898C231.492 259.754 230.105 261.219 228.045 261.961L226.697 260.008C229.666 259.031 230.955 256.59 230.955 254.051V252.117H233.475V254.07ZM241.795 251.043V264.168H239.314V256.824H235.975V254.812H239.314V251.043H241.795ZM242.166 266.492V268.484H229.959V262.781H232.479V266.492H242.166ZM251.756 252.215V254.207H247.107V255.672H251.58V257.566H247.107V259.129C249.08 259.119 250.545 259.041 252.186 258.758L252.439 260.75C250.35 261.121 248.611 261.18 245.936 261.18H244.725V252.215H251.756ZM259.373 251.043V261.883H257.01V257.371H255.467V261.746H253.143V251.355H255.467V255.379H257.01V251.043H259.373ZM259.373 262.625V268.797H256.893V264.617H247.088V262.625H259.373ZM275.408 251.023V257.977H278.025V260.027H275.408V268.797H272.947V251.023H275.408ZM271.736 253.68V255.672H261.287V253.68H265.311V251.297H267.811V253.68H271.736ZM266.561 256.668C269.158 256.668 271.092 258.426 271.092 260.906C271.092 263.387 269.158 265.145 266.561 265.145C263.943 265.145 262.01 263.387 262.01 260.906C262.01 258.426 263.943 256.668 266.561 256.668ZM266.561 258.68C265.311 258.699 264.393 259.539 264.393 260.906C264.393 262.293 265.311 263.113 266.561 263.094C267.811 263.113 268.709 262.293 268.709 260.906C268.709 259.539 267.811 258.699 266.561 258.68ZM284.373 255.496C284.373 258.367 285.174 261.336 287.596 262.898L286.248 264.832C284.715 263.904 283.738 262.381 283.182 260.555C282.537 262.566 281.473 264.246 279.861 265.223L278.338 263.387C280.975 261.746 281.951 258.621 281.951 255.613V252.547H284.373V255.496ZM294.08 251.023V268.797H291.697V251.023H294.08ZM290.35 251.277V267.977H288.025V259.051H285.721V257.02H288.025V251.277H290.35ZM312.225 264.676V266.727H295.955V264.676H299.588V260.32C298.211 259.5 297.381 258.24 297.381 256.668C297.381 253.797 300.193 251.883 304.061 251.883C307.908 251.883 310.74 253.797 310.76 256.668C310.75 258.201 309.939 259.451 308.611 260.281V264.676H312.225ZM304.061 253.855C301.521 253.855 299.842 254.871 299.842 256.668C299.842 258.406 301.521 259.48 304.061 259.48C306.58 259.48 308.279 258.406 308.299 256.668C308.279 254.871 306.58 253.855 304.061 253.855ZM302.049 264.676H306.092V261.219C305.457 261.346 304.773 261.414 304.061 261.414C303.348 261.414 302.674 261.355 302.049 261.219V264.676Z" fill="black"/>
<path d="M210 170H330" stroke="#EBEDF1" stroke-width="1.5"/>
<circle cx="245.001" cy="170" r="15" fill="#EBEDF1"/>
<path d="M241.669 174L241.657 172.723L244.704 169.922C245.495 169.166 245.923 168.697 245.923 168.023C245.923 167.268 245.354 166.799 244.575 166.805C243.778 166.799 243.257 167.303 243.263 168.117H241.587C241.581 166.459 242.812 165.398 244.599 165.398C246.415 165.398 247.622 166.436 247.622 167.906C247.622 168.873 247.153 169.664 245.407 171.246L244.118 172.5V172.547H247.739V174H241.669Z" fill="#4D5766"/>
<circle cx="195.001" cy="170" r="15" fill="#4D5766"/>
<path d="M195.825 165.516V174H194.056V167.191H194.009L192.063 168.41V166.852L194.161 165.516H195.825Z" fill="white"/>
<circle cx="295" cy="170" r="15" fill="#EBEDF1"/>
<path d="M294.809 174.117C292.945 174.117 291.609 173.086 291.574 171.609H293.355C293.391 172.242 294 172.664 294.82 172.664C295.664 172.664 296.273 172.184 296.262 171.504C296.273 170.812 295.652 170.32 294.656 170.32H293.871V169.02H294.656C295.488 169.02 296.074 168.562 296.074 167.895C296.074 167.25 295.582 166.805 294.832 166.805C294.082 166.805 293.461 167.227 293.438 167.871H291.75C291.773 166.406 293.098 165.398 294.832 165.398C296.602 165.398 297.785 166.441 297.773 167.789C297.785 168.738 297.117 169.418 296.168 169.582V169.652C297.41 169.805 298.102 170.566 298.09 171.621C298.102 173.074 296.719 174.117 294.809 174.117Z" fill="#4D5766"/>
<circle cx="345" cy="170" r="15" fill="#EBEDF1"/>
<path d="M341.527 172.5V171.105L345.113 165.516H347.328V171.082H348.406V172.5H347.328V174H345.652V172.5H341.527ZM343.309 171.082H345.676V167.449H345.594L343.309 171.012V171.082Z" fill="#4D5766"/>
</svg>
