<svg width="540" height="540" viewBox="0 0 540 540" fill="none" xmlns="http://www.w3.org/2000/svg">
<rect width="540" height="540" rx="40" fill="#D7E3F3"/>
<path d="M75 139.8C75 116.643 75 105.064 79.6494 96.2828C83.4014 89.1965 89.1965 83.4014 96.2828 79.6494C105.064 75 116.643 75 139.8 75H400.2C423.357 75 434.936 75 443.717 79.6494C450.803 83.4014 456.599 89.1965 460.351 96.2828C465 105.064 465 116.643 465 139.8V540H75V139.8Z" fill="white"/>
<path d="M73 115C73 91.804 91.804 73 115 73H425C448.196 73 467 91.804 467 115H463C463 94.0132 445.987 77 425 77H115C94.0132 77 77 94.0132 77 115H73ZM465 540H75H465ZM73 540V115C73 91.804 91.804 73 115 73V77C94.0132 77 77 94.0132 77 115V540H73ZM425 73C448.196 73 467 91.804 467 115V540H463V115C463 94.0132 445.987 77 425 77V73Z" fill="black"/>
<path d="M210.836 221.043V234.461H208.336V233.055H204.938V231.355H208.336V221.043H210.836ZM211.227 236.492V238.484H197.984V233.172H200.465V230.809C198.873 230.877 197.359 230.887 196.012 230.887L195.719 228.914C198.98 228.895 203.375 228.855 207.125 228.387L207.262 230.164C205.855 230.398 204.4 230.564 202.965 230.672V234.051H200.465V236.492H211.227ZM201.5 221.648C204.078 221.629 205.934 222.938 205.934 224.832C205.934 226.727 204.078 227.957 201.5 227.957C198.863 227.957 197.027 226.727 197.027 224.832C197.027 222.938 198.844 221.629 201.5 221.648ZM201.5 223.465C200.23 223.465 199.371 223.953 199.391 224.832C199.371 225.691 200.23 226.16 201.5 226.16C202.691 226.16 203.551 225.691 203.57 224.832C203.551 223.953 202.691 223.465 201.5 223.465ZM227.086 221.023V227.977H229.703V230.027H227.086V238.797H224.625V221.023H227.086ZM223.414 223.68V225.672H212.965V223.68H216.988V221.297H219.488V223.68H223.414ZM218.238 226.668C220.836 226.668 222.77 228.426 222.77 230.906C222.77 233.387 220.836 235.145 218.238 235.145C215.621 235.145 213.688 233.387 213.688 230.906C213.688 228.426 215.621 226.668 218.238 226.668ZM218.238 228.68C216.988 228.699 216.07 229.539 216.07 230.906C216.07 232.293 216.988 233.113 218.238 233.094C219.488 233.113 220.387 232.293 220.387 230.906C220.387 229.539 219.488 228.699 218.238 228.68ZM244.781 225.867V227.82H232.359V221.648H234.84V225.867H244.781ZM246.598 229.734V231.688H230.328V229.734H246.598ZM244.898 236.414V238.406H232.203V233.133H234.703V236.414H244.898ZM267.613 221.023V238.797H265.25V221.023H267.613ZM263.98 221.316V237.977H261.637V229.129H259.293V227.117H261.637V221.316H263.98ZM257.867 225.789C257.867 228.738 258.785 231.727 261.383 233.211L259.918 235.047C258.336 234.109 257.291 232.518 256.695 230.613C256.08 232.684 255.006 234.441 253.375 235.438L251.871 233.602C254.488 232 255.465 228.797 255.465 225.789V224.832H252.555V222.84H260.562V224.832H257.867V225.789ZM284.898 222.801V224.754H270.309V222.801H276.383V221.004H278.863V222.801H284.898ZM285.797 232.391V234.402H282.027V238.816H279.508V234.402H275.797V238.816H273.316V234.402H269.527V232.391H285.797ZM277.633 225.477C281.441 225.477 283.746 226.531 283.766 228.504C283.746 230.457 281.441 231.551 277.633 231.551C273.785 231.551 271.48 230.457 271.5 228.504C271.48 226.531 273.785 225.477 277.633 225.477ZM277.633 227.332C275.25 227.332 274.078 227.684 274.078 228.504C274.078 229.285 275.25 229.676 277.633 229.676C279.977 229.676 281.168 229.285 281.168 228.504C281.168 227.684 279.977 227.332 277.633 227.332ZM298.316 225.867C298.316 228.738 299.781 231.805 302.77 233.055L301.422 235.008C299.322 234.119 297.877 232.352 297.086 230.184C296.275 232.537 294.801 234.49 292.711 235.457L291.285 233.484C294.234 232.176 295.758 228.875 295.758 225.867V224.773H291.988V222.742H302.027V224.773H298.316V225.867ZM306.305 221.023V238.797H303.785V221.023H306.305ZM323.688 232.332V238.797H321.207V234.285H311.48V232.332H323.688ZM323.688 221.023V231.531H321.207V229.285H317.223C316.373 230.203 315.113 230.75 313.668 230.75C310.973 230.75 308.922 228.895 308.941 226.316C308.922 223.797 310.973 221.961 313.668 221.98C315.113 221.971 316.373 222.508 317.223 223.406H321.207V221.023H323.688ZM313.668 224.07C312.281 224.07 311.285 224.93 311.305 226.316C311.285 227.781 312.281 228.621 313.668 228.621C314.977 228.621 315.992 227.781 315.992 226.316C315.992 224.93 314.977 224.07 313.668 224.07ZM318.258 227.293H321.207V225.418H318.277C318.326 225.701 318.355 226.004 318.355 226.316C318.355 226.658 318.316 226.98 318.258 227.293ZM334.098 221.277C338.18 221.277 340.543 222.352 340.562 224.305C340.543 226.277 338.18 227.352 334.098 227.352C329.996 227.352 327.613 226.277 327.613 224.305C327.613 222.352 329.996 221.277 334.098 221.277ZM334.098 223.094C331.48 223.094 330.211 223.523 330.23 224.305C330.211 225.184 331.48 225.516 334.098 225.516C336.734 225.516 337.984 225.184 337.984 224.305C337.984 223.523 336.734 223.094 334.098 223.094ZM342.203 228.191V230.164H325.992V228.191H342.203ZM340.23 231.199V235.73H330.328V236.805H340.699V238.68H327.887V233.992H337.77V233.016H327.867V231.199H340.23ZM232.975 254.07C232.975 256.375 234.205 258.66 237.037 259.598L235.689 261.551C233.805 260.857 232.506 259.549 231.764 257.898C230.992 259.754 229.605 261.219 227.545 261.961L226.197 260.008C229.166 259.031 230.455 256.59 230.455 254.051V252.117H232.975V254.07ZM241.295 251.043V264.168H238.814V256.824H235.475V254.812H238.814V251.043H241.295ZM241.666 266.492V268.484H229.459V262.781H231.979V266.492H241.666ZM251.256 252.215V254.207H246.607V255.672H251.08V257.566H246.607V259.129C248.58 259.119 250.045 259.041 251.686 258.758L251.939 260.75C249.85 261.121 248.111 261.18 245.436 261.18H244.225V252.215H251.256ZM258.873 251.043V261.883H256.51V257.371H254.967V261.746H252.643V251.355H254.967V255.379H256.51V251.043H258.873ZM258.873 262.625V268.797H256.393V264.617H246.588V262.625H258.873ZM274.908 251.023V257.977H277.525V260.027H274.908V268.797H272.447V251.023H274.908ZM271.236 253.68V255.672H260.787V253.68H264.811V251.297H267.311V253.68H271.236ZM266.061 256.668C268.658 256.668 270.592 258.426 270.592 260.906C270.592 263.387 268.658 265.145 266.061 265.145C263.443 265.145 261.51 263.387 261.51 260.906C261.51 258.426 263.443 256.668 266.061 256.668ZM266.061 258.68C264.811 258.699 263.893 259.539 263.893 260.906C263.893 262.293 264.811 263.113 266.061 263.094C267.311 263.113 268.209 262.293 268.209 260.906C268.209 259.539 267.311 258.699 266.061 258.68ZM283.873 255.496C283.873 258.367 284.674 261.336 287.096 262.898L285.748 264.832C284.215 263.904 283.238 262.381 282.682 260.555C282.037 262.566 280.973 264.246 279.361 265.223L277.838 263.387C280.475 261.746 281.451 258.621 281.451 255.613V252.547H283.873V255.496ZM293.58 251.023V268.797H291.197V251.023H293.58ZM289.85 251.277V267.977H287.525V259.051H285.221V257.02H287.525V251.277H289.85ZM311.725 264.676V266.727H295.455V264.676H299.088V260.32C297.711 259.5 296.881 258.24 296.881 256.668C296.881 253.797 299.693 251.883 303.561 251.883C307.408 251.883 310.24 253.797 310.26 256.668C310.25 258.201 309.439 259.451 308.111 260.281V264.676H311.725ZM303.561 253.855C301.021 253.855 299.342 254.871 299.342 256.668C299.342 258.406 301.021 259.48 303.561 259.48C306.08 259.48 307.779 258.406 307.799 256.668C307.779 254.871 306.08 253.855 303.561 253.855ZM301.549 264.676H305.592V261.219C304.957 261.346 304.273 261.414 303.561 261.414C302.848 261.414 302.174 261.355 301.549 261.219V264.676Z" fill="black"/>
<rect x="99.5" y="317.5" width="341" height="47" rx="9.5" stroke="#DFE2EC"/>
<circle cx="419" cy="341" r="9.5" stroke="#DFE2EC"/>
<path d="M423 339.5H415L419 345L423 339.5Z" fill="#222222"/>
<path d="M121.568 334.967V342.268H120.488V340.627H117.262V339.738H120.488V338.098H117.385C116.585 340.053 114.705 341.468 112.107 342.24L111.656 341.393C114.596 340.518 116.421 338.877 116.646 336.771H112.271V335.869H117.809C117.809 336.348 117.754 336.806 117.658 337.236H120.488V334.967H121.568ZM117.59 342.391C120.051 342.391 121.637 343.266 121.637 344.715C121.637 346.178 120.051 347.053 117.59 347.053C115.102 347.053 113.529 346.178 113.529 344.715C113.529 343.266 115.102 342.391 117.59 342.391ZM117.59 343.252C115.758 343.238 114.582 343.799 114.582 344.715C114.582 345.631 115.758 346.178 117.59 346.178C119.395 346.178 120.557 345.631 120.57 344.715C120.557 343.799 119.395 343.238 117.59 343.252ZM133.641 334.953V347.107H132.561V334.953H133.641ZM130.045 336.279C130.031 339.779 128.404 342.869 124.33 344.824L123.742 343.949C127.03 342.391 128.705 340.06 128.951 337.154H124.303V336.279H130.045ZM145.508 340.654V341.529H141.748V344.674H146.82V345.576H135.691V344.674H140.695V341.529H137.113V335.951H145.385V336.826H138.193V340.654H145.508ZM158.332 342.541L152.084 345.699V344.428L156.814 342.172V342.09L152.084 339.82V338.549L158.332 341.721V342.541ZM169.693 336.088C169.693 337.797 171.936 339.287 174.123 339.588L173.686 340.463C171.799 340.148 169.933 339.103 169.146 337.605C168.367 339.109 166.494 340.148 164.607 340.463L164.17 339.588C166.357 339.287 168.586 337.824 168.586 336.088V335.391H169.693V336.088ZM174.67 341.803V342.705H169.639V347.107H168.586V342.705H163.596V341.803H174.67ZM185.717 334.967V344.195H184.637V342.938H182.121V342.158H184.637V334.967H185.717ZM186.018 345.945V346.848H177.377V343.293H178.457V345.945H186.018ZM175.627 340.6C177.896 340.586 180.932 340.572 183.543 340.244L183.611 341.023C182.524 341.194 181.39 341.304 180.275 341.365V343.771H179.195V341.42C177.965 341.475 176.796 341.481 175.777 341.475L175.627 340.6ZM179.619 335.459C181.396 335.459 182.613 336.307 182.627 337.578C182.613 338.877 181.396 339.684 179.619 339.684C177.828 339.684 176.611 338.877 176.611 337.578C176.611 336.307 177.828 335.459 179.619 335.459ZM179.619 336.279C178.43 336.266 177.623 336.799 177.637 337.578C177.623 338.371 178.43 338.891 179.619 338.891C180.768 338.891 181.588 338.371 181.602 337.578C181.588 336.799 180.768 336.266 179.619 336.279ZM192.115 338.221C192.102 340.436 193.619 342.678 195.41 343.484L194.754 344.332C193.373 343.655 192.177 342.227 191.596 340.49C191.028 342.329 189.832 343.86 188.41 344.578L187.727 343.676C189.531 342.842 191.035 340.531 191.049 338.221V336.006H192.115V338.221ZM197.816 334.953V347.135H196.736V334.953H197.816ZM210.436 342.541L204.188 345.699V344.428L208.918 342.172V342.09L204.188 339.82V338.549L210.436 341.721V342.541ZM219.049 335.691C220.074 335.685 220.949 336.067 221.51 336.717H224.695V334.953H225.775V342.158H224.695V340.422H221.523C220.949 341.071 220.074 341.454 219.049 341.447C217.23 341.461 215.891 340.271 215.891 338.576C215.891 336.867 217.23 335.678 219.049 335.691ZM219.049 336.621C217.805 336.607 216.916 337.428 216.916 338.576C216.916 339.711 217.805 340.531 219.049 340.531C220.252 340.531 221.154 339.711 221.154 338.576C221.154 337.428 220.252 336.607 219.049 336.621ZM221.742 342.445C224.258 342.445 225.816 343.293 225.816 344.756C225.816 346.232 224.258 347.08 221.742 347.08C219.213 347.08 217.668 346.232 217.668 344.756C217.668 343.293 219.213 342.445 221.742 342.445ZM221.742 343.279C219.883 343.279 218.721 343.84 218.721 344.756C218.721 345.672 219.883 346.219 221.742 346.219C223.615 346.219 224.764 345.672 224.764 344.756C224.764 343.84 223.615 343.279 221.742 343.279ZM222.029 337.592C222.132 337.893 222.193 338.221 222.193 338.576C222.193 338.918 222.132 339.239 222.029 339.533H224.695V337.592H222.029ZM238.873 341.406V342.281H227.785V341.406H232.789V340.203H229.262V335.309H237.492V336.184H230.342V337.318H237.164V338.139H230.342V339.342H237.561V340.203H233.855V341.406H238.873ZM233.336 343.197C236.002 343.184 237.506 343.867 237.52 345.139C237.506 346.41 236.002 347.08 233.336 347.08C230.643 347.08 229.139 346.41 229.139 345.139C229.139 343.867 230.643 343.184 233.336 343.197ZM233.336 344.004C231.326 344.004 230.205 344.414 230.219 345.139C230.205 345.877 231.326 346.26 233.336 346.246C235.318 346.26 236.439 345.877 236.439 345.139C236.439 344.414 235.318 344.004 233.336 344.004ZM249.51 335.746V336.812C249.51 337.968 249.51 339.219 249.168 340.969H250.973V341.857H245.955V347.135H244.875V341.857H239.898V340.969H248.074C248.443 339.219 248.443 337.94 248.443 336.812V336.635H241.293V335.746H249.51Z" fill="#222222"/>
<rect x="99.5" y="377.5" width="341" height="47" rx="9.5" stroke="#DFE2EC"/>
<circle cx="419" cy="401" r="9.5" stroke="#DFE2EC"/>
<path d="M423 399.5H415L419 405L423 399.5Z" fill="#222222"/>
<path d="M115.771 398.221C115.771 400.422 117.18 402.637 118.943 403.443L118.301 404.318C116.92 403.607 115.778 402.151 115.238 400.422C114.698 402.24 113.557 403.799 112.176 404.537L111.479 403.676C113.256 402.801 114.678 400.463 114.678 398.221V396.006H115.771V398.221ZM121.568 394.953V407.135H120.502V399.984H117.617V399.109H120.502V394.953H121.568ZM129.129 395.104C131.836 395.104 133.422 395.855 133.422 397.209C133.422 398.576 131.836 399.314 129.129 399.328C126.422 399.314 124.822 398.576 124.822 397.209C124.822 395.855 126.422 395.104 129.129 395.104ZM129.129 395.924C127.105 395.938 125.93 396.402 125.943 397.209C125.93 398.043 127.105 398.494 129.129 398.508C131.139 398.494 132.328 398.043 132.328 397.209C132.328 396.402 131.139 395.938 129.129 395.924ZM134.666 400.135V400.996H129.648V402.145H133.244V404.865H126.025V406.123H133.613V406.971H124.959V404.072H132.191V402.965H124.932V402.145H128.582V400.996H123.592V400.135H134.666ZM146.232 402.541L139.984 405.699V404.428L144.715 402.172V402.09L139.984 399.82V398.549L146.232 401.721V402.541ZM160.998 394.953V398.125H162.83V399.014H160.998V402.254H159.932V394.953H160.998ZM157.689 395.855C157.689 398.945 155.502 401.229 151.961 402.268L151.51 401.393C154.442 400.545 156.315 398.856 156.541 396.744H152.043V395.855H157.689ZM157.156 402.391C159.604 402.391 161.135 403.279 161.135 404.729C161.135 406.205 159.604 407.08 157.156 407.08C154.736 407.08 153.164 406.205 153.178 404.729C153.164 403.279 154.736 402.391 157.156 402.391ZM157.156 403.252C155.379 403.238 154.23 403.812 154.244 404.729C154.23 405.645 155.379 406.219 157.156 406.219C158.947 406.219 160.096 405.645 160.096 404.729C160.096 403.812 158.947 403.238 157.156 403.252ZM173.098 394.967V397.756H174.943V398.658H173.098V401.83H172.031V394.967H173.098ZM173.098 402.5V406.943H165.4V402.5H173.098ZM166.453 403.348V406.068H172.059V403.348H166.453ZM165.264 395.582V399.998C166.993 399.991 168.777 399.854 170.746 399.451L170.883 400.354C168.818 400.764 166.986 400.9 165.154 400.9H164.184V395.582H165.264ZM185.307 395.746V396.812C185.307 397.968 185.307 399.219 184.965 400.969H186.77V401.857H181.752V407.135H180.672V401.857H175.695V400.969H183.871C184.24 399.219 184.24 397.94 184.24 396.812V396.635H177.09V395.746H185.307Z" fill="#222222"/>
<rect x="99.5" y="437.5" width="341" height="47" rx="9.5" stroke="#DFE2EC"/>
<circle cx="419" cy="461" r="9.5" stroke="#DFE2EC"/>
<path d="M423 459.5H415L419 465L423 459.5Z" fill="#222222"/>
<path d="M115.84 458.686C115.847 460.75 117.344 462.849 119.135 463.621L118.533 464.469C117.111 463.826 115.888 462.425 115.32 460.743C114.753 462.527 113.522 464.072 112.135 464.77L111.492 463.922C113.235 463.088 114.753 460.791 114.76 458.686V457.1H111.889V456.211H118.738V457.1H115.84V458.686ZM120.434 467.107V454.953H121.514V467.107H120.434ZM133.668 462.787V467.107H132.588V463.648H125.492V462.787H133.668ZM123.783 458.549C123.776 456.854 125.123 455.644 126.941 455.65C127.994 455.644 128.89 456.061 129.45 456.744H132.588V454.953H133.668V462.117H132.588V460.367H129.457C128.896 461.058 128.001 461.468 126.941 461.461C125.123 461.475 123.776 460.278 123.783 458.549ZM124.809 458.549C124.809 459.731 125.697 460.559 126.941 460.559C128.138 460.559 129.047 459.731 129.047 458.549C129.047 457.407 128.138 456.566 126.941 456.566C125.697 456.566 124.809 457.407 124.809 458.549ZM129.942 459.479H132.588V457.633H129.936C130.031 457.92 130.086 458.221 130.086 458.549C130.086 458.877 130.031 459.191 129.942 459.479ZM141.229 455.172C143.929 455.172 145.515 455.917 145.521 457.264C145.515 458.645 143.929 459.39 141.229 459.396C138.515 459.39 136.922 458.645 136.922 457.264C136.922 455.917 138.515 455.172 141.229 455.172ZM135.691 461.092V460.217H146.766V461.092H135.691ZM137.031 462.965V462.145H145.344V464.865H138.125V466.123H145.713V466.971H137.059V464.072H144.291V462.965H137.031ZM138.043 457.264C138.029 458.111 139.212 458.576 141.229 458.576C143.245 458.576 144.421 458.111 144.428 457.264C144.421 456.464 143.245 455.985 141.229 455.979C139.212 455.985 138.029 456.464 138.043 457.264ZM155.461 457.25C155.461 458.945 156.691 460.545 158.469 461.188L157.867 462.021C156.534 461.495 155.468 460.442 154.948 459.116C154.436 460.586 153.328 461.748 151.893 462.322L151.318 461.447C153.144 460.777 154.401 459.075 154.408 457.209V455.705H155.461V457.25ZM153.52 466.848V463.033H154.6V465.945H161.654V466.848H153.52ZM157.594 458.727V457.824H160.301V454.967H161.381V464.072H160.301V458.727H157.594ZM168.668 455.842V456.744H164.977V458.262H168.531V459.109H164.977V460.791C166.747 460.784 167.854 460.716 169.16 460.463L169.27 461.352C167.841 461.632 166.692 461.687 164.717 461.693H163.951V455.842H168.668ZM165.537 463.84V462.965H173.727V467.107H172.674V463.84H165.537ZM169.994 462.254V455.199H170.992V458.139H172.701V454.967H173.727V462.336H172.701V459.014H170.992V462.254H169.994ZM184.91 454.953V459.971H186.947V460.859H184.91V467.107H183.844V454.953H184.91ZM175.436 457.797V456.908H178.566V455.104H179.633V456.908H182.668V457.797H175.436ZM176.133 461.598C176.126 459.957 177.384 458.809 179.113 458.809C180.829 458.809 182.08 459.957 182.094 461.598C182.08 463.245 180.829 464.387 179.113 464.387C177.384 464.387 176.126 463.245 176.133 461.598ZM177.158 461.598C177.151 462.705 177.979 463.484 179.113 463.471C180.234 463.484 181.055 462.705 181.068 461.598C181.055 460.497 180.234 459.704 179.113 459.711C177.979 459.704 177.151 460.497 177.158 461.598ZM191.213 458.412C191.213 460.347 192.156 462.432 193.77 463.389L193.154 464.223C191.979 463.512 191.138 462.213 190.714 460.729C190.27 462.35 189.367 463.744 188.15 464.482L187.467 463.676C189.148 462.691 190.174 460.538 190.174 458.453V456.102H191.213V458.412ZM192.43 460.23V459.314H194.494V455.213H195.506V466.492H194.494V460.23H192.43ZM196.982 467.107V454.953H198.021V467.107H196.982ZM210.832 464.646V465.549H199.703V464.646H202.465V461.372C201.426 460.832 200.797 459.957 200.797 458.85C200.797 456.97 202.643 455.732 205.24 455.719C207.838 455.732 209.684 456.97 209.684 458.85C209.684 459.937 209.075 460.798 208.07 461.338V464.646H210.832ZM201.836 458.85C201.829 460.21 203.244 461.119 205.24 461.119C207.216 461.119 208.645 460.21 208.645 458.85C208.645 457.489 207.216 456.594 205.24 456.607C203.244 456.594 201.829 457.489 201.836 458.85ZM203.518 464.646H206.99V461.755C206.464 461.892 205.876 461.967 205.24 461.967C204.618 461.967 204.037 461.898 203.518 461.762V464.646Z" fill="#858C9F"/>
<path d="M210 170H330" stroke="#EBEDF1" stroke-width="1.5"/>
<circle cx="195" cy="170" r="15" fill="#EBEDF1"/>
<path d="M196.324 165.516V174H194.555V167.191H194.508L192.562 168.41V166.851L194.66 165.516H196.324Z" fill="#4D5766"/>
<circle cx="295" cy="170" r="15" fill="#4D5766"/>
<path d="M295.309 174.117C293.445 174.117 292.109 173.092 292.074 171.609H293.855C293.885 172.242 294.5 172.658 295.32 172.664C296.164 172.658 296.768 172.189 296.762 171.504C296.768 170.812 296.152 170.326 295.156 170.32H294.371V169.019H295.156C295.994 169.019 296.58 168.562 296.574 167.894C296.58 167.244 296.082 166.799 295.332 166.804C294.582 166.799 293.967 167.22 293.938 167.871H292.25C292.279 166.412 293.592 165.398 295.332 165.398C297.102 165.398 298.279 166.447 298.273 167.789C298.279 168.738 297.617 169.412 296.668 169.582V169.652C297.916 169.804 298.602 170.56 298.59 171.621C298.602 173.074 297.225 174.117 295.309 174.117Z" fill="white"/>
<circle cx="245" cy="170" r="15" fill="#EBEDF1"/>
<path d="M241.668 174L241.656 172.722L244.703 169.922C245.494 169.166 245.922 168.697 245.922 168.023C245.922 167.267 245.354 166.799 244.574 166.804C243.777 166.799 243.256 167.302 243.262 168.117H241.586C241.58 166.459 242.811 165.398 244.598 165.398C246.414 165.398 247.621 166.435 247.621 167.906C247.621 168.873 247.152 169.664 245.406 171.246L244.117 172.5V172.547H247.738V174H241.668Z" fill="#4D5766"/>
<circle cx="345" cy="170" r="15" fill="#EBEDF1"/>
<path d="M341.527 172.5V171.105L345.113 165.516H347.328V171.082H348.406V172.5H347.328V174H345.652V172.5H341.527ZM343.309 171.082H345.676V167.449H345.594L343.309 171.012V171.082Z" fill="#4D5766"/>
</svg>
