<svg width="540" height="540" viewBox="0 0 540 540" fill="none" xmlns="http://www.w3.org/2000/svg">
<rect width="540" height="540" rx="40" fill="#D7E3F3"/>
<g clip-path="url(#clip0_1472_37884)">
<path d="M75 139.8C75 116.643 75 105.064 79.6494 96.2828C83.4014 89.1965 89.1965 83.4014 96.2828 79.6494C105.064 75 116.643 75 139.8 75H400.2C423.357 75 434.936 75 443.717 79.6494C450.803 83.4014 456.599 89.1965 460.351 96.2828C465 105.064 465 116.643 465 139.8V540H75V139.8Z" fill="white"/>
<path d="M231.238 221.023V238.797H228.875V221.023H231.238ZM227.605 221.316V237.977H225.262V229.129H222.918V227.117H225.262V221.316H227.605ZM221.492 225.789C221.492 228.738 222.41 231.727 225.008 233.211L223.543 235.047C221.961 234.109 220.916 232.518 220.32 230.613C219.705 232.684 218.631 234.441 217 235.438L215.496 233.602C218.113 232 219.09 228.797 219.09 225.789V224.832H216.18V222.84H224.188V224.832H221.492V225.789ZM238.211 221.551C240.906 221.551 242.957 223.23 242.957 225.613C242.957 227.957 240.906 229.656 238.211 229.656C235.457 229.656 233.426 227.957 233.426 225.613C233.426 223.23 235.457 221.551 238.211 221.551ZM238.211 223.582C236.844 223.582 235.828 224.324 235.848 225.613C235.828 226.883 236.844 227.645 238.211 227.645C239.559 227.645 240.555 226.883 240.555 225.613C240.555 224.324 239.559 223.582 238.211 223.582ZM248.035 221.023V229.93H245.535V221.023H248.035ZM248.035 230.672V235.496H238.582V236.648H248.523V238.602H236.141V233.68H245.555V232.586H236.102V230.672H248.035ZM271.258 229.09V231.102H264.383V232.41C267.479 232.645 269.305 233.758 269.324 235.594C269.305 237.645 266.98 238.797 263.133 238.797C259.227 238.797 256.902 237.645 256.902 235.594C256.902 233.748 258.748 232.635 261.902 232.41V231.102H255.047V229.09H271.258ZM263.133 234.246C260.672 234.266 259.422 234.695 259.441 235.594C259.422 236.453 260.672 236.922 263.133 236.922C265.535 236.922 266.805 236.453 266.824 235.594C266.805 234.695 265.535 234.266 263.133 234.246ZM269.793 221.785V223.738H264.969C265.389 224.988 267.195 226.189 270.574 226.473L269.695 228.426C266.346 228.104 264.08 226.834 263.133 225.105C262.195 226.834 259.969 228.104 256.59 228.426L255.77 226.473C259.061 226.189 260.877 224.979 261.336 223.738H256.531V221.785H269.793ZM288.602 234.676V236.727H272.332V234.676H275.965V230.32C274.588 229.5 273.758 228.24 273.758 226.668C273.758 223.797 276.57 221.883 280.438 221.883C284.285 221.883 287.117 223.797 287.137 226.668C287.127 228.201 286.316 229.451 284.988 230.281V234.676H288.602ZM280.438 223.855C277.898 223.855 276.219 224.871 276.219 226.668C276.219 228.406 277.898 229.48 280.438 229.48C282.957 229.48 284.656 228.406 284.676 226.668C284.656 224.871 282.957 223.855 280.438 223.855ZM278.426 234.676H282.469V231.219C281.834 231.346 281.15 231.414 280.438 231.414C279.725 231.414 279.051 231.355 278.426 231.219V234.676ZM303.641 221.023V227.977H306.258V230.027H303.641V238.797H301.18V221.023H303.641ZM299.969 223.68V225.672H289.52V223.68H293.543V221.297H296.043V223.68H299.969ZM294.793 226.668C297.391 226.668 299.324 228.426 299.324 230.906C299.324 233.387 297.391 235.145 294.793 235.145C292.176 235.145 290.242 233.387 290.242 230.906C290.242 228.426 292.176 226.668 294.793 226.668ZM294.793 228.68C293.543 228.699 292.625 229.539 292.625 230.906C292.625 232.293 293.543 233.113 294.793 233.094C296.043 233.113 296.941 232.293 296.941 230.906C296.941 229.539 296.043 228.699 294.793 228.68ZM322.312 221.023V238.797H319.969V221.023H322.312ZM318.523 221.414V238.016H316.199V229.852H313.289C312.273 231.883 310.623 233.641 308.094 235.105L306.688 233.348C310.271 231.219 311.854 228.631 312.195 225.145H307.664V223.133H314.676C314.666 224.822 314.49 226.414 314.07 227.879H316.199V221.414H318.523ZM167.391 254.188C167.391 256.102 168.387 258.016 170.75 258.914L169.422 260.809C167.908 260.232 166.863 259.178 166.219 257.859C165.574 259.402 164.461 260.691 162.801 261.375L161.453 259.461C163.953 258.367 164.969 256.18 164.969 254.188V252.098H167.391V254.188ZM176.98 251.043V261.902H174.617V257.391H173.133V261.355H170.809V251.355H173.133V255.379H174.617V251.043H176.98ZM170.906 262.156C174.656 262.156 177.059 263.406 177.078 265.477C177.059 267.547 174.656 268.797 170.906 268.797C167.137 268.797 164.754 267.547 164.754 265.477C164.754 263.406 167.137 262.156 170.906 262.156ZM170.906 264.012C168.582 264.012 167.234 264.52 167.254 265.477C167.234 266.434 168.582 266.922 170.906 266.922C173.211 266.922 174.559 266.434 174.559 265.477C174.559 264.52 173.211 264.012 170.906 264.012ZM193.094 251.023V255.184H195.496V257.254H193.094V261.355H190.594V251.023H193.094ZM188.094 252.02C188.094 256.766 185.105 259.969 179.773 261.316L178.738 259.422C182.791 258.406 185.018 256.395 185.398 253.992H179.676V252.02H188.094ZM193.094 262.059V268.797H190.594V264.051H181.121V262.059H193.094ZM210.301 251.023V257.977H212.918V260.027H210.301V268.797H207.84V251.023H210.301ZM206.629 253.68V255.672H196.18V253.68H200.203V251.297H202.703V253.68H206.629ZM201.453 256.668C204.051 256.668 205.984 258.426 205.984 260.906C205.984 263.387 204.051 265.145 201.453 265.145C198.836 265.145 196.902 263.387 196.902 260.906C196.902 258.426 198.836 256.668 201.453 256.668ZM201.453 258.68C200.203 258.699 199.285 259.539 199.285 260.906C199.285 262.293 200.203 263.113 201.453 263.094C202.703 263.113 203.602 262.293 203.602 260.906C203.602 259.539 202.703 258.699 201.453 258.68ZM227.996 255.867V257.82H215.574V251.648H218.055V255.867H227.996ZM229.812 259.734V261.688H213.543V259.734H229.812ZM228.113 266.414V268.406H215.418V263.133H217.918V266.414H228.113ZM251.668 260.262V262.215H235.418V260.262H251.668ZM249.676 263.387V268.797H247.156V265.359H237.254V263.387H249.676ZM249.93 257.254V259.148H237.449V251.414H249.773V253.348H239.949V254.344H249.363V256.18H239.949V257.254H249.93ZM267.625 251.043V261.59H265.125V251.043H267.625ZM261.57 261.922C265.34 261.922 267.664 263.191 267.684 265.379C267.664 267.586 265.34 268.836 261.57 268.816C257.781 268.836 255.457 267.586 255.457 265.379C255.457 263.191 257.781 261.922 261.57 261.922ZM261.57 263.855C259.207 263.855 257.957 264.383 257.957 265.379C257.957 266.395 259.207 266.922 261.57 266.902C263.914 266.922 265.223 266.395 265.223 265.379C265.223 264.383 263.914 263.855 261.57 263.855ZM263.25 252.215V254.227H259.695C259.773 256.238 261.092 258.221 263.914 259.07L262.645 261.023C260.662 260.418 259.266 259.178 258.465 257.605C257.654 259.373 256.209 260.789 254.109 261.473L252.82 259.5C255.691 258.572 257.039 256.414 257.137 254.227H253.484V252.215H263.25ZM278.133 251.277C282.215 251.277 284.578 252.352 284.598 254.305C284.578 256.277 282.215 257.352 278.133 257.352C274.031 257.352 271.648 256.277 271.648 254.305C271.648 252.352 274.031 251.277 278.133 251.277ZM278.133 253.094C275.516 253.094 274.246 253.523 274.266 254.305C274.246 255.184 275.516 255.516 278.133 255.516C280.77 255.516 282.02 255.184 282.02 254.305C282.02 253.523 280.77 253.094 278.133 253.094ZM286.238 258.191V260.164H270.027V258.191H286.238ZM284.266 261.199V265.73H274.363V266.805H284.734V268.68H271.922V263.992H281.805V263.016H271.902V261.199H284.266ZM298.582 254.07C298.582 256.375 299.812 258.66 302.645 259.598L301.297 261.551C299.412 260.857 298.113 259.549 297.371 257.898C296.6 259.754 295.213 261.219 293.152 261.961L291.805 260.008C294.773 259.031 296.062 256.59 296.062 254.051V252.117H298.582V254.07ZM306.902 251.043V264.168H304.422V256.824H301.082V254.812H304.422V251.043H306.902ZM307.273 266.492V268.484H295.066V262.781H297.586V266.492H307.273ZM316.863 252.215V254.207H312.215V255.672H316.688V257.566H312.215V259.129C314.188 259.119 315.652 259.041 317.293 258.758L317.547 260.75C315.457 261.121 313.719 261.18 311.043 261.18H309.832V252.215H316.863ZM324.48 251.043V261.883H322.117V257.371H320.574V261.746H318.25V251.355H320.574V255.379H322.117V251.043H324.48ZM324.48 262.625V268.797H322V264.617H312.195V262.625H324.48ZM340.516 251.023V257.977H343.133V260.027H340.516V268.797H338.055V251.023H340.516ZM336.844 253.68V255.672H326.395V253.68H330.418V251.297H332.918V253.68H336.844ZM331.668 256.668C334.266 256.668 336.199 258.426 336.199 260.906C336.199 263.387 334.266 265.145 331.668 265.145C329.051 265.145 327.117 263.387 327.117 260.906C327.117 258.426 329.051 256.668 331.668 256.668ZM331.668 258.68C330.418 258.699 329.5 259.539 329.5 260.906C329.5 262.293 330.418 263.113 331.668 263.094C332.918 263.113 333.816 262.293 333.816 260.906C333.816 259.539 332.918 258.699 331.668 258.68ZM349.48 255.496C349.48 258.367 350.281 261.336 352.703 262.898L351.355 264.832C349.822 263.904 348.846 262.381 348.289 260.555C347.645 262.566 346.58 264.246 344.969 265.223L343.445 263.387C346.082 261.746 347.059 258.621 347.059 255.613V252.547H349.48V255.496ZM359.188 251.023V268.797H356.805V251.023H359.188ZM355.457 251.277V267.977H353.133V259.051H350.828V257.02H353.133V251.277H355.457ZM377.332 264.676V266.727H361.062V264.676H364.695V260.32C363.318 259.5 362.488 258.24 362.488 256.668C362.488 253.797 365.301 251.883 369.168 251.883C373.016 251.883 375.848 253.797 375.867 256.668C375.857 258.201 375.047 259.451 373.719 260.281V264.676H377.332ZM369.168 253.855C366.629 253.855 364.949 254.871 364.949 256.668C364.949 258.406 366.629 259.48 369.168 259.48C371.688 259.48 373.387 258.406 373.406 256.668C373.387 254.871 371.688 253.855 369.168 253.855ZM367.156 264.676H371.199V261.219C370.564 261.346 369.881 261.414 369.168 261.414C368.455 261.414 367.781 261.355 367.156 261.219V264.676Z" fill="black"/>
<rect x="99.5" y="317.5" width="341" height="47" rx="9.5" stroke="#DFE2EC"/>
<circle cx="419" cy="341" r="9.5" stroke="#DFE2EC"/>
<path d="M423 343H415L419 337.5L423 343Z" fill="#222222"/>
<path d="M119.84 338.686C119.84 340.75 121.344 342.842 123.135 343.621L122.533 344.469C121.111 343.819 119.881 342.418 119.32 340.736C118.746 342.521 117.522 344.072 116.135 344.77L115.492 343.922C117.229 343.088 118.746 340.791 118.76 338.686V337.1H115.889V336.211H122.738V337.1H119.84V338.686ZM125.514 334.953V347.107H124.434V334.953H125.514ZM137.668 342.787V347.107H136.588V343.648H129.492V342.787H137.668ZM137.668 334.953V342.117H136.588V340.367H133.457C132.89 341.058 131.994 341.468 130.941 341.461C129.123 341.475 127.783 340.271 127.783 338.549C127.783 336.854 129.123 335.65 130.941 335.65C131.987 335.65 132.883 336.061 133.457 336.744H136.588V334.953H137.668ZM130.941 336.566C129.697 336.566 128.809 337.4 128.809 338.549C128.809 339.738 129.697 340.559 130.941 340.559C132.131 340.559 133.047 339.738 133.047 338.549C133.047 337.4 132.131 336.566 130.941 336.566ZM133.936 339.479H136.588V337.633H133.936C134.031 337.92 134.086 338.221 134.086 338.549C134.086 338.877 134.031 339.191 133.936 339.479ZM149.713 334.953V347.135H148.633V334.953H149.713ZM143.246 335.896C145.051 335.91 146.35 337.551 146.35 340.135C146.35 342.719 145.051 344.359 143.246 344.359C141.428 344.359 140.143 342.719 140.143 340.135C140.143 337.551 141.428 335.91 143.246 335.896ZM143.246 336.854C142.029 336.867 141.182 338.152 141.182 340.135C141.182 342.117 142.029 343.402 143.246 343.402C144.463 343.402 145.311 342.117 145.311 340.135C145.311 338.152 144.463 336.867 143.246 336.854ZM165.695 334.953V347.107H164.67V334.953H165.695ZM163.234 335.254V346.479H162.223V340.217H160.172V339.342H162.223V335.254H163.234ZM158.873 338.426C158.873 340.531 159.816 342.623 161.498 343.594L160.842 344.387C159.646 343.669 158.798 342.356 158.381 340.805C157.937 342.479 157.055 343.908 155.838 344.674L155.154 343.867C156.85 342.855 157.834 340.641 157.834 338.426V337.277H155.496V336.389H161.102V337.277H158.873V338.426ZM170.85 335.404C172.668 335.418 173.994 336.512 173.994 338.098C173.994 339.684 172.668 340.777 170.85 340.777C169.004 340.777 167.691 339.684 167.691 338.098C167.691 336.512 169.004 335.418 170.85 335.404ZM170.85 336.307C169.633 336.307 168.73 337.045 168.744 338.098C168.73 339.164 169.633 339.902 170.85 339.902C172.053 339.902 172.955 339.164 172.955 338.098C172.955 337.045 172.053 336.307 170.85 336.307ZM177.439 334.953V341.201H176.373V334.953H177.439ZM177.439 341.789V344.715H170.617V346.082H177.877V346.943H169.564V343.908H176.373V342.65H169.537V341.789H177.439ZM194.092 340.641V341.529H189.074V342.828C191.371 342.924 192.725 343.676 192.738 344.961C192.725 346.314 191.166 347.08 188.555 347.08C185.916 347.08 184.357 346.314 184.357 344.961C184.357 343.676 185.704 342.924 188.021 342.828V341.529H183.018V340.641H194.092ZM188.555 343.648C186.6 343.662 185.438 344.141 185.451 344.961C185.438 345.768 186.6 346.246 188.555 346.246C190.482 346.246 191.658 345.768 191.658 344.961C191.658 344.141 190.482 343.662 188.555 343.648ZM193.107 335.527V336.402H189.252C189.32 337.77 191.33 338.829 193.477 339.055L193.08 339.902C191.091 339.663 189.225 338.774 188.555 337.414C187.892 338.774 186.032 339.663 184.029 339.902L183.646 339.055C185.752 338.829 187.775 337.77 187.857 336.402H184.029V335.527H193.107ZM206.246 344.646V345.549H195.117V344.646H197.879V341.365C196.84 340.825 196.211 339.95 196.211 338.85C196.211 336.963 198.057 335.732 200.654 335.719C203.252 335.732 205.098 336.963 205.098 338.85C205.098 339.93 204.489 340.798 203.484 341.338V344.646H206.246ZM200.654 336.607C198.658 336.594 197.25 337.496 197.25 338.85C197.25 340.203 198.658 341.119 200.654 341.119C202.637 341.119 204.059 340.203 204.059 338.85C204.059 337.496 202.637 336.594 200.654 336.607ZM198.932 344.646H202.404V341.748C201.878 341.892 201.29 341.967 200.654 341.967C200.032 341.967 199.451 341.898 198.932 341.762V344.646ZM213.287 337.059V337.934H207.189V337.059H209.719V335.322H210.785V337.059H213.287ZM210.238 338.754C211.77 338.754 212.863 339.902 212.877 341.516C212.863 343.143 211.77 344.305 210.238 344.305C208.721 344.305 207.627 343.143 207.627 341.516C207.627 339.902 208.721 338.754 210.238 338.754ZM210.238 339.656C209.281 339.67 208.584 340.449 208.584 341.516C208.584 342.596 209.281 343.375 210.238 343.361C211.209 343.375 211.92 342.596 211.92 341.516C211.92 340.449 211.209 339.67 210.238 339.656ZM217.566 334.953V347.107H216.541V340.969H214.928V346.506H213.916V335.254H214.928V340.08H216.541V334.953H217.566ZM230.445 344.646V345.549H219.316V344.646H222.078V341.365C221.039 340.825 220.41 339.95 220.41 338.85C220.41 336.963 222.256 335.732 224.854 335.719C227.451 335.732 229.297 336.963 229.297 338.85C229.297 339.93 228.688 340.798 227.684 341.338V344.646H230.445ZM224.854 336.607C222.857 336.594 221.449 337.496 221.449 338.85C221.449 340.203 222.857 341.119 224.854 341.119C226.836 341.119 228.258 340.203 228.258 338.85C228.258 337.496 226.836 336.594 224.854 336.607ZM223.131 344.646H226.604V341.748C226.077 341.892 225.489 341.967 224.854 341.967C224.231 341.967 223.65 341.898 223.131 341.762V344.646Z" fill="#222222"/>
<rect x="99.5" y="377.5" width="341" height="193" rx="9.5" stroke="#DFE2EC"/>
<path d="M119.84 406.686C119.847 408.75 121.344 410.849 123.135 411.621L122.533 412.469C121.111 411.826 119.888 410.425 119.32 408.743C118.753 410.527 117.522 412.072 116.135 412.77L115.492 411.922C117.235 411.088 118.753 408.791 118.76 406.686V405.1H115.889V404.211H122.738V405.1H119.84V406.686ZM124.434 415.107V402.953H125.514V415.107H124.434ZM137.668 410.787V415.107H136.588V411.648H129.492V410.787H137.668ZM127.783 406.549C127.776 404.854 129.123 403.644 130.941 403.65C131.994 403.644 132.89 404.061 133.45 404.744H136.588V402.953H137.668V410.117H136.588V408.367H133.457C132.896 409.058 132.001 409.468 130.941 409.461C129.123 409.475 127.776 408.278 127.783 406.549ZM128.809 406.549C128.809 407.731 129.697 408.559 130.941 408.559C132.138 408.559 133.047 407.731 133.047 406.549C133.047 405.407 132.138 404.566 130.941 404.566C129.697 404.566 128.809 405.407 128.809 406.549ZM133.942 407.479H136.588V405.633H133.936C134.031 405.92 134.086 406.221 134.086 406.549C134.086 406.877 134.031 407.191 133.942 407.479ZM149.713 402.953V415.135H148.633V402.953H149.713ZM140.143 408.135C140.149 405.551 141.435 403.903 143.246 403.896C145.051 403.903 146.356 405.551 146.35 408.135C146.356 410.726 145.051 412.366 143.246 412.359C141.435 412.366 140.149 410.726 140.143 408.135ZM141.182 408.135C141.182 410.11 142.029 411.409 143.246 411.402C144.47 411.409 145.311 410.11 145.311 408.135C145.311 406.159 144.47 404.86 143.246 404.854C142.029 404.86 141.182 406.159 141.182 408.135ZM165.695 402.953V415.107H164.67V402.953H165.695ZM155.154 411.867C156.85 410.855 157.841 408.634 157.834 406.426V405.277H155.496V404.389H161.102V405.277H158.873V406.426C158.873 408.524 159.823 410.623 161.498 411.594L160.842 412.387C159.646 411.669 158.798 410.356 158.374 408.812C157.937 410.486 157.055 411.915 155.838 412.674L155.154 411.867ZM160.172 408.217V407.342H162.223V403.254H163.234V414.479H162.223V408.217H160.172ZM170.85 403.404C172.668 403.411 173.987 404.519 173.994 406.098C173.987 407.684 172.668 408.777 170.85 408.777C169.011 408.777 167.685 407.684 167.691 406.098C167.685 404.519 169.011 403.411 170.85 403.404ZM168.744 406.098C168.73 407.164 169.626 407.902 170.85 407.902C172.053 407.902 172.955 407.164 172.955 406.098C172.955 405.045 172.053 404.3 170.85 404.307C169.626 404.3 168.73 405.045 168.744 406.098ZM169.537 410.65V409.789H177.439V412.715H170.617V414.082H177.877V414.943H169.564V411.908H176.373V410.65H169.537ZM176.373 409.201V402.953H177.439V409.201H176.373ZM194.092 408.641V409.529H189.074V410.828C191.364 410.931 192.725 411.676 192.738 412.961C192.725 414.321 191.159 415.08 188.555 415.08C185.916 415.08 184.351 414.321 184.357 412.961C184.351 411.676 185.704 410.931 188.021 410.828V409.529H183.018V408.641H194.092ZM183.646 407.055C185.752 406.836 187.782 405.763 187.857 404.402H184.029V403.527H193.107V404.402H189.252C189.327 405.763 191.337 406.836 193.477 407.055L193.08 407.902C191.091 407.663 189.225 406.768 188.555 405.421C187.885 406.768 186.032 407.663 184.029 407.902L183.646 407.055ZM185.451 412.961C185.438 413.768 186.606 414.253 188.555 414.246C190.482 414.253 191.651 413.768 191.658 412.961C191.651 412.134 190.482 411.662 188.555 411.648C186.606 411.662 185.438 412.134 185.451 412.961ZM206.246 412.646V413.549H195.117V412.646H197.879V409.372C196.84 408.832 196.211 407.957 196.211 406.85C196.211 404.97 198.057 403.732 200.654 403.719C203.252 403.732 205.098 404.97 205.098 406.85C205.098 407.937 204.489 408.798 203.484 409.338V412.646H206.246ZM197.25 406.85C197.243 408.21 198.658 409.119 200.654 409.119C202.63 409.119 204.059 408.21 204.059 406.85C204.059 405.489 202.63 404.594 200.654 404.607C198.658 404.594 197.243 405.489 197.25 406.85ZM198.932 412.646H202.404V409.755C201.878 409.892 201.29 409.967 200.654 409.967C200.032 409.967 199.451 409.898 198.932 409.762V412.646ZM213.287 405.059V405.934H207.189V405.059H209.719V403.322H210.785V405.059H213.287ZM207.627 409.516C207.627 407.902 208.728 406.761 210.238 406.754C211.77 406.761 212.863 407.902 212.877 409.516C212.863 411.149 211.77 412.298 210.238 412.305C208.728 412.298 207.627 411.149 207.627 409.516ZM208.584 409.516C208.584 410.596 209.274 411.368 210.238 411.361C211.209 411.368 211.92 410.596 211.92 409.516C211.92 408.449 211.209 407.67 210.238 407.656C209.274 407.67 208.584 408.449 208.584 409.516ZM213.916 414.506V403.254H214.928V408.08H216.541V402.953H217.566V415.107H216.541V408.969H214.928V414.506H213.916ZM230.445 412.646V413.549H219.316V412.646H222.078V409.372C221.039 408.832 220.41 407.957 220.41 406.85C220.41 404.97 222.256 403.732 224.854 403.719C227.451 403.732 229.297 404.97 229.297 406.85C229.297 407.937 228.688 408.798 227.684 409.338V412.646H230.445ZM221.449 406.85C221.442 408.21 222.857 409.119 224.854 409.119C226.829 409.119 228.258 408.21 228.258 406.85C228.258 405.489 226.829 404.594 224.854 404.607C222.857 404.594 221.442 405.489 221.449 406.85ZM223.131 412.646H226.604V409.755C226.077 409.892 225.489 409.967 224.854 409.967C224.231 409.967 223.65 409.898 223.131 409.762V412.646Z" fill="#858C9F"/>
<path d="M124.994 445.912V448.865H126.84V449.754H124.994V452.639H123.928V445.912H124.994ZM115.52 447.922V447.061H118.609V445.83H119.676V447.061H122.766V447.922H115.52ZM116.217 450.465C116.21 449.234 117.372 448.476 119.143 448.469C120.906 448.476 122.055 449.234 122.068 450.465C122.055 451.702 120.906 452.454 119.143 452.461C117.372 452.454 116.21 451.702 116.217 450.465ZM117.242 454.074V453.268H124.994V455.961H118.322V457.15H125.445V457.971H117.27V455.168H123.928V454.074H117.242ZM117.242 450.465C117.235 451.196 117.987 451.654 119.143 451.654C120.291 451.654 121.043 451.196 121.057 450.465C121.043 449.74 120.291 449.269 119.143 449.262C117.987 449.269 117.235 449.74 117.242 450.465ZM137.627 445.967V454.854H136.561V445.967H137.627ZM127.879 449.795C127.872 448.045 129.246 446.821 131.064 446.814C132.883 446.821 134.243 448.045 134.25 449.795C134.243 451.565 132.883 452.796 131.064 452.789C129.246 452.796 127.872 451.565 127.879 449.795ZM128.932 449.795C128.918 451.005 129.834 451.846 131.064 451.846C132.274 451.846 133.197 451.005 133.197 449.795C133.197 448.605 132.274 447.758 131.064 447.758C129.834 447.758 128.918 448.605 128.932 449.795ZM129.779 457.848V453.951H130.846V456.945H138.01V457.848H129.779ZM153.623 445.953V458.107H152.584V445.953H153.623ZM143.178 448.934V448.059H145.666V446.281H146.746V448.059H149.234V448.934H143.178ZM143.629 452.57C143.622 450.909 144.702 449.768 146.186 449.768C147.683 449.768 148.756 450.909 148.756 452.57C148.756 452.666 148.749 452.762 148.742 452.857H150.328V450.971H148.619V450.082H150.328V446.227H151.34V457.506H150.328V453.719H148.558C148.188 454.73 147.307 455.373 146.186 455.373C144.702 455.373 143.622 454.225 143.629 452.57ZM144.572 452.57C144.572 453.664 145.249 454.45 146.186 454.443C147.129 454.45 147.806 453.664 147.812 452.57C147.806 451.463 147.129 450.697 146.186 450.684C145.249 450.697 144.572 451.463 144.572 452.57ZM160.568 446.842V447.744H156.877V449.262H160.432V450.109H156.877V451.791C158.647 451.784 159.755 451.716 161.061 451.463L161.17 452.352C159.741 452.632 158.593 452.687 156.617 452.693H155.852V446.842H160.568ZM157.438 454.84V453.965H165.627V458.107H164.574V454.84H157.438ZM161.895 453.254V446.199H162.893V449.139H164.602V445.967H165.627V453.336H164.602V450.014H162.893V453.254H161.895ZM177.426 445.953V458.135H176.346V445.953H177.426ZM167.855 451.135C167.862 448.551 169.147 446.903 170.959 446.896C172.764 446.903 174.069 448.551 174.062 451.135C174.069 453.726 172.764 455.366 170.959 455.359C169.147 455.366 167.862 453.726 167.855 451.135ZM168.895 451.135C168.895 453.11 169.742 454.409 170.959 454.402C172.183 454.409 173.023 453.11 173.023 451.135C173.023 449.159 172.183 447.86 170.959 447.854C169.742 447.86 168.895 449.159 168.895 451.135ZM194.092 451.641V452.529H189.074V453.828C191.364 453.931 192.725 454.676 192.738 455.961C192.725 457.321 191.159 458.08 188.555 458.08C185.916 458.08 184.351 457.321 184.357 455.961C184.351 454.676 185.704 453.931 188.021 453.828V452.529H183.018V451.641H194.092ZM183.646 450.055C185.752 449.836 187.782 448.763 187.857 447.402H184.029V446.527H193.107V447.402H189.252C189.327 448.763 191.337 449.836 193.477 450.055L193.08 450.902C191.091 450.663 189.225 449.768 188.555 448.421C187.885 449.768 186.032 450.663 184.029 450.902L183.646 450.055ZM185.451 455.961C185.438 456.768 186.606 457.253 188.555 457.246C190.482 457.253 191.651 456.768 191.658 455.961C191.651 455.134 190.482 454.662 188.555 454.648C186.606 454.662 185.438 455.134 185.451 455.961ZM206.246 455.646V456.549H195.117V455.646H197.879V452.372C196.84 451.832 196.211 450.957 196.211 449.85C196.211 447.97 198.057 446.732 200.654 446.719C203.252 446.732 205.098 447.97 205.098 449.85C205.098 450.937 204.489 451.798 203.484 452.338V455.646H206.246ZM197.25 449.85C197.243 451.21 198.658 452.119 200.654 452.119C202.63 452.119 204.059 451.21 204.059 449.85C204.059 448.489 202.63 447.594 200.654 447.607C198.658 447.594 197.243 448.489 197.25 449.85ZM198.932 455.646H202.404V452.755C201.878 452.892 201.29 452.967 200.654 452.967C200.032 452.967 199.451 452.898 198.932 452.762V455.646ZM213.287 448.059V448.934H207.189V448.059H209.719V446.322H210.785V448.059H213.287ZM207.627 452.516C207.627 450.902 208.728 449.761 210.238 449.754C211.77 449.761 212.863 450.902 212.877 452.516C212.863 454.149 211.77 455.298 210.238 455.305C208.728 455.298 207.627 454.149 207.627 452.516ZM208.584 452.516C208.584 453.596 209.274 454.368 210.238 454.361C211.209 454.368 211.92 453.596 211.92 452.516C211.92 451.449 211.209 450.67 210.238 450.656C209.274 450.67 208.584 451.449 208.584 452.516ZM213.916 457.506V446.254H214.928V451.08H216.541V445.953H217.566V458.107H216.541V451.969H214.928V457.506H213.916ZM230.445 455.646V456.549H219.316V455.646H222.078V452.372C221.039 451.832 220.41 450.957 220.41 449.85C220.41 447.97 222.256 446.732 224.854 446.719C227.451 446.732 229.297 447.97 229.297 449.85C229.297 450.937 228.688 451.798 227.684 452.338V455.646H230.445ZM221.449 449.85C221.442 451.21 222.857 452.119 224.854 452.119C226.829 452.119 228.258 451.21 228.258 449.85C228.258 448.489 226.829 447.594 224.854 447.607C222.857 447.594 221.442 448.489 221.449 449.85ZM223.131 455.646H226.604V452.755C226.077 452.892 225.489 452.967 224.854 452.967C224.231 452.967 223.65 452.898 223.131 452.762V455.646Z" fill="#858C9F"/>
<path d="M119.771 492.221C119.765 494.422 121.18 496.637 122.943 497.443L122.301 498.318C120.92 497.607 119.778 496.158 119.238 494.429C118.698 496.247 117.557 497.806 116.176 498.537L115.479 497.676C117.263 496.801 118.671 494.463 118.678 492.221V490.006H119.771V492.221ZM121.617 493.984V493.109H124.502V488.953H125.568V501.135H124.502V493.984H121.617ZM137.613 488.953V501.135H136.533V488.953H137.613ZM128.303 498.195V489.992H129.369V493.205H132.992V489.992H134.045V498.195H128.303ZM129.369 497.293H132.992V494.066H129.369V497.293ZM145.748 490.744C145.755 492.829 148.134 494.682 150.246 495.078L149.754 495.98C147.915 495.557 145.987 494.251 145.201 492.467C144.408 494.251 142.487 495.55 140.648 495.98L140.156 495.078C142.262 494.675 144.62 492.836 144.627 490.744V489.814H145.748V490.744ZM139.691 499.453V498.564H150.82V499.453H139.691ZM161.197 488.953V493.902H163.166V494.805H161.197V501.107H160.131V488.953H161.197ZM151.873 497.949C155.011 496.391 156.72 494.046 156.966 491.168H152.434V490.266H158.053C158.046 493.704 156.433 496.842 152.475 498.797L151.873 497.949ZM178.479 494.641V495.529H173.461V496.828C175.751 496.931 177.111 497.676 177.125 498.961C177.111 500.321 175.546 501.08 172.941 501.08C170.303 501.08 168.737 500.321 168.744 498.961C168.737 497.676 170.091 496.931 172.408 496.828V495.529H167.404V494.641H178.479ZM168.033 493.055C170.139 492.836 172.169 491.763 172.244 490.402H168.416V489.527H177.494V490.402H173.639C173.714 491.763 175.724 492.836 177.863 493.055L177.467 493.902C175.478 493.663 173.611 492.768 172.941 491.421C172.271 492.768 170.419 493.663 168.416 493.902L168.033 493.055ZM169.838 498.961C169.824 499.768 170.993 500.253 172.941 500.246C174.869 500.253 176.038 499.768 176.045 498.961C176.038 498.134 174.869 497.662 172.941 497.648C170.993 497.662 169.824 498.134 169.838 498.961ZM190.633 498.646V499.549H179.504V498.646H182.266V495.372C181.227 494.832 180.598 493.957 180.598 492.85C180.598 490.97 182.443 489.732 185.041 489.719C187.639 489.732 189.484 490.97 189.484 492.85C189.484 493.937 188.876 494.798 187.871 495.338V498.646H190.633ZM181.637 492.85C181.63 494.21 183.045 495.119 185.041 495.119C187.017 495.119 188.445 494.21 188.445 492.85C188.445 491.489 187.017 490.594 185.041 490.607C183.045 490.594 181.63 491.489 181.637 492.85ZM183.318 498.646H186.791V495.755C186.265 495.892 185.677 495.967 185.041 495.967C184.419 495.967 183.838 495.898 183.318 495.762V498.646ZM197.674 491.059V491.934H191.576V491.059H194.105V489.322H195.172V491.059H197.674ZM192.014 495.516C192.014 493.902 193.114 492.761 194.625 492.754C196.156 492.761 197.25 493.902 197.264 495.516C197.25 497.149 196.156 498.298 194.625 498.305C193.114 498.298 192.014 497.149 192.014 495.516ZM192.971 495.516C192.971 496.596 193.661 497.368 194.625 497.361C195.596 497.368 196.307 496.596 196.307 495.516C196.307 494.449 195.596 493.67 194.625 493.656C193.661 493.67 192.971 494.449 192.971 495.516ZM198.303 500.506V489.254H199.314V494.08H200.928V488.953H201.953V501.107H200.928V494.969H199.314V500.506H198.303ZM214.832 498.646V499.549H203.703V498.646H206.465V495.372C205.426 494.832 204.797 493.957 204.797 492.85C204.797 490.97 206.643 489.732 209.24 489.719C211.838 489.732 213.684 490.97 213.684 492.85C213.684 493.937 213.075 494.798 212.07 495.338V498.646H214.832ZM205.836 492.85C205.829 494.21 207.244 495.119 209.24 495.119C211.216 495.119 212.645 494.21 212.645 492.85C212.645 491.489 211.216 490.594 209.24 490.607C207.244 490.594 205.829 491.489 205.836 492.85ZM207.518 498.646H210.99V495.755C210.464 495.892 209.876 495.967 209.24 495.967C208.618 495.967 208.037 495.898 207.518 495.762V498.646Z" fill="#858C9F"/>
<path d="M124.898 531.953V536.902H126.867V537.805H124.898V544.107H123.832V531.953H124.898ZM115.574 540.949C118.712 539.391 120.421 537.046 120.667 534.168H116.135V533.266H121.754C121.747 536.704 120.134 539.842 116.176 541.797L115.574 540.949ZM134.004 532.787C134.004 533.259 133.949 533.71 133.854 534.141H136.588V531.967H137.668V539.213H136.588V537.6H133.361V536.711H136.588V535.029H133.56C132.739 536.943 130.832 538.331 128.207 539.049L127.783 538.188C130.75 537.367 132.63 535.74 132.849 533.662H128.398V532.787H134.004ZM129.492 540.607V539.746H137.668V544.094H136.588V540.607H129.492ZM149.713 531.953V544.135H148.633V531.953H149.713ZM140.143 537.135C140.149 534.551 141.435 532.903 143.246 532.896C145.051 532.903 146.356 534.551 146.35 537.135C146.356 539.726 145.051 541.366 143.246 541.359C141.435 541.366 140.149 539.726 140.143 537.135ZM141.182 537.135C141.182 539.11 142.029 540.409 143.246 540.402C144.47 540.409 145.311 539.11 145.311 537.135C145.311 535.159 144.47 533.86 143.246 533.854C142.029 533.86 141.182 535.159 141.182 537.135ZM166.379 537.641V538.529H161.361V539.828C163.651 539.931 165.012 540.676 165.025 541.961C165.012 543.321 163.446 544.08 160.842 544.08C158.203 544.08 156.638 543.321 156.645 541.961C156.638 540.676 157.991 539.931 160.309 539.828V538.529H155.305V537.641H166.379ZM155.934 536.055C158.039 535.836 160.069 534.763 160.145 533.402H156.316V532.527H165.395V533.402H161.539C161.614 534.763 163.624 535.836 165.764 536.055L165.367 536.902C163.378 536.663 161.512 535.768 160.842 534.421C160.172 535.768 158.319 536.663 156.316 536.902L155.934 536.055ZM157.738 541.961C157.725 542.768 158.894 543.253 160.842 543.246C162.77 543.253 163.938 542.768 163.945 541.961C163.938 541.134 162.77 540.662 160.842 540.648C158.894 540.662 157.725 541.134 157.738 541.961ZM178.533 541.646V542.549H167.404V541.646H170.166V538.372C169.127 537.832 168.498 536.957 168.498 535.85C168.498 533.97 170.344 532.732 172.941 532.719C175.539 532.732 177.385 533.97 177.385 535.85C177.385 536.937 176.776 537.798 175.771 538.338V541.646H178.533ZM169.537 535.85C169.53 537.21 170.945 538.119 172.941 538.119C174.917 538.119 176.346 537.21 176.346 535.85C176.346 534.489 174.917 533.594 172.941 533.607C170.945 533.594 169.53 534.489 169.537 535.85ZM171.219 541.646H174.691V538.755C174.165 538.892 173.577 538.967 172.941 538.967C172.319 538.967 171.738 538.898 171.219 538.762V541.646ZM185.574 534.059V534.934H179.477V534.059H182.006V532.322H183.072V534.059H185.574ZM179.914 538.516C179.914 536.902 181.015 535.761 182.525 535.754C184.057 535.761 185.15 536.902 185.164 538.516C185.15 540.149 184.057 541.298 182.525 541.305C181.015 541.298 179.914 540.149 179.914 538.516ZM180.871 538.516C180.871 539.596 181.562 540.368 182.525 540.361C183.496 540.368 184.207 539.596 184.207 538.516C184.207 537.449 183.496 536.67 182.525 536.656C181.562 536.67 180.871 537.449 180.871 538.516ZM186.203 543.506V532.254H187.215V537.08H188.828V531.953H189.854V544.107H188.828V537.969H187.215V543.506H186.203ZM202.732 541.646V542.549H191.604V541.646H194.365V538.372C193.326 537.832 192.697 536.957 192.697 535.85C192.697 533.97 194.543 532.732 197.141 532.719C199.738 532.732 201.584 533.97 201.584 535.85C201.584 536.937 200.976 537.798 199.971 538.338V541.646H202.732ZM193.736 535.85C193.729 537.21 195.145 538.119 197.141 538.119C199.116 538.119 200.545 537.21 200.545 535.85C200.545 534.489 199.116 533.594 197.141 533.607C195.145 533.594 193.729 534.489 193.736 535.85ZM195.418 541.646H198.891V538.755C198.364 538.892 197.776 538.967 197.141 538.967C196.519 538.967 195.938 538.898 195.418 538.762V541.646Z" fill="#858C9F"/>
<path d="M210 170H330" stroke="#EBEDF1" stroke-width="1.5"/>
<circle cx="195" cy="170" r="15" fill="#EBEDF1"/>
<path d="M196.324 165.516V174H194.555V167.191H194.508L192.562 168.41V166.852L194.66 165.516H196.324Z" fill="#4D5766"/>
<circle cx="345" cy="170" r="15" fill="#4D5766"/>
<path d="M341.527 172.5V171.105L345.113 165.516H347.328V171.082H348.406V172.5H347.328V174H345.652V172.5H341.527ZM343.309 171.082H345.676V167.449H345.594L343.309 171.012V171.082Z" fill="white"/>
<circle cx="295" cy="170" r="15" fill="#EBEDF1"/>
<path d="M294.809 174.117C292.945 174.117 291.609 173.086 291.574 171.609H293.355C293.391 172.242 294 172.664 294.82 172.664C295.664 172.664 296.273 172.184 296.262 171.504C296.273 170.812 295.652 170.32 294.656 170.32H293.871V169.02H294.656C295.488 169.02 296.074 168.562 296.074 167.895C296.074 167.25 295.582 166.805 294.832 166.805C294.082 166.805 293.461 167.227 293.438 167.871H291.75C291.773 166.406 293.098 165.398 294.832 165.398C296.602 165.398 297.785 166.441 297.773 167.789C297.785 168.738 297.117 169.418 296.168 169.582V169.652C297.41 169.805 298.102 170.566 298.09 171.621C298.102 173.074 296.719 174.117 294.809 174.117Z" fill="#4D5766"/>
<circle cx="245" cy="170" r="15" fill="#EBEDF1"/>
<path d="M241.668 174L241.656 172.723L244.703 169.922C245.494 169.166 245.922 168.697 245.922 168.023C245.922 167.268 245.354 166.799 244.574 166.805C243.777 166.799 243.256 167.303 243.262 168.117H241.586C241.58 166.459 242.811 165.398 244.598 165.398C246.414 165.398 247.621 166.436 247.621 167.906C247.621 168.873 247.152 169.664 245.406 171.246L244.117 172.5V172.547H247.738V174H241.668Z" fill="#4D5766"/>
</g>
<path d="M73 115C73 91.804 91.804 73 115 73H425C448.196 73 467 91.804 467 115H463C463 94.0132 445.987 77 425 77H115C94.0132 77 77 94.0132 77 115H73ZM465 540H75H465ZM73 540V115C73 91.804 91.804 73 115 73V77C94.0132 77 77 94.0132 77 115V540H73ZM425 73C448.196 73 467 91.804 467 115V540H463V115C463 94.0132 445.987 77 425 77V73Z" fill="black"/>
<defs>
<clipPath id="clip0_1472_37884">
<path d="M75 139.8C75 116.643 75 105.064 79.6494 96.2828C83.4014 89.1965 89.1965 83.4014 96.2828 79.6494C105.064 75 116.643 75 139.8 75H400.2C423.357 75 434.936 75 443.717 79.6494C450.803 83.4014 456.599 89.1965 460.351 96.2828C465 105.064 465 116.643 465 139.8V540H75V139.8Z" fill="white"/>
</clipPath>
</defs>
</svg>
