<svg width="628" height="304" viewBox="0 0 628 304" fill="none" xmlns="http://www.w3.org/2000/svg">
<path fill-rule="evenodd" clip-rule="evenodd" d="M355.044 70.1969C357.538 59.277 358.784 53.817 361.862 50.1314C364.569 46.8895 368.233 44.5878 372.329 43.5563C376.985 42.3836 382.445 43.6304 393.365 46.124L440.16 56.81C451.08 59.3037 456.54 60.5505 460.226 63.6281C463.468 66.3352 465.769 69.9992 466.801 74.0949C467.974 78.751 466.727 84.211 464.233 95.131L452.657 145.826C452.657 145.825 452.656 145.825 452.656 145.825C449.515 145.108 446.388 147.073 445.671 150.214C444.953 153.354 446.918 156.482 450.059 157.199C450.059 157.199 450.059 157.199 450.06 157.199L447.314 169.224C444.82 180.144 443.573 185.604 440.496 189.289C437.789 192.531 434.125 194.833 430.029 195.864C425.373 197.037 419.913 195.79 408.993 193.297L362.197 182.611C351.277 180.117 345.817 178.87 342.132 175.793C338.89 173.085 336.588 169.421 335.557 165.326C334.384 160.67 335.631 155.21 338.124 144.29L340.87 132.266L340.871 132.266C344.012 132.983 347.139 131.019 347.857 127.878C348.574 124.737 346.609 121.609 343.468 120.892L343.467 120.892L355.044 70.1969Z" fill="#292A2C"/>
<path d="M406.559 93.8722C406.456 94.3243 406.285 94.2851 405.941 94.2067L405.849 94.1858L405.776 94.1235C405.675 94.0472 405.588 93.9544 405.516 93.8486L405.465 93.7634L405.456 93.6629L405.455 93.6296C405.446 93.4306 405.439 93.24 405.435 93.059C405.431 92.8526 405.429 92.6733 405.43 92.5211C405.435 91.6187 405.507 90.9013 405.625 90.3849C405.644 90.2423 405.667 90.0329 405.691 89.812C405.73 89.4672 405.771 89.095 405.824 88.7586L406.772 84.6086L407.491 84.7729C408.013 84.892 408.229 85.2953 408.14 85.9828L408.133 86.0163L407.696 87.9281C407.519 88.5156 407.467 88.742 407.467 88.7427L406.98 90.8739C406.818 91.5857 406.678 92.5664 406.561 93.8161L406.558 93.8521L406.554 93.871L406.559 93.8722Z" fill="#ED1A3B"/>
<path d="M386.574 77.6917C386.542 77.8315 386.281 78.1599 385.758 78.8183L385.745 78.8323L385.744 78.8364C385.21 79.4499 384.908 79.791 384.697 80.0246C384.642 80.0854 384.663 80.0631 384.697 80.0246L384.525 80.2182C384.283 80.4905 383.943 80.8885 383.505 81.4123C383.36 81.6574 383.198 81.8906 383.019 82.11C382.821 82.359 382.58 82.6378 382.314 82.9431L382.309 82.9485L382.134 83.1403C382.054 83.2292 381.996 83.2917 381.956 83.3347C381.664 83.649 381.348 83.9768 381.027 84.2939C380.873 84.5292 380.649 84.8221 380.381 85.1755C380.242 85.3585 380.08 85.5678 380.039 85.624L380.018 85.6509C379.675 86.0385 379.351 86.1645 379.044 86.0944C379.001 86.0859 378.961 86.0692 378.924 86.0451C378.868 86.0084 378.818 85.9617 378.777 85.907C378.751 85.8739 378.718 85.8266 378.678 85.7684C378.497 85.4983 378.137 84.9021 377.633 83.9754C376.906 82.6973 376.372 81.6665 376.031 80.8828C375.66 80.026 375.513 79.4125 375.598 79.0428C375.615 78.9259 375.669 78.8177 375.753 78.7364C375.807 78.6926 375.863 78.6521 375.922 78.6153C376.042 78.5543 376.173 78.5175 376.306 78.5068L376.986 78.6621L377.048 78.9006C377.123 79.1741 377.246 79.5551 377.396 80.0218C377.486 80.3026 377.587 80.6139 377.66 80.8437C377.701 80.9398 377.748 81.0417 377.795 81.1457C377.841 81.2498 377.903 81.369 377.977 81.5115C378.279 82.0953 378.724 82.8432 379.322 83.7567L385.878 77.0314L386.239 76.6609L386.503 77.1012C386.653 77.3509 386.614 77.5214 386.575 77.6919L386.574 77.6917Z" fill="#ED1A3B"/>
<path d="M407.263 82.2811C407.324 82.0144 407.479 81.779 407.696 81.6204C407.806 81.5386 407.932 81.4814 408.064 81.4526C408.196 81.4238 408.332 81.424 408.464 81.4532L408.468 81.4543C408.732 81.52 408.959 81.6897 409.101 81.928C409.244 82.1662 409.291 82.4543 409.233 82.7318L409.232 82.7374C409.2 82.8747 409.141 83.0041 409.059 83.1171C408.976 83.2301 408.872 83.3243 408.753 83.3934C408.524 83.5289 408.256 83.5725 408.001 83.5157L407.996 83.5145C407.868 83.487 407.748 83.4331 407.641 83.356C407.535 83.279 407.445 83.1803 407.377 83.0658C407.308 82.9513 407.263 82.8234 407.243 82.6894C407.223 82.5555 407.23 82.4183 407.262 82.286L407.263 82.2818L407.263 82.2811Z" fill="#ED1A3B"/>
<path d="M392.27 89.5703L390.296 86.3257L386.327 85.4195C386.261 85.4042 386.028 85.7033 385.651 86.3208C385.067 87.281 384.581 87.7166 384.192 87.6278C384.046 87.5972 383.913 87.5219 383.811 87.4114C383.738 87.3317 383.675 87.2432 383.622 87.1478L383.588 87.0915L383.573 87.024C383.528 86.8738 383.52 86.7135 383.55 86.5578L383.573 86.4571L383.634 86.38C383.634 86.38 383.941 85.9598 384.498 85.2018L384.522 85.1704L384.543 85.1501C384.606 85.0873 384.762 84.8325 385.043 84.3727C385.163 84.1794 384.997 84.4473 385.211 84.0978L385.3 83.9534L385.459 83.9117C385.54 83.8689 385.618 83.8207 385.693 83.7675C385.932 83.5034 386.155 83.2243 386.361 82.9318C386.643 82.5441 386.997 82.0295 387.424 81.3999C387.498 81.2823 387.626 81.0674 387.78 80.807C387.923 80.5653 388.091 80.2817 388.31 79.9244C388.356 79.8443 388.419 79.7756 388.493 79.7235C388.568 79.6714 388.652 79.6373 388.741 79.6236C388.878 79.6021 389.018 79.6091 389.152 79.6439C389.345 79.6999 389.518 79.811 389.651 79.9646L389.707 80.0288L389.735 80.1183C389.907 80.6655 390.124 81.3054 390.381 82.0303C390.634 82.7371 390.932 83.5434 391.271 84.4391C391.577 85.2376 391.858 85.9457 392.138 86.6523C392.444 87.4251 392.751 88.2002 393.01 88.8731L393.056 88.994L393.026 89.124C393.026 89.124 393.025 89.1618 393.023 89.1968C393.023 89.2753 393.015 89.3538 392.999 89.431L392.776 90.4093L392.263 89.5709L392.27 89.5703ZM389.816 84.8296L388.731 82.1129L387.409 84.0497L389.816 84.8289L389.816 84.8296Z" fill="#ED1A3B"/>
<path d="M417.246 95.2968L415.272 92.0522L411.306 91.1464C411.239 91.1311 411.006 91.4302 410.629 92.0477C410.046 93.0045 409.559 93.4384 409.17 93.3495C409.024 93.319 408.891 93.2436 408.789 93.1331C408.716 93.0534 408.653 92.965 408.6 92.8695L408.567 92.8133L408.551 92.7458C408.506 92.5955 408.498 92.4352 408.528 92.2795L408.55 92.1838L408.611 92.1066C408.611 92.1066 408.918 91.6864 409.475 90.9284L409.499 90.897L409.52 90.8768C409.583 90.8139 409.739 90.5592 410.02 90.0993C410.14 89.9061 409.974 90.174 410.188 89.8244L410.277 89.68L410.436 89.6383C410.517 89.5955 410.595 89.5473 410.67 89.4941C410.909 89.23 411.132 88.9509 411.338 88.6585C411.62 88.2708 411.974 87.7561 412.401 87.1265C412.475 87.0089 412.603 86.794 412.757 86.5335C412.899 86.2918 413.067 86.0082 413.286 85.6509C413.332 85.5699 413.395 85.5005 413.47 85.4478C413.545 85.3951 413.63 85.3606 413.719 85.3467C413.856 85.3253 413.996 85.3322 414.13 85.3671C414.322 85.4233 414.495 85.5346 414.629 85.6884L414.685 85.7526L414.713 85.8421C414.885 86.3893 415.101 87.0292 415.359 87.7542C415.611 88.4609 415.91 89.2672 416.249 90.163C416.555 90.9614 416.836 91.6696 417.116 92.3762C417.422 93.1489 417.729 93.9241 417.987 94.597L418.034 94.7186L418.004 94.8485C418.004 94.8485 418.002 94.8864 418.001 94.9213C418 94.9999 417.992 95.0783 417.977 95.1555L417.753 96.1338L417.24 95.2954L417.246 95.2968ZM414.793 90.5561L413.707 87.8394L412.386 89.7771L414.793 90.5562L414.793 90.5561Z" fill="#ED1A3B"/>
<path d="M429.911 87.4022L428.069 95.4653C428.012 95.7316 427.872 95.9725 427.671 96.1506C427.645 96.176 427.618 96.2001 427.591 96.2227C427.561 96.2458 427.531 96.2671 427.499 96.2864C427.329 96.3961 427.127 96.435 426.933 96.3953C426.762 96.3314 426.605 96.2345 426.47 96.1095L426.42 96.0663L426.383 96.0059L426.354 95.961L426.325 95.9183C426.293 95.8734 426.258 95.8316 426.219 95.7932C425.89 95.5601 425.585 95.292 425.31 94.9932C424.986 94.656 424.632 94.2435 424.239 93.7671C423.9 93.3567 423.598 92.981 423.296 92.6063C422.815 92.0097 422.334 91.4118 421.833 90.8341C421.59 90.5582 421.359 90.2974 421.141 90.0623L420.688 92.5916L420.683 92.6147C420.664 92.7071 420.653 92.801 420.649 92.8952C420.648 92.9022 420.648 92.9273 420.647 92.9608C420.644 93.0975 420.649 93.2341 420.661 93.3699C420.693 93.7449 420.715 93.9983 420.748 94.0927L420.804 94.2457L420.419 95.2019C420.251 95.2371 420.106 95.1988 419.946 95.1623C419.702 95.1065 419.529 94.9347 419.347 94.6298L419.334 94.6085L419.325 94.5897C419.269 94.4709 419.22 94.348 419.18 94.2219C419.14 94.0991 419.12 93.9704 419.118 93.8403L419.118 93.8203L419.12 93.8126C419.121 93.7762 419.126 93.6714 419.134 93.5116C419.141 93.3837 419.147 93.2756 419.153 93.188C419.193 92.598 419.262 91.919 419.369 91.1825L419.372 91.1699C419.442 90.7763 419.509 90.3881 419.577 89.9667C419.611 89.7591 419.75 88.7785 419.75 88.7706C419.697 88.7342 419.707 88.1939 419.722 88.1317C419.766 87.9644 419.869 87.8198 420.011 87.7273C420.036 87.7101 420.065 87.6911 420.1 87.6741C420.282 87.5764 420.477 87.5074 420.678 87.4693L420.9 87.4209L421.055 87.5908L426.599 94.0767L429.137 87.1895C429.202 86.9301 429.241 86.7339 429.3 86.474C429.313 86.416 429.337 86.3611 429.371 86.3131C429.405 86.2652 429.449 86.2251 429.499 86.1957C429.923 86.1456 430.073 86.3047 430.068 86.6749L429.91 87.4013L429.911 87.4022Z" fill="#ED1A3B"/>
<path d="M405.463 85.5011C405.381 85.8582 405.075 86.2301 404.518 86.5543C404.425 86.609 404.32 86.6644 404.204 86.7208C404.093 86.7741 403.981 86.8242 403.869 86.87C403.64 86.9992 403.403 87.1106 403.159 87.2033C402.919 87.2942 402.675 87.3718 402.428 87.4357C402.311 87.4745 402.181 87.5262 402.039 87.5807C401.808 87.6697 401.549 87.7716 401.236 87.867C400.653 88.0514 400.059 88.1947 399.46 88.2959C399.302 88.3246 399.136 88.3535 398.961 88.382C398.758 88.4144 398.575 88.441 398.418 88.466L398.413 88.4649L398.4 88.467C398.291 88.4789 398.19 88.4964 398.088 88.5149C397.906 88.5497 397.723 88.5747 397.539 88.5896L397.541 88.5812C397.493 88.5702 397.472 88.5382 397.464 88.5547L397.126 91.8846L397.122 91.9234L397.119 91.9374C397.054 92.2211 396.924 92.4273 396.728 92.556L396.317 92.8262L396.141 92.3653C395.97 91.8892 395.88 91.385 395.873 90.8741C395.869 90.7682 395.869 90.6527 395.872 90.5255C395.874 90.4224 395.88 90.3068 395.889 90.186C395.888 89.7801 395.891 89.3183 395.893 88.9723C395.893 88.8812 395.894 88.7985 395.895 88.7258C395.555 88.7364 395.265 88.746 395.025 88.7478C394.672 88.7531 394.419 88.7446 394.263 88.7091C394.053 88.66 393.856 88.5649 393.685 88.4301C393.66 88.4104 393.633 88.3864 393.602 88.3582C393.572 88.33 393.55 88.3081 393.532 88.2877L392.968 87.6701L393.791 87.5793C393.863 87.5715 394.034 87.5562 394.249 87.5369C394.672 87.4989 395.293 87.4436 396.106 87.3433C396.11 87.232 396.118 87.1215 396.129 87.0118C396.152 86.7891 396.188 86.5678 396.238 86.3493L396.645 84.5668C396.646 84.5605 396.646 84.5237 396.652 84.4484C396.659 84.3441 396.668 84.203 396.68 84.0616L396.682 84.0546C396.693 83.9278 396.699 83.7977 396.705 83.7005C396.708 83.6088 396.718 83.5173 396.734 83.4269L396.735 83.4235C396.973 82.383 397.716 82.0058 398.913 82.2791L398.931 82.2833L402.283 83.228C402.464 83.2893 402.642 83.3611 402.816 83.4431C402.967 83.5092 403.162 83.5957 403.496 83.7337L403.505 83.7357C404.226 84.0379 404.826 84.313 405.218 84.5424L405.353 84.621L405.4 84.7787C405.434 84.8889 405.459 85.0024 405.474 85.1176C405.477 85.1478 405.48 85.1705 405.481 85.1781C405.492 85.2864 405.487 85.3961 405.467 85.5034L405.463 85.5011ZM403.132 85.3769L399.806 84.1028C399.522 84.0393 399.235 83.9933 398.945 83.9649L398.807 83.9525C398.68 83.9422 398.555 83.9352 398.432 83.9315L397.705 87.1115C399.36 86.7696 400.293 86.5762 400.575 86.5443C401.157 86.3743 401.724 86.1518 402.271 85.8793C402.568 85.7299 402.856 85.5625 403.135 85.3782L403.132 85.3769ZM395.887 88.3329C395.887 88.3353 395.886 88.3376 395.886 88.3399L395.887 88.3329Z" fill="#ED1A3B"/>
<path d="M441.913 95.3935C441.759 96.0713 441.332 96.6187 440.622 97.0837C440.539 97.1383 440.452 97.192 440.376 97.2356C440.29 97.2844 440.202 97.3305 440.114 97.3743C439.62 97.6099 439.102 97.7823 438.57 97.8878L438.558 97.8903C437.864 98.0103 437.277 98.1072 436.796 98.1657C436.379 98.2251 435.958 98.244 435.539 98.2221C435.262 98.2143 434.985 98.1882 434.712 98.1441C434.412 98.0978 434.06 98.0291 433.65 97.9354C433.353 97.8653 433.06 97.7764 432.774 97.6693C432.488 97.5642 432.18 97.4352 431.851 97.2887L431.734 97.2369L431.669 97.1279C431.656 97.1043 431.644 97.08 431.633 97.0551C431.378 96.9116 431.144 96.7305 430.94 96.5173C430.684 96.2498 430.46 95.9519 430.272 95.6296L430.256 95.5988C430.087 95.2688 429.968 94.9128 429.903 94.5434C429.847 94.2052 429.858 93.8576 429.935 93.5214C430.007 93.2062 430.202 92.8758 430.53 92.5435C430.589 92.4834 430.642 92.4328 430.688 92.3905C431.023 92.0957 431.387 91.8372 431.772 91.6191L431.791 91.6093C432.231 91.3826 432.687 91.1918 433.154 91.0385C433.684 90.8645 434.225 90.7305 434.773 90.6375L434.779 90.6389L434.784 90.6401C434.931 90.6148 435.082 90.5949 435.227 90.5781C435.373 90.5613 435.522 90.547 435.659 90.5378C436.316 90.4871 436.974 90.5315 437.615 90.6699C437.693 90.6875 437.883 90.7818 438.185 90.9529L438.199 90.9613C438.362 91.0631 438.507 91.136 438.631 91.1988L438.752 91.2603C439.558 91.5978 440.284 92.1077 440.884 92.7573C441.759 93.6775 442.1 94.5588 441.907 95.401L441.913 95.3935ZM440.209 95.1427C440.276 94.8513 440.219 94.4832 440.031 94.0727L440.028 94.0601C439.949 93.8555 439.834 93.6692 439.687 93.5117C439.587 93.4098 439.462 93.3391 439.325 93.3071C439.258 93.2919 439.157 93.3239 439.04 93.3787L438.811 93.4867L438.622 93.3258L438.617 93.3247C438.59 93.3013 438.565 93.2755 438.543 93.2476C438.521 93.2203 438.502 93.1913 438.485 93.1607C438.421 93.0518 438.39 92.9253 438.394 92.7968L438.391 92.7762C438.263 92.6583 438.117 92.5622 437.959 92.4915L437.928 92.4763L437.923 92.4751L437.914 92.4731C437.858 92.4391 437.817 92.4135 437.79 92.3992C437.763 92.3849 437.717 92.3605 437.667 92.3352C437.499 92.2498 437.321 92.1846 437.138 92.1408C436.888 92.0845 436.633 92.0485 436.376 92.0331C436.051 92.0132 435.725 92.0128 435.399 92.0319C435.302 92.0407 435.209 92.0509 435.119 92.0613C435.029 92.0717 434.941 92.0832 434.849 92.0967C434.465 92.1508 434.084 92.2259 433.707 92.3219C433.458 92.4146 433.214 92.5203 432.975 92.6385C432.723 92.7633 432.481 92.9093 432.252 93.0748L432.237 93.0867C432.123 93.1606 432.015 93.2419 431.912 93.3302C431.83 93.3998 431.754 93.4764 431.684 93.5591C431.585 93.6711 431.513 93.8061 431.475 93.9523C431.445 94.0816 431.492 94.3152 431.624 94.626C431.635 94.652 431.657 94.7006 431.69 94.766C431.713 94.8132 431.739 94.8582 431.759 94.8989C431.871 95.0998 432.01 95.282 432.173 95.4397L432.199 95.4639L432.216 95.4861C432.341 95.6504 432.585 95.8122 432.95 95.9714L432.961 95.9739C433.021 95.9993 433.078 96.0242 433.13 96.0455C433.17 96.0621 433.224 96.0841 433.296 96.1115C433.538 96.2062 433.785 96.2838 434.037 96.3439L434.043 96.3452C434.505 96.4471 434.976 96.5079 435.45 96.5269C435.531 96.5307 435.621 96.5336 435.719 96.536C436.24 96.5458 436.762 96.5261 437.282 96.4769L437.293 96.4793C438.238 96.4203 438.957 96.2624 439.456 96.008C439.886 95.7892 440.135 95.5014 440.218 95.1395L440.209 95.1427Z" fill="#ED1A3B"/>
<path d="M362.664 131.151L430.908 146.735" stroke="white" stroke-opacity="0.1"/>
<path d="M424.554 127.15L424.322 128.167L416.247 126.323L416.48 125.306L418.544 125.777L418.852 124.43L417.718 124.171L418.395 121.204L423.388 122.344L423.604 121.394L418.603 120.252L418.828 119.264L425.052 120.685L424.383 123.612L419.41 122.477L419.187 123.456L424.363 124.638L424.135 125.636L422.885 125.351L422.577 126.698L424.554 127.15ZM419.746 126.052L421.365 126.421L421.673 125.074L420.054 124.704L419.746 126.052Z" fill="white"/>
<path d="M416.397 123.298L416.172 124.287L412.721 123.498L412.061 126.387L410.84 126.108L411.499 123.22L408.097 122.443L408.323 121.454L416.397 123.298ZM416.457 118.569L415.645 122.126L409.489 120.721L410.302 117.163L416.457 118.569ZM411.3 118.421L410.932 120.03L414.635 120.876L415.003 119.267L411.3 118.421Z" fill="white"/>
<path d="M406.008 115.734L403.994 124.555L402.763 124.274L404.777 115.453L406.008 115.734ZM397.186 120.38C397.861 120.529 398.631 120.704 399.441 120.864L399.612 120.118C398.681 119.727 398.188 118.982 398.387 118.155C398.603 117.164 399.658 116.701 400.957 116.998C402.265 117.297 403.024 118.174 402.798 119.162C402.61 119.986 401.842 120.443 400.833 120.396L400.672 121.104C401.416 121.238 402.176 121.351 402.904 121.42L402.784 122.351C400.779 122.24 398.691 121.784 397.12 121.425L397.186 120.38ZM403.943 116.293L403.721 117.262L398.361 116.038L398.582 115.068L400.657 115.542L400.871 114.602L402.102 114.883L401.888 115.823L403.943 116.293ZM400.742 117.938C400.141 117.801 399.655 117.965 399.56 118.423C399.444 118.886 399.813 119.235 400.414 119.373C401.035 119.514 401.509 119.358 401.615 118.892C401.719 118.437 401.362 118.08 400.742 117.938Z" fill="white"/>
<path d="M397.047 114.647L395.445 121.665L393.981 121.331L395.267 115.699L395.228 115.69L393.389 116.331L393.683 115.041L395.671 114.333L397.047 114.647Z" fill="white"/>
<path d="M384.849 113.126L385.124 111.924L390.872 113.236L390.598 114.438L388.446 113.947L387.117 119.763L385.673 119.433L387.001 113.617L384.849 113.126Z" fill="white"/>
<path d="M377.608 117.591L379.21 110.573L381.963 111.201C383.563 111.566 384.25 112.754 383.934 114.14C383.613 115.545 382.463 116.292 380.844 115.923L379.584 115.635L379.062 117.923L377.608 117.591ZM379.852 114.462L380.88 114.697C381.742 114.894 382.27 114.504 382.431 113.797C382.591 113.099 382.282 112.529 381.42 112.332L380.392 112.097L379.852 114.462Z" fill="white"/>
<path d="M432.254 167.246L431.227 171.741L430.557 171.588L431.009 169.612L429.49 169.265L429.616 168.714L431.135 169.061L431.584 167.093L432.254 167.246ZM428.671 171.407C430.24 171.766 431.082 172.494 430.879 173.384C430.676 174.275 429.601 174.565 428.03 174.215C426.463 173.848 425.62 173.12 425.824 172.23C426.027 171.339 427.102 171.049 428.671 171.407ZM428.553 171.925C427.399 171.661 426.603 171.828 426.485 172.381C426.353 172.922 426.998 173.417 428.152 173.681C429.305 173.944 430.094 173.776 430.217 173.233C430.343 172.682 429.706 172.188 428.553 171.925ZM428.308 167.799C428.083 168.783 428.625 169.889 429.641 170.522L429.171 170.977C428.392 170.478 427.879 169.696 427.74 168.839C427.207 169.65 426.346 170.198 425.373 170.333L425.148 169.719C426.36 169.568 427.39 168.732 427.636 167.655L427.7 167.375L425.995 166.986L426.123 166.426L430.186 167.354L430.058 167.914L428.37 167.528L428.308 167.799Z" fill="white"/>
<path d="M424.392 165.459L423.825 167.944L424.961 168.203L424.834 168.763L423.697 168.504L423.102 171.108L422.441 170.957L423.731 165.308L424.392 165.459ZM422.799 166.068L422.675 166.61L418.179 165.584L418.303 165.041L420.22 165.479L420.431 164.554L421.093 164.705L420.882 165.63L422.799 166.068ZM420.332 166.513C421.409 166.759 422.013 167.477 421.826 168.335C421.623 169.181 420.77 169.558 419.693 169.312C418.607 169.064 417.993 168.352 418.195 167.506C418.382 166.648 419.246 166.265 420.332 166.513ZM420.212 167.039C419.499 166.876 418.945 167.115 418.831 167.651C418.701 168.184 419.098 168.632 419.813 168.786C420.515 168.955 421.067 168.724 421.198 168.192C421.311 167.656 420.916 167.199 420.212 167.039ZM423.185 172.349L423.057 172.909L417.993 171.753L418.489 169.581L419.142 169.73L418.774 171.342L423.185 172.349Z" fill="white"/>
<path d="M414.995 163.304L413.273 170.845L412.612 170.694L414.334 163.153L414.995 163.304ZM407.591 167.432C408.237 167.575 408.976 167.74 409.745 167.888L409.933 167.066C409.052 166.762 408.58 166.114 408.76 165.361C408.946 164.511 409.801 164.126 410.887 164.374C411.972 164.622 412.584 165.342 412.391 166.19C412.22 166.937 411.518 167.316 410.605 167.21L410.421 168.016C411.157 168.153 411.908 168.266 412.625 168.332L412.559 168.852C410.818 168.74 408.963 168.343 407.563 168.024L407.591 167.432ZM413.425 163.928L413.301 164.47L408.678 163.415L408.802 162.872L410.787 163.325L410.998 162.401L411.668 162.554L411.457 163.478L413.425 163.928ZM410.769 164.892C410.073 164.733 409.5 164.977 409.38 165.503C409.26 166.028 409.674 166.48 410.371 166.63C411.074 166.8 411.634 166.571 411.755 166.045C411.875 165.519 411.473 165.052 410.769 164.892Z" fill="white"/>
<path d="M407.563 162.785L407.437 163.336L401.262 161.926L401.388 161.375L404.153 162.006L404.38 161.014L405.033 161.163L404.806 162.155L407.563 162.785ZM406.814 167.861L406.688 168.412L399.784 166.836L399.91 166.284L403.014 166.993L403.256 165.933C401.933 165.555 401.237 164.847 401.44 164.001C401.636 163.1 402.706 162.791 404.24 163.15C405.76 163.488 406.598 164.233 406.393 165.132C406.199 165.98 405.257 166.314 403.909 166.082L403.667 167.143L406.814 167.861ZM404.12 163.676C402.992 163.419 402.229 163.592 402.11 164.154C401.969 164.729 402.583 165.208 403.709 165.474C404.822 165.72 405.583 165.554 405.714 164.977C405.842 164.418 405.231 163.93 404.12 163.676Z" fill="white"/>
<path d="M399.825 163.767L399.703 164.301L392.824 162.73L392.946 162.196L396.059 162.907L396.261 162.025L394.022 161.514L394.591 159.02L399.74 160.196L399.618 160.73L395.122 159.703L394.799 161.12L399.345 162.158L399.221 162.701L396.905 162.172L396.704 163.054L399.825 163.767ZM396.134 164.066C397.754 164.436 398.608 165.149 398.419 166.016C398.211 166.888 397.134 167.15 395.512 166.789C393.885 166.409 393.02 165.702 393.22 164.829C393.417 163.964 394.505 163.694 396.134 164.066ZM396.014 164.592C394.801 164.315 394.008 164.464 393.898 164.984C393.77 165.508 394.421 165.978 395.634 166.255C396.83 166.528 397.629 166.389 397.749 165.863C397.867 165.346 397.21 164.865 396.014 164.592Z" fill="white"/>
<path d="M387.615 158.221C387.321 159.51 388.533 161.001 389.792 161.547L389.359 162.037C388.282 161.514 387.267 160.43 387.034 159.203C386.293 160.203 384.912 160.74 383.71 160.747L383.532 160.117C384.897 160.161 386.623 159.36 386.92 158.062L387.052 157.485L387.747 157.644L387.615 158.221ZM389.654 163.791L389.528 164.342L382.624 162.766L382.75 162.214L389.654 163.791Z" fill="white"/>
<path d="M383.006 156.008L382.041 160.232L381.405 160.087L382.369 155.863L383.006 156.008ZM381.602 155.822L380.682 159.851L380.055 159.708L380.427 158.079L379.578 157.885L379.702 157.342L380.551 157.536L380.975 155.679L381.602 155.822ZM381.965 160.563L381.586 162.226L377.26 161.238L377.095 161.959L381.71 163.013L381.593 163.521L376.318 162.317L376.711 160.595L381.045 161.585L381.198 160.915L376.847 159.921L376.961 159.421L381.965 160.563ZM380.174 156.138L380.054 156.664L376.271 155.8L376.391 155.274L377.951 155.631L378.126 154.867L378.787 155.018L378.613 155.782L380.174 156.138ZM378.092 156.538C379.017 156.749 379.549 157.388 379.377 158.143C379.203 158.906 378.447 159.242 377.525 159.023C376.59 158.818 376.064 158.189 376.239 157.426C376.411 156.671 377.159 156.324 378.092 156.538ZM377.98 157.029C377.397 156.887 376.926 157.11 376.824 157.56C376.719 158.018 377.048 158.414 377.633 158.548C378.219 158.681 378.687 158.467 378.792 158.009C378.894 157.56 378.567 157.155 377.98 157.029Z" fill="white"/>
<path d="M368.803 153.372C369.912 153.634 370.469 154.832 370.111 156.437C369.737 158.038 368.715 158.876 367.604 158.622C366.485 158.367 365.937 157.171 366.303 155.567C366.669 153.964 367.682 153.125 368.803 153.372ZM368.668 153.966C367.919 153.804 367.211 154.481 366.931 155.711C366.65 156.941 366.994 157.858 367.74 158.028C368.495 158.201 369.186 157.52 369.467 156.29C369.748 155.06 369.421 154.147 368.668 153.966ZM373.541 155.837L373.412 156.405L372.19 156.127L371.807 157.806L373.028 158.085L372.9 158.645L371.679 158.366L371.032 161.199L370.37 161.048L372.092 153.507L372.754 153.658L372.32 155.558L373.541 155.837Z" fill="white"/>
<path d="M365.637 152.033L363.911 159.591L363.25 159.439L364.976 151.882L365.637 152.033ZM363.186 152.214L362.574 154.894L359.758 154.251L359.352 156.033C360.603 156.318 361.731 156.518 363.129 156.61L363.069 157.185C361.627 157.088 360.471 156.877 359.173 156.581L358.545 156.437L359.204 153.554L362.028 154.199L362.39 152.612L359.549 151.964L359.675 151.412L363.186 152.214Z" fill="white"/>
<path d="M357.813 154.798L357.685 155.358L354.538 154.639L353.932 157.294L353.279 157.145L353.885 154.49L350.781 153.781L350.909 153.222L357.813 154.798ZM355.262 149.986C356.848 150.348 357.771 151.228 357.537 152.254C357.309 153.255 356.095 153.647 354.508 153.285C352.922 152.923 351.999 152.043 352.227 151.042C352.462 150.016 353.676 149.623 355.262 149.986ZM355.138 150.528C353.959 150.259 353.061 150.518 352.914 151.199C352.753 151.867 353.451 152.482 354.63 152.751C355.801 153.018 356.705 152.769 356.859 152.099C357.013 151.421 356.308 150.796 355.138 150.528Z" fill="white"/>
<path fill-rule="evenodd" clip-rule="evenodd" d="M205 167C205 155.799 205 150.198 207.18 145.92C209.097 142.157 212.157 139.097 215.92 137.18C220.198 135 225.799 135 237 135H285C296.201 135 301.802 135 306.08 137.18C309.843 139.097 312.903 142.157 314.82 145.92C317 150.198 317 155.799 317 167V219C313.778 219 311.167 221.612 311.167 224.833C311.167 228.055 313.778 230.667 317 230.667V243C317 254.201 317 259.802 314.82 264.08C312.903 267.843 309.843 270.903 306.08 272.82C301.802 275 296.201 275 285 275H237C225.799 275 220.198 275 215.92 272.82C212.157 270.903 209.097 267.843 207.18 264.08C205 259.802 205 254.201 205 243V230.667C208.222 230.667 210.833 228.055 210.833 224.833C210.833 221.612 208.222 219 205 219V167Z" fill="#292A2C"/>
<path d="M269.166 154.637C265.978 154.637 263.14 158.724 261.274 165.099C259.408 158.724 256.57 154.637 253.382 154.637C247.783 154.637 243.274 168.249 243.274 185.012H247.783C247.783 169.449 250.31 156.812 253.421 156.812C256.531 156.812 259.058 168.474 259.058 182.837H263.567C263.567 168.474 266.094 156.812 269.205 156.812C272.315 156.812 274.842 169.449 274.842 185.012H279.274C279.274 168.212 274.764 154.637 269.166 154.637Z" fill="#FFBC0D"/>
<path d="M226 224.727H296" stroke="white" stroke-opacity="0.1"/>
<path d="M291.666 200.059V206.562H290.393V200.059H291.666ZM291.904 207.924V208.938H285.6V205.905H286.883V207.924H291.904ZM286.704 200.636C288.096 200.636 289.18 201.59 289.18 202.913C289.18 204.265 288.096 205.209 286.704 205.209C285.312 205.209 284.228 204.265 284.228 202.913C284.228 201.59 285.312 200.636 286.704 200.636ZM286.704 201.739C285.998 201.729 285.461 202.177 285.471 202.913C285.461 203.668 285.998 204.106 286.704 204.106C287.39 204.106 287.927 203.668 287.927 202.913C287.927 202.177 287.39 201.729 286.704 201.739Z" fill="white"/>
<path d="M282.468 200.029V201.998H283.691V203.012H282.468V204.931H281.195V200.029H282.468ZM282.468 205.299V207.586H277.725V208.103H282.727V209.038H276.482V206.721H281.205V206.214H276.462V205.299H282.468ZM280.658 200.725V201.69H275.289V200.725H277.347V199.989H278.61V200.725H280.658ZM277.974 201.908C279.326 201.908 280.201 202.485 280.201 203.39C280.201 204.315 279.326 204.871 277.974 204.871C276.621 204.871 275.727 204.315 275.727 203.39C275.727 202.485 276.621 201.908 277.974 201.908ZM277.974 202.803C277.347 202.803 276.96 203.012 276.969 203.39C276.96 203.778 277.347 203.967 277.974 203.967C278.6 203.967 278.998 203.778 278.998 203.39C278.998 203.012 278.6 202.803 277.974 202.803Z" fill="white"/>
<path d="M265.356 204.584C264.282 204.584 263.695 203.798 263.695 202.665C263.695 201.521 264.302 200.736 265.356 200.736C266.44 200.736 267.006 201.521 267.016 202.665C267.006 203.808 266.42 204.584 265.356 204.584ZM265.356 203.699C265.783 203.699 265.992 203.281 266.002 202.665C265.992 202.048 265.803 201.621 265.356 201.621C264.928 201.621 264.71 202.058 264.71 202.665C264.71 203.281 264.938 203.699 265.356 203.699ZM270.208 208.422C269.144 208.422 268.558 207.636 268.558 206.503C268.558 205.359 269.164 204.574 270.208 204.574C271.292 204.574 271.869 205.359 271.879 206.503C271.869 207.646 271.282 208.422 270.208 208.422ZM270.208 207.537C270.646 207.537 270.854 207.129 270.864 206.503C270.854 205.886 270.665 205.459 270.208 205.469C269.79 205.469 269.572 205.896 269.572 206.503C269.572 207.129 269.8 207.537 270.208 207.537ZM264.729 208.183L269.681 200.984H270.795L265.843 208.183H264.729Z" fill="white"/>
<path d="M259.539 208.281C257.739 208.281 256.645 206.939 256.645 204.582C256.645 202.226 257.739 200.884 259.539 200.884C261.338 200.884 262.432 202.236 262.432 204.582C262.432 206.949 261.338 208.281 259.539 208.281ZM259.539 207.048C260.374 207.048 260.911 206.243 260.901 204.582C260.901 202.942 260.374 202.107 259.539 202.107C258.703 202.107 258.176 202.942 258.176 204.582C258.166 206.243 258.703 207.048 259.539 207.048Z" fill="white"/>
<path d="M250.531 208.182L250.521 207.098L253.106 204.722C253.782 204.075 254.14 203.678 254.14 203.111C254.14 202.474 253.653 202.077 252.997 202.077C252.32 202.077 251.883 202.504 251.883 203.19H250.461C250.451 201.778 251.495 200.884 253.016 200.884C254.558 200.884 255.582 201.759 255.582 203.011C255.582 203.827 255.184 204.503 253.702 205.845L252.609 206.909V206.949H255.681V208.182H250.531Z" fill="white"/>
<path d="M246.663 200.059V205.16H245.39V200.059H246.663ZM246.663 205.577V208.998H240.597V205.577H246.663ZM241.85 206.582V207.984H245.42V206.582H241.85ZM242.556 201.262C242.546 202.366 243.213 203.41 244.674 203.867L244.058 204.832C243.024 204.528 242.308 203.902 241.9 203.092C241.487 203.971 240.752 204.668 239.673 205.001L239.056 204.006C240.568 203.549 241.234 202.395 241.234 201.262V200.387H242.556V201.262Z" fill="white"/>
<path d="M237.912 200.049V205.279H236.649V203.171H235.217V202.137H236.649V200.049H237.912ZM237.912 205.657V208.997H231.827V205.657H237.912ZM233.099 206.651V207.983H236.669V206.651H233.099ZM235.506 200.506V201.53H233.706C233.726 202.559 234.367 203.658 235.784 204.125L235.158 205.13C234.153 204.796 233.462 204.14 233.069 203.32C232.667 204.225 231.946 204.946 230.882 205.289L230.236 204.294C231.697 203.827 232.378 202.674 232.413 201.53H230.594V200.506H235.506Z" fill="white"/>
<path d="M292.423 244.424V249.035H291.735V247.008H290.178V246.443H291.735V244.424H292.423ZM289.856 249.279C291.466 249.279 292.449 249.801 292.449 250.714C292.449 251.628 291.466 252.15 289.856 252.159C288.246 252.15 287.263 251.628 287.263 250.714C287.263 249.801 288.246 249.279 289.856 249.279ZM289.856 249.81C288.673 249.81 287.933 250.149 287.942 250.714C287.933 251.271 288.673 251.611 289.856 251.611C291.039 251.611 291.77 251.271 291.77 250.714C291.77 250.149 291.039 249.81 289.856 249.81ZM288.699 245.842C288.699 246.851 289.473 247.808 290.604 248.2L290.247 248.748C289.377 248.435 288.703 247.787 288.377 246.982C288.038 247.891 287.32 248.618 286.402 248.966L286.045 248.418C287.194 248 288.011 246.956 288.011 245.851V245.564H286.263V244.99H290.43V245.564H288.699V245.842Z" fill="white"/>
<path d="M284.359 244.433V246.982H285.525V247.557H284.359V250.227H283.68V244.433H284.359ZM282.941 245.381V245.938H278.33V245.381H280.296V244.433H280.975V245.381H282.941ZM280.635 246.365C281.74 246.365 282.488 246.93 282.497 247.809C282.488 248.679 281.74 249.236 280.635 249.236C279.522 249.236 278.765 248.679 278.773 247.809C278.765 246.93 279.522 246.365 280.635 246.365ZM280.635 246.904C279.904 246.904 279.417 247.261 279.426 247.809C279.417 248.357 279.904 248.705 280.635 248.696C281.357 248.705 281.845 248.357 281.853 247.809C281.845 247.261 281.357 246.904 280.635 246.904ZM284.716 251.419V251.994H279.522V249.766H280.192V251.419H284.716Z" fill="white"/>
<path d="M274.752 244.433V250.306H274.065V249.505H272.464V249.009H274.065V244.433H274.752ZM274.943 251.419V251.994H269.445V249.732H270.132V251.419H274.943ZM268.331 248.018C269.775 248.009 271.707 248 273.369 247.791L273.412 248.287C272.72 248.396 271.998 248.466 271.289 248.505V250.036H270.602V248.54C269.819 248.574 269.075 248.579 268.427 248.574L268.331 248.018ZM270.872 244.746C272.003 244.746 272.777 245.286 272.786 246.095C272.777 246.921 272.003 247.435 270.872 247.435C269.732 247.435 268.957 246.921 268.957 246.095C268.957 245.286 269.732 244.746 270.872 244.746ZM270.872 245.268C270.115 245.26 269.601 245.599 269.61 246.095C269.601 246.599 270.115 246.93 270.872 246.93C271.602 246.93 272.124 246.599 272.133 246.095C272.124 245.599 271.602 245.26 270.872 245.268Z" fill="white"/>
<path d="M263.46 245.86C263.46 246.904 264.286 247.852 265.443 248.226L265.095 248.757C264.195 248.452 263.477 247.813 263.129 246.991C262.79 247.874 262.063 248.57 261.145 248.905L260.789 248.374C261.946 247.965 262.772 246.956 262.772 245.86V245.529H260.963V244.972H265.243V245.529H263.46V245.86ZM267.062 244.424V249.105H266.383V244.424H267.062ZM267.062 249.514V252.159H266.383V250.079H261.859V249.514H267.062Z" fill="white"/>
<path d="M259.363 244.433V248.853H258.684V244.433H259.363ZM259.363 249.27V252.055H254.334V249.27H259.363ZM255.004 249.827V251.498H258.693V249.827H255.004ZM255.187 244.842C256.361 244.842 257.214 245.573 257.214 246.652C257.214 247.713 256.361 248.453 255.187 248.453C254.012 248.453 253.16 247.713 253.16 246.652C253.16 245.573 254.012 244.842 255.187 244.842ZM255.187 245.425C254.395 245.416 253.821 245.93 253.83 246.652C253.821 247.365 254.395 247.87 255.187 247.87C255.97 247.87 256.544 247.365 256.544 246.652C256.544 245.93 255.97 245.416 255.187 245.425Z" fill="white"/>
<path d="M245.11 245.024C246.25 245.033 247.059 246.077 247.068 247.721C247.059 249.366 246.25 250.41 245.11 250.41C243.962 250.41 243.161 249.366 243.161 247.721C243.161 246.077 243.962 245.033 245.11 245.024ZM245.11 245.633C244.344 245.642 243.805 246.46 243.805 247.721C243.805 248.983 244.344 249.801 245.11 249.801C245.884 249.801 246.406 248.983 246.406 247.721C246.406 246.46 245.884 245.642 245.11 245.633ZM250.278 246.373V246.956H249.025V248.679H250.278V249.253H249.025V252.159H248.347V244.424H249.025V246.373H250.278Z" fill="white"/>
<path d="M241.727 244.424V252.176H241.048V244.424H241.727ZM239.378 245.146V247.895H236.489V249.723C237.773 249.723 238.917 249.666 240.3 249.444L240.37 250.018C238.943 250.245 237.768 250.297 236.437 250.297H235.793V247.339H238.691V245.712H235.776V245.146H239.378Z" fill="white"/>
<path d="M234.714 248.861V249.435H231.486V252.159H230.816V249.435H227.632V248.861H234.714ZM231.156 244.737C232.783 244.737 233.879 245.39 233.879 246.443C233.879 247.469 232.783 248.122 231.156 248.122C229.529 248.122 228.433 247.469 228.433 246.443C228.433 245.39 229.529 244.737 231.156 244.737ZM231.156 245.294C229.946 245.294 229.129 245.747 229.137 246.443C229.129 247.13 229.946 247.574 231.156 247.574C232.356 247.574 233.183 247.13 233.183 246.443C233.183 245.747 232.356 245.294 231.156 245.294Z" fill="white"/>
<g clip-path="url(#clip0_1472_37885)">
<path d="M431.533 252.944L459.13 253.345L458.816 275.11L411.105 274.417L411.128 272.822C411.289 261.691 420.433 252.783 431.533 252.944Z" fill="#28214E"/>
<path d="M550.035 203.344L540.852 177.497L561.299 170.192L577.23 215.032L575.732 215.567C565.274 219.303 553.757 213.822 550.031 203.335L550.035 203.344Z" fill="#28214E"/>
<path d="M459.184 253.383L426.198 252.905L449.355 157.086L482.341 157.564L459.184 253.383Z" fill="#F8BFEC"/>
<path d="M551.515 206.829L540.821 177.597L508.321 186.657L501.175 157.843L468.179 157.365L485.75 225.038L551.515 206.829Z" fill="#F8BFEC"/>
<path d="M472.731 197.779L440.191 194.411L449.355 157.086L482.342 157.564L472.731 197.779Z" fill="#28214E"/>
<path d="M507.427 181.873L501.175 157.843L468.179 157.365L476.915 191.341L507.427 181.873Z" fill="#28214E"/>
<path d="M506.731 91.655C511.025 96.6981 508.759 105.708 501.662 111.778C494.566 117.847 485.343 118.684 481.049 113.641C476.756 108.598 479.022 99.5884 486.118 93.5187C493.214 87.4491 502.438 86.6119 506.731 91.655Z" fill="#292A2C"/>
<path d="M519.343 104.671C523.637 109.714 521.371 118.724 514.275 124.794C507.178 130.864 497.955 131.701 493.662 126.658C489.368 121.615 491.634 112.605 498.73 106.535C505.827 100.465 515.05 99.6282 519.343 104.671Z" fill="#292A2C"/>
<path d="M526.884 137.818C533.977 131.747 536.247 122.736 531.953 117.69C527.659 112.645 518.428 113.477 511.334 119.548C504.241 125.619 501.971 134.631 506.265 139.676C510.559 144.721 519.79 143.889 526.884 137.818Z" fill="#292A2C"/>
<path d="M544.558 130.694C548.851 135.737 546.585 144.747 539.489 150.817C532.393 156.887 523.17 157.724 518.876 152.681C514.583 147.638 516.849 138.628 523.945 132.558C531.041 126.488 540.264 125.651 544.558 130.694Z" fill="#292A2C"/>
<path d="M477.64 109.081C485.201 107.899 490.374 100.795 489.196 93.213C488.017 85.6315 480.933 80.4434 473.373 81.6253C465.812 82.8071 460.639 89.9112 461.817 97.4928C462.996 105.074 470.08 110.262 477.64 109.081Z" fill="#F8BFEC"/>
<path d="M464.998 86.2232C464.998 86.2232 474.043 87.1102 480.046 81.7781C480.046 81.7781 476.289 80.2332 471.588 81.8578C466.887 83.4824 464.998 86.2232 464.998 86.2232Z" fill="#292A2C"/>
<path d="M478.316 81.3994C478.316 81.3994 481.705 90.0205 489.309 93.0105C489.309 93.0105 488.961 88.8843 485.313 85.3661C481.666 81.8479 478.306 81.4094 478.306 81.4094L478.316 81.3994Z" fill="#292A2C"/>
<path d="M464.193 92.8909C464.193 92.8909 464.114 102.1 471.896 101.502C478.157 101.024 478.436 92.6218 478.436 92.6218" stroke="#292A2C" stroke-miterlimit="10"/>
<path d="M473.725 105.954L477.561 106.009C490.977 106.204 501.701 117.285 501.507 130.728L501.094 159.309L448.653 158.548L449.066 129.966C449.26 116.513 460.309 105.759 473.715 105.954L473.725 105.954Z" fill="#BB93E3"/>
<path d="M426.388 160.028L485.688 143.38L480.021 123.081L420.721 139.729L426.388 160.028Z" fill="#BB93E3"/>
<path d="M402.713 141.787C402.593 143.172 403.398 144.408 404.631 144.946L399.691 146.432C397.902 146.97 396.859 148.804 397.375 150.518C397.684 151.544 398.489 152.292 399.463 152.621C398.826 153.428 398.568 154.494 398.866 155.521C399.174 156.548 399.979 157.295 400.953 157.624C400.317 158.431 400.059 159.498 400.357 160.524C400.665 161.551 401.47 162.298 402.444 162.627C401.808 163.435 401.55 164.501 401.848 165.528C402.355 167.242 404.243 168.199 406.022 167.66L426.486 159.817L423.345 148.156L420.761 139.505L406.35 138.727C404.502 138.618 402.852 139.993 402.693 141.787H402.713Z" fill="#F8BFEC"/>
<path d="M402.375 162.587L410.773 159.687" stroke="#292A2C" stroke-miterlimit="10"/>
<path d="M400.784 157.664L409.173 154.754" stroke="#292A2C" stroke-miterlimit="10"/>
<path d="M399.194 152.74L407.582 149.83" stroke="#292A2C" stroke-miterlimit="10"/>
<path d="M477.104 191.481L473.725 178.953" stroke="#292A2C" stroke-miterlimit="10"/>
</g>
<g clip-path="url(#clip1_1472_37885)">
<path d="M156.454 252.26L189.941 251.777L180.81 133.926L144.487 134.76L156.454 252.26Z" fill="#28214E"/>
<path d="M126.467 185.88L157.886 201.21L169.974 129.409L136.486 129.892L126.467 185.88Z" fill="#28214E"/>
<path d="M129.877 176.194L84.6658 197.76L99.5581 227.635L157.886 201.21" fill="#28214E"/>
<path d="M151.268 204.731L149.169 171.174" stroke="#292A2C" stroke-miterlimit="10"/>
<path d="M206.427 273.676L158.234 274.372L157.915 252.405L185.689 252.004C196.958 251.841 206.241 260.832 206.404 272.067L206.427 273.676Z" fill="#93BEFF"/>
<path d="M87.3573 252.778L65.9945 209.704L85.7476 199.967L98.059 224.79C103.054 234.862 98.907 247.084 88.8044 252.064L87.3573 252.778Z" fill="#93BEFF"/>
<path d="M178.57 87.7346C177.743 95.4398 183.332 102.35 191.051 103.175C198.77 104 205.711 98.4273 206.539 90.7322C207.366 83.027 201.776 76.1165 194.058 75.2916C186.329 74.4668 179.397 80.0395 178.57 87.7346Z" fill="#F8BFEC"/>
<path d="M206.448 86.6984C206.448 86.6984 198.093 82.8156 195.581 75.0903C195.581 75.0903 199.657 75.6738 202.937 79.5062C206.216 83.3387 206.448 86.6984 206.448 86.6984Z" fill="#292A2C"/>
<path d="M197.286 75.6437C197.286 75.6437 189.881 81.3974 181.698 80.0797C181.698 80.0797 184.119 76.6697 189.124 75.4827C194.128 74.2958 197.286 75.6437 197.286 75.6437Z" fill="#292A2C"/>
<path d="M203.724 92.9049C203.724 92.9049 199.052 100.942 192.554 96.4256C187.328 92.7842 191.404 85.3406 191.404 85.3406" stroke="#292A2C" stroke-miterlimit="10"/>
<path d="M185.28 97.4315L188.66 99.3528C200.444 106.062 204.581 121.161 197.851 132.91L183.504 157.967L135.608 131.129L151.611 106.605C158.34 94.8564 173.485 90.7322 185.27 97.4416L185.28 97.4315Z" fill="#93BEFF"/>
<path d="M217.618 155.99L174.341 111.013L158.942 125.741L202.219 170.717L217.618 155.99Z" fill="#93BEFF"/>
<path d="M230.703 162.493L217.698 155.753L210.988 161.95L202.25 170.47L216.104 187.822C217.385 189.21 219.524 189.34 220.856 188.113C221.653 187.379 221.976 186.313 221.834 185.287C222.853 185.508 223.943 185.267 224.74 184.532C225.537 183.798 225.86 182.732 225.719 181.706C226.738 181.927 227.828 181.686 228.625 180.951C229.422 180.217 229.745 179.151 229.603 178.125C230.622 178.346 231.712 178.105 232.509 177.37C233.841 176.143 233.871 174.011 232.58 172.622L229.018 168.79C230.37 168.951 231.712 168.297 232.328 167.03C233.115 165.39 232.378 163.348 230.703 162.493Z" fill="#F8BFEC"/>
<path d="M221.905 185.287L216.063 178.447" stroke="#292A2C" stroke-miterlimit="10"/>
<path d="M225.83 181.826L219.988 174.976" stroke="#292A2C" stroke-miterlimit="10"/>
<path d="M229.765 178.356L223.923 171.516" stroke="#292A2C" stroke-miterlimit="10"/>
<path d="M86.9252 145.042C79.4025 141.85 78.965 141.326 76.9312 130.293C76.8598 129.901 76.2937 129.903 76.2223 130.293C74.2099 141.323 73.7475 141.807 66.2176 145.039C65.9266 145.163 65.9284 145.575 66.2176 145.697C73.7439 148.89 74.1814 149.413 76.217 160.453C76.2884 160.845 76.8544 160.845 76.9258 160.453C78.9382 149.419 79.3989 148.932 86.9252 145.703C87.2162 145.578 87.2144 145.167 86.9252 145.044V145.042Z" fill="#FBC926"/>
</g>
<path d="M546.925 54.0424C539.402 50.8498 538.965 50.3263 536.931 39.2935C536.86 38.9013 536.294 38.9031 536.222 39.2935C534.21 50.3228 533.747 50.8072 526.218 54.0388C525.927 54.163 525.928 54.5748 526.218 54.6972C533.744 57.8898 534.181 58.4133 536.217 69.4532C536.288 69.8454 536.854 69.8454 536.926 69.4532C538.938 58.4186 539.399 57.9323 546.925 54.7025C547.216 54.5783 547.214 54.1666 546.925 54.0441V54.0424Z" fill="#FBC926"/>
<defs>
<clipPath id="clip0_1472_37885">
<rect width="180" height="194" fill="white" transform="translate(397.236 81.1104)"/>
</clipPath>
<clipPath id="clip1_1472_37885">
<rect width="233" height="208" fill="white" transform="translate(66 75)"/>
</clipPath>
</defs>
</svg>
