<svg width="233" height="208" viewBox="0 0 233 208" fill="none" xmlns="http://www.w3.org/2000/svg">
<g id="&#235;&#130;&#168;&#236;&#158;&#144;" clip-path="url(#clip0_533_8955)">
<path id="Vector" d="M90.4536 177.26L123.941 176.777L114.81 58.9255L78.4873 59.7604L90.4536 177.26Z" fill="#28214E"/>
<path id="Vector_2" d="M60.4672 110.88L91.8863 126.21L103.974 54.4092L70.4862 54.892L60.4672 110.88Z" fill="#28214E"/>
<path id="Vector_3" d="M63.8774 101.194L18.6658 122.76L33.5581 152.635L91.8863 126.21" fill="#28214E"/>
<path id="Vector_4" d="M85.2675 129.731L83.1689 96.1741" stroke="#292A2C" stroke-miterlimit="10"/>
<path id="Vector_5" d="M140.427 198.676L92.2342 199.372L91.915 177.405L119.689 177.004C130.958 176.841 140.241 185.832 140.404 197.067L140.427 198.676Z" fill="#93BEFF"/>
<path id="Vector_6" d="M21.3573 177.778L-0.00547444 134.704L19.7476 124.967L32.059 149.79C37.0542 159.862 32.907 172.084 22.8044 177.064L21.3573 177.778Z" fill="#93BEFF"/>
<g id="Group">
<path id="Vector_7" d="M112.57 12.7346C111.743 20.4398 117.332 27.3503 125.051 28.1752C132.77 29 139.711 23.4273 140.539 15.7322C141.366 8.02701 135.776 1.11648 128.058 0.291638C120.329 -0.5332 113.397 5.03948 112.57 12.7346Z" fill="#F8BFEC"/>
<path id="Vector_8" d="M140.448 11.6984C140.448 11.6984 132.093 7.81564 129.581 0.090332C129.581 0.090332 133.657 0.673754 136.937 4.50623C140.216 8.33871 140.448 11.6984 140.448 11.6984Z" fill="#292A2C"/>
<path id="Vector_9" d="M131.286 0.643659C131.286 0.643659 123.881 6.39741 115.698 5.07968C115.698 5.07968 118.119 1.66968 123.124 0.482715C128.128 -0.704247 131.286 0.643659 131.286 0.643659Z" fill="#292A2C"/>
<path id="Vector_10" d="M137.724 17.9049C137.724 17.9049 133.052 25.9421 126.554 21.4256C121.328 17.7842 125.404 10.3406 125.404 10.3406" stroke="#292A2C" stroke-miterlimit="10"/>
<path id="Vector_11" d="M119.28 22.4315L122.66 24.3528C134.444 31.0621 138.581 46.1607 131.851 57.9096L117.504 82.9666L69.6084 56.1291L85.6106 31.6053C92.3404 19.8564 107.485 15.7322 119.27 22.4416L119.28 22.4315Z" fill="#93BEFF"/>
<g id="Group_2">
<path id="Vector_12" d="M151.618 80.9895L108.341 36.0129L92.9415 50.7408L136.219 95.7174L151.618 80.9895Z" fill="#93BEFF"/>
<g id="Group_3">
<path id="Vector_13" d="M164.703 87.493L151.698 80.7534L144.988 86.9498L136.25 95.4697L150.104 112.822C151.385 114.21 153.524 114.34 154.856 113.113C155.653 112.379 155.976 111.313 155.834 110.287C156.853 110.508 157.943 110.267 158.74 109.532C159.537 108.798 159.86 107.732 159.719 106.706C160.738 106.927 161.828 106.686 162.625 105.951C163.422 105.217 163.745 104.151 163.603 103.125C164.622 103.346 165.712 103.105 166.509 102.37C167.841 101.143 167.871 99.0105 166.58 97.6224L163.018 93.7899C164.37 93.9508 165.712 93.297 166.328 92.0296C167.115 90.3899 166.378 88.348 164.703 87.493Z" fill="#F8BFEC"/>
<path id="Vector_14" d="M155.905 110.287L150.063 103.447" stroke="#292A2C" stroke-miterlimit="10"/>
<path id="Vector_15" d="M159.83 106.826L153.988 99.9761" stroke="#292A2C" stroke-miterlimit="10"/>
<path id="Vector_16" d="M163.765 103.356L157.923 96.5159" stroke="#292A2C" stroke-miterlimit="10"/>
</g>
</g>
</g>
<path id="Vector_17" d="M20.9252 70.0424C13.4025 66.8498 12.965 66.3263 10.9312 55.2935C10.8598 54.9013 10.2937 54.9031 10.2223 55.2935C8.20995 66.3228 7.74748 66.8072 0.21762 70.0388C-0.0734321 70.163 -0.0716465 70.5748 0.21762 70.6972C7.74391 73.8898 8.18138 74.4133 10.217 85.4532C10.2884 85.8454 10.8544 85.8454 10.9258 85.4532C12.9382 74.4186 13.3989 73.9323 20.9252 70.7025C21.2162 70.5783 21.2144 70.1666 20.9252 70.0441V70.0424Z" fill="#FBC926"/>
</g>
<defs>
<clipPath id="clip0_533_8955">
<rect width="233" height="208" fill="white"/>
</clipPath>
</defs>
</svg>
