<svg width="80" height="80" viewBox="0 0 80 80" fill="none" xmlns="http://www.w3.org/2000/svg">
<path fill-rule="evenodd" clip-rule="evenodd" d="M31 36C29.3431 36 28 37.3431 28 39V61C28 62.6569 29.3431 64 31 64H37.5V70.0686C37.5 70.7814 38.3617 71.1383 38.8657 70.6343L45.5 64H69C70.6569 64 72 62.6569 72 61V39C72 37.3431 70.6569 36 69 36H31Z" fill="#7253F0" fill-opacity="0.3"/>
<path fill-rule="evenodd" clip-rule="evenodd" d="M11 11C9.34315 11 8 12.3431 8 14V42C8 43.6569 9.34315 45 11 45H38L45.7929 52.7929C46.4229 53.4229 47.5 52.9767 47.5 52.0858V45H55C56.6569 45 58 43.6569 58 42V14C58 12.3431 56.6569 11 55 11H11Z" fill="#5A91EF"/>
<path d="M26 27.9L30.9 32.1L40 23" stroke="white" stroke-width="2.5" stroke-linecap="square"/>
</svg>
