<svg width="146" height="95" viewBox="0 0 146 95" fill="none" xmlns="http://www.w3.org/2000/svg">
<path d="M72.3838 61.6309L82.0556 53.5732L89.1632 41.1887C89.1632 41.1887 94.1524 41.4082 96.4101 45.6722C96.4101 45.6722 91.0028 58.9659 89.1632 61.6309C87.3236 64.2959 77.15 73.7959 77.15 73.7959L72.3838 61.6309Z" fill="#63D085"/>
<path d="M77.4649 70.772L73.8718 73.9249L72.8009 79.1315C72.6977 79.6428 72.3587 80.0553 71.8903 80.2472C70.9868 80.6174 69.9611 80.0217 69.8053 79.0694L69.3776 76.1183L61.014 77.3571C60.5379 77.435 60.0585 77.1234 59.9 76.6412C59.6515 75.8442 60.0405 74.9814 60.7492 74.6128L61.5248 74.2168L61.4349 73.9019C61.2276 73.2053 61.4629 72.4445 61.9692 71.9634L62.3889 71.557L62.3949 71.4763C62.3746 70.664 62.7241 69.8955 63.3445 69.4067L64.3983 68.545L64.4438 68.37C64.6243 67.4754 65.2294 66.7585 66.0324 66.4294L70.9512 64.4137L75.3078 61.0261L77.4649 70.772Z" fill="#F9BEA5"/>
<path d="M61.5106 74.1824C61.5106 74.1824 64.2972 73.3531 66.6323 73.1387" stroke="#4A1D20" stroke-miterlimit="10" stroke-linecap="round" stroke-linejoin="round"/>
<path d="M62.4082 71.5101C62.4082 71.5101 64.1038 70.3072 67.373 70.179" stroke="#4A1D20" stroke-miterlimit="10" stroke-linecap="round" stroke-linejoin="round"/>
<path d="M64.3842 68.5128C64.3842 68.5128 65.7501 68.0312 68.3452 67.593" stroke="#4A1D20" stroke-miterlimit="10" stroke-linecap="round" stroke-linejoin="round"/>
<path d="M105.293 19.7319C105.293 19.7319 93.104 21.9026 96.9026 35.0934L97.8209 38.3911C98.0297 39.059 98.0297 39.8103 97.9044 40.4782L96.193 49.5782L105.001 45.1535L106.295 23.8227L105.293 19.7319Z" fill="#4A1D20"/>
<path d="M109.133 9.21329C111.596 10.2151 113.641 12.0936 114.852 14.4312C115.812 16.3096 117.398 18.2715 119.819 18.2715C124.494 18.2715 128.836 20.4004 128.961 24.7417C129.086 29.083 133.511 31.9633 138.645 33.0903C143.78 34.2174 145.825 37.4734 145.992 40.6458C146.242 45.5715 140.398 57.3431 130.171 58.5119C119.944 59.6807 109.383 24.8252 109.383 24.8252L107.755 8.62891L109.133 9.21329Z" fill="#4A1D20"/>
<path d="M115.928 10.3571C117.854 7.68181 117.702 4.27891 115.588 2.75648C113.474 1.23406 110.199 2.16862 108.272 4.84392C106.346 7.51922 106.497 10.9222 108.612 12.4446C110.726 13.967 114.001 13.0324 115.928 10.3571Z" fill="#4A1D20"/>
<path d="M93.0205 67.6951C93.0205 67.6951 92.6031 79.3831 93.0205 91.6973C93.4379 104.012 96.4434 150.305 96.4434 150.305H130.214C130.214 150.305 128.794 87.1891 124.662 67.7368H93.0205V67.6951Z" fill="#ED8D13"/>
<path d="M110.219 150.305C110.219 150.305 105.627 90.1113 105.878 81.9714" stroke="#4A1D20" stroke-miterlimit="10" stroke-linecap="round" stroke-linejoin="round"/>
<path d="M138.562 50.7888C138.562 50.7888 141.86 58.0938 141.776 62.2264C141.693 66.359 133.845 65.4824 133.845 65.4824C133.845 65.4824 128.961 55.3805 129.045 55.0883C129.128 54.7961 130.046 53.8778 130.046 53.8778L138.562 50.7888Z" fill="#F9BEA5"/>
<path d="M138.562 50.7891C138.562 50.7891 128.878 30.4185 113.057 30.7942L114.142 51.1648L131.967 53.2102L138.562 50.7891Z" fill="#63D085"/>
<path d="M82.376 53.0852L86.3833 44.7784C86.3833 44.7784 93.3544 31.3371 107.672 30.8779L105.794 51.165H95.1911L93.0622 57.4265L82.376 53.0852Z" fill="#63D085"/>
<path d="M121.99 33.3826C121.99 33.3826 127.709 36.3046 132.551 50.0381L127.792 59.639H121.155L121.99 33.3826Z" fill="#63D085"/>
<path d="M124.953 67.6947C124.953 67.6947 129.796 46.0718 126.874 39.7686C123.91 33.4236 120.111 30.0424 107.672 30.919C95.2324 31.7539 91.8929 38.6833 91.0581 45.0282C90.2232 51.3731 90.8911 67.7364 90.8911 67.7364H124.953V67.6947Z" fill="#63D085"/>
<path d="M92.3109 57.4674C92.3109 57.4674 92.1856 47.0316 93.0622 44.1514" stroke="#4A1D20" stroke-miterlimit="10" stroke-linecap="round" stroke-linejoin="round"/>
<path d="M124.328 48.5767C124.328 48.5767 122.533 51.9996 118.609 51.8744C114.727 51.7074 111.596 50.956 111.596 50.956L114.727 46.573L118.233 44.5693L124.328 48.5767Z" fill="#F9BEA5"/>
<path d="M98.3638 52.9592C98.3638 52.9592 102.663 54.295 106.337 46.9482C110.052 39.5597 115.395 41.0624 115.395 41.0624L123.785 44.4019C123.785 44.4019 118.4 42.8991 114.727 50.2876C111.012 57.6761 106.754 56.2986 106.754 56.2986L98.3638 52.9592Z" fill="white"/>
<path d="M117.69 39.7688C117.69 39.7688 112.848 40.0193 113.057 42.3151C113.266 44.611 118.65 42.816 118.65 42.816C118.65 42.816 119.944 44.611 118.817 45.7798C117.69 46.9486 124.369 48.5766 124.369 48.5766C124.369 48.5766 124.995 47.9087 125.121 46.6564C125.329 44.1101 124.286 40.0193 117.69 39.7688Z" fill="#F9BEA5"/>
<path d="M124.829 44.6943L139.689 59.3462C139.689 59.3462 144.573 63.1865 140.315 68.6131C136.058 74.0397 132.05 71.4516 128.21 67.9452C124.37 64.4388 117.899 50.3714 117.899 50.3714L124.829 44.6943Z" fill="#F9BEA5"/>
<path d="M133.094 52.7935C133.094 52.7935 136.725 56.5921 139.397 60.2237" stroke="#4A1D20" stroke-miterlimit="10" stroke-linecap="round" stroke-linejoin="round"/>
<path d="M103.415 53.2107L106.211 54.296" stroke="#BBBCBF" stroke-miterlimit="10" stroke-linecap="round" stroke-linejoin="round"/>
<path d="M106.837 48.7014L109.634 49.7867" stroke="#BBBCBF" stroke-miterlimit="10" stroke-linecap="round" stroke-linejoin="round"/>
<path d="M104.583 51.9578L108.841 53.6275" stroke="#BBBCBF" stroke-miterlimit="10" stroke-linecap="round" stroke-linejoin="round"/>
<path d="M105.376 51.0396L109.593 52.6675" stroke="#BBBCBF" stroke-miterlimit="10" stroke-linecap="round" stroke-linejoin="round"/>
<path d="M106.128 50.0801L110.344 51.7081" stroke="#BBBCBF" stroke-miterlimit="10" stroke-linecap="round" stroke-linejoin="round"/>
<path d="M107.38 47.4077L111.596 49.0357" stroke="#BBBCBF" stroke-miterlimit="10" stroke-linecap="round" stroke-linejoin="round"/>
<path d="M108.591 45.446L112.807 47.1158" stroke="#BBBCBF" stroke-miterlimit="10" stroke-linecap="round" stroke-linejoin="round"/>
<path d="M109.384 44.2771L113.642 45.9468" stroke="#BBBCBF" stroke-miterlimit="10" stroke-linecap="round" stroke-linejoin="round"/>
<path d="M110.469 43.3594L114.727 44.9873" stroke="#BBBCBF" stroke-miterlimit="10" stroke-linecap="round" stroke-linejoin="round"/>
<path d="M108.465 37.2639L108.632 37.2222C112.055 36.7213 114.309 33.4236 113.641 30.0424C113.057 27.1204 112.347 22.153 112.097 19.1892L102.538 20.6085C103.414 24.3654 104.249 30.1676 104.5 34.0497C104.625 36.0534 106.461 37.5561 108.465 37.2639Z" fill="#F9BEA5"/>
<path d="M98.1967 18.3127C99.4907 15.6829 102.204 13.8462 105.335 13.8462C108.006 13.8462 110.386 15.182 111.847 17.2274H113.308V21.8191C113.308 26.2021 109.76 29.792 105.335 29.792C100.952 29.792 97.3618 26.2439 97.3618 21.8191V18.3127H98.1967Z" fill="#F9BEA5"/>
<path d="M97.3617 20.5247V20.0655C102.329 18.1036 103.79 14.3885 103.79 14.3885C106.378 18.8967 112.765 20.149 112.765 20.149L113.809 20.1073C113.809 20.1073 114.476 15.4321 111.179 12.51C109.676 11.55 108.006 9.88023 105.836 10.0055C103.832 9.88023 98.5723 10.8821 97.1948 16.8513C96.9443 18.8967 97.3617 20.5247 97.3617 20.5247Z" fill="#4A1D20"/>
<path d="M112.097 21.8182C112.097 22.9453 112.89 23.8637 113.808 23.8637C114.768 23.8637 115.52 22.9453 115.52 21.8182C115.52 20.6912 114.726 19.7729 113.808 19.7729C112.89 19.7311 112.097 20.6494 112.097 21.8182Z" fill="#F9BEA5"/>
<path d="M114.643 21.1089C114.643 21.1089 113.767 21.3594 113.516 22.7369" stroke="#4A1D20" stroke-miterlimit="10" stroke-linecap="round" stroke-linejoin="round"/>
<path d="M105.877 21.9022C106.269 21.9022 106.587 21.5845 106.587 21.1925C106.587 20.8006 106.269 20.4829 105.877 20.4829C105.485 20.4829 105.167 20.8006 105.167 21.1925C105.167 21.5845 105.485 21.9022 105.877 21.9022Z" fill="#4A1D20"/>
<path d="M100.993 21.9022C101.385 21.9022 101.703 21.5845 101.703 21.1925C101.703 20.8006 101.385 20.4829 100.993 20.4829C100.601 20.4829 100.284 20.8006 100.284 21.1925C100.284 21.5845 100.601 21.9022 100.993 21.9022Z" fill="#4A1D20"/>
<path d="M103.289 21.3596C103.289 21.3596 102.162 21.8605 102.371 22.278C102.579 22.6954 103.372 22.5702 103.372 22.5702" stroke="#4A1D20" stroke-miterlimit="10" stroke-linecap="round" stroke-linejoin="round"/>
<path d="M106.921 22.8624C106.921 23.5303 107.464 24.1147 108.173 24.1147C108.841 24.1147 109.425 23.572 109.425 22.8624C109.425 22.1528 108.883 21.6101 108.173 21.6101C107.464 21.6101 106.921 22.1528 106.921 22.8624Z" fill="#FF8257"/>
<path d="M99.2401 24.1147C99.9317 24.1147 100.492 23.554 100.492 22.8624C100.492 22.1708 99.9317 21.6101 99.2401 21.6101C98.5485 21.6101 97.9878 22.1708 97.9878 22.8624C97.9878 23.554 98.5485 24.1147 99.2401 24.1147Z" fill="#FF8257"/>
<path d="M102.538 24.4912C102.538 24.4912 103.999 25.326 105.501 24.0737" stroke="#4A1D20" stroke-miterlimit="10" stroke-linecap="round" stroke-linejoin="round"/>
<path d="M103.498 29.5416C103.498 29.5416 107.171 30.0008 109.008 28.2476" stroke="#4A1D20" stroke-miterlimit="10" stroke-linecap="round" stroke-linejoin="round"/>
<path d="M10.5858 73.9985L7.28809 160.908H25.4881L28.7858 100.213L32 160.908H53.6646L48.9059 73.9985H10.5858Z" fill="#4A1D20"/>
<path d="M0.817871 57.3014C0.817871 57.3014 2.27888 41.94 6.62015 35.8872C11.0032 29.8762 20.3119 26.4533 31.1233 27.1212C41.9765 27.7891 55.4178 29.751 59.7591 49.4537L60.9279 53.8785L52.9967 55.9239L48.8641 73.9569L10.377 73.9986L11.7963 64.6482L0.817871 57.3014Z" fill="#63D085"/>
<path d="M43.8332 67.8083H79.8574V50.5685H43.8332V67.8083Z" fill="#63A5EE"/>
<path d="M20.7132 67.8083H43.8389V50.5685H20.7132L20.7132 67.8083Z" fill="#3E6ED5"/>
<path d="M33.3359 50.5388H30.873V67.7787H33.3359V50.5388Z" fill="#F28484"/>
<path d="M30.163 34.1338L29.9961 34.0921C26.5731 33.5912 24.319 30.2935 24.9869 26.9123C25.5713 23.9903 26.2809 19.0228 26.5314 16.0591L36.0905 17.4784C35.2139 21.2352 34.3791 27.0375 34.1286 30.9196C34.0034 32.965 32.1667 34.426 30.163 34.1338Z" fill="#F9BEA5"/>
<path d="M40.4318 15.1818C39.1378 12.552 36.4245 10.7153 33.2937 10.7153C30.6222 10.7153 28.2428 12.0511 26.7818 14.0965H25.3208V18.6883C25.3208 23.0713 28.869 26.6612 33.2937 26.6612C37.6767 26.6612 41.2666 23.113 41.2666 18.6883V15.1818H40.4318Z" fill="#F9BEA5"/>
<path d="M41.2667 17.3948V16.9357C39.7639 16.3513 40.5988 14.4728 39.43 14.4311C36.675 14.3058 36.9254 11.5926 36.9254 11.5926C36.7167 15.3912 31.0396 13.3458 29.2447 14.2641C27.0741 15.3494 25.9887 18.4802 25.9887 18.4802L24.8199 16.9774C24.8199 16.9774 23.5259 12.177 26.8653 9.29668C28.2846 8.00265 30.664 6.75035 32.7929 6.87558C34.7965 6.75035 40.0562 7.75219 41.4337 13.7214C41.6841 15.7669 41.2667 17.3948 41.2667 17.3948Z" fill="#4A1D20"/>
<path d="M26.5313 18.6884C26.5313 19.8154 25.7382 20.7338 24.8199 20.7338C23.8598 20.7338 23.1084 19.8154 23.1084 18.6884C23.1084 17.5613 23.9015 16.643 24.8199 16.643C25.7382 16.6012 26.5313 17.5196 26.5313 18.6884Z" fill="#F9BEA5"/>
<path d="M23.9849 17.979C23.9849 17.979 24.8615 18.2295 25.1119 19.607" stroke="#4A1D20" stroke-miterlimit="10" stroke-linecap="round" stroke-linejoin="round"/>
<path d="M32.7922 18.7725C33.1841 18.7725 33.5018 18.4548 33.5018 18.0629C33.5018 17.671 33.1841 17.3533 32.7922 17.3533C32.4002 17.3533 32.0825 17.671 32.0825 18.0629C32.0825 18.4548 32.4002 18.7725 32.7922 18.7725Z" fill="#4A1D20"/>
<path d="M37.6344 18.7725C38.0264 18.7725 38.3441 18.4548 38.3441 18.0629C38.3441 17.671 38.0264 17.3533 37.6344 17.3533C37.2425 17.3533 36.9248 17.671 36.9248 18.0629C36.9248 18.4548 37.2425 18.7725 37.6344 18.7725Z" fill="#4A1D20"/>
<path d="M35.3389 18.2297C35.3389 18.2297 36.4659 18.7307 36.2572 19.1481C36.0485 19.5655 35.2554 19.4403 35.2554 19.4403" stroke="#4A1D20" stroke-miterlimit="10" stroke-linecap="round" stroke-linejoin="round"/>
<path d="M30.4549 20.9848C31.1465 20.9848 31.7072 20.4241 31.7072 19.7325C31.7072 19.0409 31.1465 18.4802 30.4549 18.4802C29.7633 18.4802 29.2026 19.0409 29.2026 19.7325C29.2026 20.4241 29.7633 20.9848 30.4549 20.9848Z" fill="#FF8257"/>
<path d="M39.3875 20.9848C40.0792 20.9848 40.6398 20.4241 40.6398 19.7325C40.6398 19.0409 40.0792 18.4802 39.3875 18.4802C38.6959 18.4802 38.1353 19.0409 38.1353 19.7325C38.1353 20.4241 38.6959 20.9848 39.3875 20.9848Z" fill="#FF8257"/>
<path d="M36.0907 21.3603C36.0907 21.3603 34.6297 22.1952 33.127 20.9429" stroke="#4A1D20" stroke-miterlimit="10" stroke-linecap="round" stroke-linejoin="round"/>
<path d="M35.1302 26.4107C35.1302 26.4107 31.4568 26.8699 29.6201 25.1167" stroke="#4A1D20" stroke-miterlimit="10" stroke-linecap="round" stroke-linejoin="round"/>
<path d="M47.0978 50.5671H74.8569V29.5704L47.0978 29.5704V50.5671Z" fill="#6DC1ED"/>
<path d="M47.0697 29.5835H27.3252V50.5802H47.0697V29.5835Z" fill="#49B2E8"/>
<path d="M79.6287 60.2234C78.2094 60.6826 78.2929 62.6028 78.5434 63.2707C78.7521 63.8134 79.6287 65.0656 81.048 64.6482C81.7993 64.3978 83.636 63.8134 82.9264 61.601C82.2168 59.3886 80.4636 59.9312 79.6287 60.2234Z" fill="#F9BEA5"/>
<path d="M38.5122 29.5835H36.0493V50.5802H38.5122V29.5835Z" fill="#F28484"/>
<path d="M63.4326 29.5835H60.9697V50.5802H63.4326V29.5835Z" fill="#F28484"/>
<path d="M27.5757 65.8575L32.7936 64.0625L36.2165 58.9699C36.5505 58.4689 37.0931 58.1768 37.6775 58.1768C38.8046 58.1768 39.6394 59.2621 39.389 60.3474L38.5541 63.6868L48.0298 66.0244C48.5724 66.1497 48.9481 66.6923 48.9064 67.2767C48.8229 68.2368 48.0298 68.9882 47.1114 69.0717L46.1096 69.1552L46.0679 69.5309C45.9844 70.3657 45.4 71.0754 44.6486 71.3676L44.0225 71.618L43.9807 71.7015C43.6468 72.5781 42.9371 73.246 42.0605 73.4965L40.5578 73.9556L40.4326 74.1226C39.8482 74.9992 38.8881 75.5001 37.8862 75.5001H31.75L25.6138 77.2116L27.5757 65.8575Z" fill="#F9BEA5"/>
<path d="M46.1096 69.1969C46.1096 69.1969 42.7702 68.8629 40.1821 68.0698" stroke="#4A1D20" stroke-miterlimit="10" stroke-linecap="round" stroke-linejoin="round"/>
<path d="M43.9805 71.6593C43.9805 71.6593 41.6429 72.202 38.0947 70.908" stroke="#4A1D20" stroke-miterlimit="10" stroke-linecap="round" stroke-linejoin="round"/>
<path d="M40.5583 73.9975C40.5583 73.9975 38.8886 73.914 35.9248 73.2461" stroke="#4A1D20" stroke-miterlimit="10" stroke-linecap="round" stroke-linejoin="round"/>
<path d="M28.9947 65.3572L27.5754 65.8581C18.6007 67.7783 15.0108 65.7329 15.0108 65.7329L15.5952 58.1774C11.7966 57.3425 0.818152 57.3008 0.818152 57.3008C0.818152 57.3008 0.275491 61.7673 0.0250329 67.3191C-0.225425 72.9127 1.48604 75.9599 1.48604 75.9599C5.53512 83.3902 25.5718 77.2122 25.5718 77.2122L29.3287 76.1686" fill="#F9BEA5"/>
<path d="M78.5857 56.4669C76.9159 57.5939 76.1228 59.2637 76.7907 60.3072C77.4586 61.3091 79.337 61.2673 81.0067 60.1403C82.6765 59.0132 84.0957 58.0949 82.8852 56.2582C81.6746 54.4215 80.2554 55.3398 78.5857 56.4669Z" fill="#F9BEA5"/>
<path d="M77.6671 52.1672C75.8721 53.336 75.079 55.1309 75.7886 56.2163C76.4982 57.3016 78.4602 57.2181 80.2551 56.0493C82.0501 54.8805 83.5111 53.8787 82.2588 51.9585C80.923 49.9965 79.4203 50.9984 77.6671 52.1672Z" fill="#F9BEA5"/>
<path d="M77.5417 47.4499C75.6215 47.6586 74.244 48.7857 74.3692 49.9127C74.4945 51.0815 76.1224 51.8329 78.0426 51.5825C79.9628 51.3737 81.5908 51.165 81.3403 49.1196C81.0481 47.0742 79.4619 47.2412 77.5417 47.4499Z" fill="#F9BEA5"/>
<path d="M15.5952 58.1779L16.2631 49.2449" stroke="#4A1D20" stroke-miterlimit="10" stroke-linecap="round" stroke-linejoin="round"/>
<path d="M66.1044 50.5388H63.6416V67.7787H66.1044V50.5388Z" fill="#F28484"/>
<path d="M46.7771 17.2699C41.0166 19.2318 45.6501 23.0722 47.8624 25.3263C50.1583 27.6639 53.5812 29.5841 53.5812 29.5841H55.1675C55.1675 29.5841 52.5377 15.2662 46.7771 17.2699ZM49.5322 23.6566C49.3235 23.4479 49.1147 23.2391 48.8643 22.9887C48.1964 22.3208 46.6519 20.7763 46.3597 20.0249C46.4849 19.8997 46.8189 19.691 47.5285 19.4823C47.6537 19.4405 47.7372 19.4405 47.8624 19.4405C48.9895 19.4405 50.534 22.0703 51.7028 25.535C50.9514 24.9506 50.2001 24.3245 49.5322 23.6566Z" fill="#F28484"/>
<path d="M55.1675 29.5841H56.7537C56.7537 29.5841 60.2184 27.6222 62.4725 25.3263C64.6849 23.0722 69.3184 19.2318 63.5578 17.2699C57.7973 15.2662 55.1675 29.5841 55.1675 29.5841ZM58.6739 25.4933C59.8427 22.0286 61.3872 19.3988 62.5143 19.3988C62.5977 19.3988 62.723 19.3988 62.8482 19.4405C63.5161 19.6492 63.85 19.858 64.017 19.9832C63.7665 20.7346 62.2221 22.2791 61.5124 22.9469C61.262 23.1974 61.0533 23.4061 60.8445 23.6148C60.1766 24.3245 59.4253 24.9506 58.6739 25.4933Z" fill="#F28484"/>
<path d="M40.8076 18.2297C40.8076 19.482 39.8057 20.5256 38.5117 20.5256C37.2177 20.5256 36.2158 19.5237 36.2158 18.2297C36.2158 16.9774 37.2177 15.9338 38.5117 15.9338C39.8057 15.9338 40.8076 16.9774 40.8076 18.2297Z" stroke="#4A1D20" stroke-miterlimit="10" stroke-linecap="round" stroke-linejoin="round"/>
<path d="M34.7968 18.2297C34.7968 19.482 33.795 20.5256 32.5009 20.5256C31.2069 20.5256 30.2051 19.5237 30.2051 18.2297C30.2051 16.9774 31.2069 15.9338 32.5009 15.9338C33.795 15.9338 34.7968 16.9774 34.7968 18.2297Z" stroke="#4A1D20" stroke-miterlimit="10" stroke-linecap="round" stroke-linejoin="round"/>
<path d="M30.2469 17.5198H29.3285L26.5317 15.6414" stroke="#4A1D20" stroke-miterlimit="10" stroke-linecap="round" stroke-linejoin="round"/>
<path d="M34.7969 17.52H36.3414" stroke="#4A1D20" stroke-miterlimit="10" stroke-linecap="round" stroke-linejoin="round"/>
</svg>
