<svg width="206" height="116" viewBox="0 0 206 116" fill="none" xmlns="http://www.w3.org/2000/svg">
<g id="img" clip-path="url(#clip0_533_9035)">
<g id="Group">
<path id="Vector" d="M110.93 56.4921C110.93 61.1817 102.438 79.5061 102.438 79.5061C102.438 79.5061 93.9463 61.1817 93.9463 56.4921C93.9463 51.8026 97.7485 48.0004 102.438 48.0004C107.128 48.0004 110.93 51.8026 110.93 56.4921Z" fill="black"/>
<g id="Group_2">
<path id="Vector_2" d="M78.5891 75.8679L93.1456 109.995L104.793 105.027L90.2369 70.8997L78.5891 75.8679Z" fill="#3897E9"/>
<path id="Vector_3" d="M87.6089 60.2969C86.7732 60.3324 86.0993 60.9116 85.8744 61.6879L84.605 58.8533C84.1482 57.8289 82.9712 57.3458 81.9903 57.7885C81.4049 58.0495 81.0202 58.5909 80.9034 59.1969C80.3733 58.876 79.7167 58.8076 79.1249 59.0698C78.5395 59.3309 78.1548 59.8723 78.0381 60.4783C77.5079 60.1574 76.8513 60.089 76.2595 60.3512C75.6742 60.6123 75.2895 61.1537 75.1727 61.7596C74.6426 61.4387 73.9859 61.3703 73.3942 61.6325C72.4122 62.0688 71.9921 63.2676 72.449 64.292L78.726 75.9056L85.4248 73.1261L90.3803 70.904L89.7196 62.2333C89.641 61.1159 88.6914 60.2441 87.6141 60.2894L87.6089 60.2969Z" fill="#F7BBE5"/>
<path id="Vector_4" d="M75.1893 61.7163L77.5728 66.5052" stroke="black" stroke-miterlimit="10"/>
<path id="Vector_5" d="M78.0018 60.3838L80.3906 65.1652" stroke="black" stroke-miterlimit="10"/>
<path id="Vector_6" d="M80.8142 59.0511L83.2041 63.8389" stroke="black" stroke-miterlimit="10"/>
</g>
<g id="Group_3">
<path id="Vector_7" d="M116.157 71.2605L101.601 105.388L113.374 110.409L127.93 76.2821L116.157 71.2605Z" fill="#3897E9"/>
<path id="Vector_8" d="M116.837 62.6746L116.177 71.3453L121.132 73.5674L127.83 76.3533L134.107 64.7397C134.564 63.7153 134.144 62.5165 133.162 62.0802C132.576 61.8192 131.92 61.8875 131.383 62.2073C131.266 61.6013 130.882 61.06 130.296 60.7989C129.711 60.5378 129.054 60.6062 128.518 60.926C128.401 60.32 128.016 59.7786 127.431 59.5175C126.845 59.2565 126.189 59.3248 125.652 59.6446C125.535 59.0386 125.151 58.4972 124.565 58.2362C123.583 57.7999 122.408 58.2766 121.951 59.301L120.681 62.1356C120.456 61.3593 119.782 60.7801 118.947 60.7446C117.87 60.6993 116.92 61.5711 116.841 62.6885L116.837 62.6746Z" fill="#F7BBE5"/>
<path id="Vector_9" d="M131.365 62.1585L128.975 66.9463" stroke="black" stroke-miterlimit="10"/>
<path id="Vector_10" d="M128.557 60.8193L126.168 65.607" stroke="black" stroke-miterlimit="10"/>
<path id="Vector_11" d="M125.747 59.4834L123.358 64.2712" stroke="black" stroke-miterlimit="10"/>
</g>
<path id="Vector_12" d="M103.094 92.1758C107.705 92.1758 111.443 88.4377 111.443 83.8266C111.443 79.2154 107.705 75.4773 103.094 75.4773C98.4827 75.4773 94.7446 79.2154 94.7446 83.8266C94.7446 88.4377 98.4827 92.1758 103.094 92.1758Z" fill="#F7BBE5"/>
<path id="Vector_13" d="M95.0596 81.4443C95.0596 81.4443 100.241 79.676 102.211 75.2649C102.211 75.2649 99.7686 75.3556 97.5922 77.4154C95.4158 79.4752 95.0596 81.4443 95.0596 81.4443Z" fill="black"/>
<path id="Vector_14" d="M101.172 75.4832C101.172 75.4832 105.175 79.3566 110.084 79.0975C110.084 79.0975 108.873 76.9276 105.997 75.9107C103.121 74.8938 101.172 75.4897 101.172 75.4897V75.4832Z" fill="black"/>
<path id="Vector_15" d="M98.6631 83.2743C98.6631 83.2743 98.6955 88.8059 103.379 88.3784C107.148 88.0351 107.239 82.9828 107.239 82.9828" stroke="black" stroke-miterlimit="10"/>
<path id="Vector_16" d="M103.23 90.1935C111.948 90.1935 119.028 97.2732 119.028 105.992V116.01H87.4314V105.992C87.4314 97.2732 94.5111 90.1935 103.23 90.1935Z" fill="#4CA8F7"/>
</g>
<g id="Group 3467202">
<rect id="Rectangle 6683" x="121" y="10" width="44" height="44" rx="10" fill="#4CA8F7"/>
<g id="Group 3467197">
<path id="Vector 14" d="M141.285 36.9077L139.217 34.8398L138.804 34.4262L145.835 27.3953L148.316 29.8768L141.285 36.9077Z" fill="#DADADC" stroke="#DADADC"/>
<path id="Vector_17" d="M136.52 32.1428L143.848 39.4716C144.535 40.1581 144.535 41.2582 143.848 41.9448C143.17 42.6231 142.062 42.6231 141.375 41.9448L134.046 34.6161C133.368 33.9295 133.368 32.8294 134.046 32.1428C134.733 31.4563 135.833 31.4563 136.52 32.1428ZM135.982 36.5517L139.448 40.0175C140.134 40.6958 140.134 41.8042 139.448 42.4907C138.761 43.1773 137.661 43.1773 136.975 42.4907L133.509 39.0249C132.83 38.3466 132.83 37.2382 133.509 36.5517C134.195 35.8651 135.295 35.8651 135.982 36.5517Z" fill="#272627" stroke="#272627" stroke-width="0.97" stroke-linecap="round" stroke-linejoin="round"/>
<path id="Vector_18" d="M143.138 25.5258L150.466 32.8545C151.145 33.5411 152.253 33.5411 152.94 32.8545C153.626 32.1762 153.626 31.0678 152.94 30.3813L145.611 23.0526C144.924 22.366 143.824 22.366 143.138 23.0526C142.451 23.7309 142.451 24.8393 143.138 25.5258ZM147.547 24.9881L151.012 28.454C151.691 29.1405 152.799 29.1405 153.486 28.454C154.172 27.7757 154.172 26.6673 153.486 25.9807L150.02 22.5149C149.341 21.8284 148.233 21.8284 147.547 22.5149C146.86 23.2015 146.86 24.3016 147.547 24.9881Z" fill="#272627" stroke="#272627" stroke-width="0.97" stroke-linecap="round" stroke-linejoin="round"/>
</g>
</g>
<g id="Group 3467201">
<rect id="Rectangle 6681" x="81" width="44" height="44" rx="10" fill="#272627"/>
<g id="Group 3467198">
<path id="Vector_19" d="M110.077 14.5994C109.514 14.0368 108.751 13.7207 107.956 13.7207H94C92.3431 13.7207 91 15.0638 91 16.7207V25.6424C91 27.2993 92.3431 28.6424 94 28.6424H112C113.657 28.6424 115 27.2993 115 25.6424V20.7651C115 19.9694 114.684 19.2064 114.121 18.6438L110.077 14.5994Z" fill="#EAE8F0"/>
<path id="Vector_20" d="M106.157 17.9975C106.16 18.2712 106.383 18.4912 106.657 18.4912H113.971L111.712 16.2407H106.641C106.363 16.2407 106.138 16.4684 106.141 16.747L106.157 17.9975Z" fill="#4CA8F7"/>
<path id="Vector_21" d="M95.6711 31.2042C97.0859 31.2042 98.2329 30.0572 98.2329 28.6424C98.2329 27.2276 97.0859 26.0807 95.6711 26.0807C94.2563 26.0807 93.1094 27.2276 93.1094 28.6424C93.1094 30.0572 94.2563 31.2042 95.6711 31.2042Z" fill="#4CA8F7"/>
<path id="Vector_22" d="M110.154 31.2042C111.568 31.2042 112.715 30.0572 112.715 28.6424C112.715 27.2276 111.568 26.0807 110.154 26.0807C108.739 26.0807 107.592 27.2276 107.592 28.6424C107.592 30.0572 108.739 31.2042 110.154 31.2042Z" fill="#4CA8F7"/>
<path id="Vector_23" d="M101.541 19.7156C101.541 19.4394 101.317 19.2156 101.041 19.2156H99.7632C99.6527 19.2156 99.5632 19.126 99.5632 19.0156V17.7382C99.5632 17.462 99.3393 17.2382 99.0632 17.2382H97.8406C97.5644 17.2382 97.3406 17.462 97.3406 17.7382V19.0156C97.3406 19.126 97.251 19.2156 97.1406 19.2156H95.8632C95.587 19.2156 95.3632 19.4394 95.3632 19.7156V20.9382C95.3632 21.2143 95.587 21.4382 95.8632 21.4382H97.1406C97.251 21.4382 97.3406 21.5277 97.3406 21.6382V22.9156C97.3406 23.1917 97.5644 23.4156 97.8406 23.4156H99.0632C99.3393 23.4156 99.5632 23.1917 99.5632 22.9156V21.6382C99.5632 21.5277 99.6527 21.4382 99.7632 21.4382H101.041C101.317 21.4382 101.541 21.2143 101.541 20.9382V19.7156Z" fill="#F7815B"/>
</g>
</g>
<g id="Group 3467200">
<rect id="Rectangle 6682" x="41" y="10" width="44" height="44" rx="10" fill="#EAE8F0"/>
<g id="Group 3467199">
<path id="Vector_24" d="M72.75 24.825H52.5C51.6716 24.825 51 25.4965 51 26.325V39.825C51 40.6534 51.6716 41.325 52.5 41.325H61.4587C61.7775 41.8462 62.3475 42.1987 63 42.1987C63.6525 42.1987 64.2225 41.8462 64.5413 41.325H73.5C74.3284 41.325 75 40.6534 75 39.825V26.325C75 25.4965 74.3284 24.825 73.5 24.825H72.75Z" fill="#272627"/>
<g id="Group_4">
<path id="Vector_25" d="M58.5825 22.0237C57.1026 21.9445 55.4084 22.0661 53.9956 22.3546C53.5527 22.4451 53.25 22.844 53.25 23.2961V37.529C53.25 38.1862 53.8748 38.6683 54.5231 38.5602C55.8176 38.3442 57.2827 38.2582 58.5825 38.325C60.1537 38.4075 61.6425 38.7075 63 39.18V22.8787C61.6425 22.4062 60.1537 22.1062 58.5825 22.0237Z" fill="#4CA8F7"/>
<path id="Vector_26" d="M55.5 25.8602C56.22 25.7477 56.9587 25.6914 57.705 25.6914C57.9637 25.6914 58.2225 25.6989 58.4813 25.7102C59.385 25.7589 60.27 25.8864 61.1212 26.0927" stroke="#EAE8F0" stroke-linecap="round" stroke-linejoin="round"/>
<path id="Vector_27" d="M55.5 28.6089C56.22 28.4964 56.9587 28.4402 57.705 28.4402C57.9637 28.4402 58.2225 28.4477 58.4813 28.4589C59.385 28.5077 60.27 28.6352 61.1212 28.8414" stroke="#EAE8F0" stroke-linecap="round" stroke-linejoin="round"/>
<path id="Vector_28" d="M55.5 31.3577C56.22 31.2452 56.9587 31.189 57.705 31.189C57.9637 31.189 58.2225 31.1965 58.4813 31.2077C59.385 31.2565 60.27 31.384 61.1212 31.5902" stroke="#EAE8F0" stroke-linecap="round" stroke-linejoin="round"/>
<path id="Vector_29" d="M55.5 34.1102C56.22 33.9977 56.9587 33.9414 57.705 33.9414C57.9637 33.9414 58.2225 33.9489 58.4813 33.9602C59.385 34.0089 60.27 34.1364 61.1212 34.3427" stroke="#EAE8F0" stroke-linecap="round" stroke-linejoin="round"/>
<path id="Vector_30" d="M67.4175 22.0237C68.8974 21.9445 70.5916 22.0661 72.0044 22.3546C72.4473 22.4451 72.75 22.844 72.75 23.2961V37.529C72.75 38.1862 72.1252 38.6683 71.4769 38.5602C70.1824 38.3442 68.7173 38.2582 67.4175 38.325C65.8462 38.4075 64.3575 38.7075 63 39.18V22.8787C64.3575 22.4062 65.8462 22.1062 67.4175 22.0237Z" fill="#4CA8F7"/>
<path id="Vector_31" d="M70.4171 25.8602C69.6971 25.7477 68.9584 25.6914 68.2121 25.6914C67.9534 25.6914 67.6946 25.6989 67.4359 25.7102C66.5321 25.7589 65.6471 25.8864 64.7959 26.0927" stroke="#EAE8F0" stroke-linecap="round" stroke-linejoin="round"/>
<path id="Vector_32" d="M70.4171 28.6089C69.6971 28.4964 68.9584 28.4402 68.2121 28.4402C67.9534 28.4402 67.6946 28.4477 67.4359 28.4589C66.5321 28.5077 65.6471 28.6352 64.7959 28.8414" stroke="#EAE8F0" stroke-linecap="round" stroke-linejoin="round"/>
<path id="Vector_33" d="M70.4171 31.3577C69.6971 31.2452 68.9584 31.189 68.2121 31.189C67.9534 31.189 67.6946 31.1965 67.4359 31.2077C66.5321 31.2565 65.6471 31.384 64.7959 31.5902" stroke="#EAE8F0" stroke-linecap="round" stroke-linejoin="round"/>
<path id="Vector_34" d="M70.4171 34.1102C69.6971 33.9977 68.9584 33.9414 68.2121 33.9414C67.9534 33.9414 67.6946 33.9489 67.4359 33.9602C66.5321 34.0089 65.6471 34.1364 64.7959 34.3427" stroke="#EAE8F0" stroke-linecap="round" stroke-linejoin="round"/>
</g>
</g>
</g>
</g>
<defs>
<clipPath id="clip0_533_9035">
<rect width="206" height="116" fill="white"/>
</clipPath>
</defs>
</svg>
