<svg width="112" height="140" viewBox="0 0 112 140" fill="none" xmlns="http://www.w3.org/2000/svg">
<path id="Subtract" fill-rule="evenodd" clip-rule="evenodd" d="M0 32C0 20.7989 0 15.1984 2.17987 10.9202C4.09734 7.15695 7.15695 4.09734 10.9202 2.17987C15.1984 0 20.799 0 32 0L80 0C91.201 0 96.8016 0 101.08 2.17987C104.843 4.09734 107.903 7.15695 109.82 10.9202C112 15.1984 112 20.799 112 32V84C108.778 84 106.167 86.6117 106.167 89.8333C106.167 93.055 108.778 95.6667 112 95.6667V108C112 119.201 112 124.802 109.82 129.08C107.903 132.843 104.843 135.903 101.08 137.82C96.8016 140 91.201 140 80 140H32C20.7989 140 15.1984 140 10.9202 137.82C7.15695 135.903 4.09734 132.843 2.17987 129.08C0 124.802 0 119.201 0 108L0 95.6667C3.22166 95.6667 5.83333 93.055 5.83333 89.8333C5.83333 86.6117 3.22166 84 0 84L0 32Z" fill="#292A2C"/>
</svg>
