<svg width="104" height="18" viewBox="0 0 104 18" fill="none" xmlns="http://www.w3.org/2000/svg">
<path d="M10.8036 10.3585C10.7726 10.4825 10.7571 10.6066 10.7571 10.7307C10.7571 10.9478 10.8139 11.1235 10.9276 11.2579C11.0414 11.3923 11.2223 11.4595 11.4704 11.4595C11.7909 11.4595 12.1372 11.3664 12.5094 11.1804C12.8815 10.9943 13.1968 10.7668 13.4553 10.4981L13.7499 9.27299C13.9463 8.44595 14.1738 7.55171 14.4322 6.59027C14.5459 6.17674 14.6907 5.84076 14.8664 5.58231C15.0525 5.31352 15.342 5.17912 15.7348 5.17912C16.2827 5.17912 16.5567 5.34453 16.5567 5.67535C16.5567 5.72704 16.5412 5.79424 16.5102 5.87694C16.4895 5.94931 16.474 6.01134 16.4637 6.06303C16.1018 7.59306 15.9002 8.44595 15.8589 8.62169C15.373 10.7927 15.006 12.302 14.7579 13.1498C14.396 14.4007 13.8791 15.2897 13.2072 15.817C12.5352 16.3442 11.5996 16.6078 10.4004 16.6078C9.67673 16.6078 9.19084 16.4993 8.94273 16.2822C8.69461 16.0754 8.57056 15.817 8.57056 15.5068C8.57056 15.3208 8.64292 15.1605 8.78766 15.0261C8.94273 14.8917 9.1133 14.8245 9.29939 14.8245C9.45446 14.8245 9.57335 14.84 9.65605 14.871C9.74909 14.9124 9.84731 14.9693 9.95069 15.0416C10.0747 15.1347 10.1988 15.2019 10.3229 15.2432C10.4469 15.2949 10.6278 15.3207 10.8656 15.3207C11.0414 15.3207 11.2533 15.2484 11.5014 15.1037C11.7495 14.9589 11.9873 14.7263 12.2147 14.4058C12.4525 14.0957 12.6386 13.7132 12.773 13.2583L13.1607 11.9092C12.8092 12.24 12.468 12.483 12.1372 12.638C11.8064 12.8034 11.4342 12.8861 11.0207 12.8861C10.3384 12.8861 9.81112 12.6742 9.43895 12.2503C9.07712 11.8265 8.89621 11.2631 8.89621 10.5601C8.89621 10.3533 8.92722 10.1259 8.98925 9.87777L9.9817 5.93897L9.57852 5.47376C9.5475 5.44274 9.53199 5.40656 9.53199 5.36521C9.53199 5.26183 9.64571 5.17912 9.87315 5.11709C10.1006 5.04473 10.4159 5.00854 10.8191 5.00854C11.4807 5.00854 11.8425 5.32386 11.9046 5.95448L10.8036 10.3585Z" fill="#C4C4C4"/>
<path d="M2.04693 11.8452C1.98491 11.9899 1.93838 12.1191 1.90737 12.2329C1.81433 12.4706 1.73162 12.6412 1.65926 12.7446C1.58689 12.8583 1.47317 12.9152 1.3181 12.9152L0.883903 12.9307C0.625452 12.9307 0.418691 12.8738 0.26362 12.7601C0.10855 12.6567 0.0206761 12.4396 0 12.1088C0.010338 12.0985 0.0620283 11.9847 0.155071 11.7677C0.248113 11.5402 0.341156 11.2352 0.434198 10.8527C0.558255 10.3462 0.682311 9.84477 0.806368 9.34855C0.930424 8.85232 1.04931 8.3716 1.16303 7.90639C1.3181 7.29644 1.54554 6.3867 1.84534 5.17714C2.14515 3.95725 2.37775 2.99065 2.54316 2.27732C2.53282 2.12225 2.52248 1.91032 2.51215 1.64153C2.50181 1.3624 2.49664 1.1453 2.49664 0.990232C2.52765 0.855838 2.64137 0.747289 2.83779 0.664585C3.04456 0.58188 3.23064 0.540527 3.39605 0.540527C3.6545 0.540527 3.92329 0.628401 4.20242 0.804148C4.48154 0.979895 4.62628 1.19182 4.63662 1.43994L3.47358 6.03003C3.75271 5.70955 4.0887 5.48728 4.48154 5.36323C4.88473 5.22883 5.2569 5.16164 5.59805 5.16164C6.08394 5.16164 6.51814 5.3012 6.90065 5.58033C7.29349 5.85946 7.59847 6.23162 7.81557 6.69684C8.043 7.15171 8.15672 7.63243 8.15672 8.13899C8.15672 8.88333 7.98097 9.61734 7.62948 10.341C7.27799 11.0543 6.76625 11.6436 6.09428 12.1088C5.42231 12.5637 4.63662 12.7911 3.7372 12.7911C3.47875 12.7911 3.15827 12.6981 2.77577 12.512C2.4036 12.3259 2.16065 12.1036 2.04693 11.8452ZM2.4191 10.5581C2.5535 10.7959 2.75509 11.0078 3.02388 11.1939C3.29267 11.38 3.53561 11.473 3.75271 11.473C4.2386 11.473 4.68314 11.2611 5.08632 10.8372C5.4895 10.403 5.80998 9.89129 6.04776 9.30202C6.28553 8.70242 6.40442 8.16484 6.40442 7.68929C6.40442 7.35847 6.31655 7.08451 6.1408 6.86741C5.96505 6.65032 5.7066 6.54177 5.36545 6.54177C5.06564 6.54177 4.74516 6.60896 4.40401 6.74336C4.06285 6.87775 3.75788 7.07418 3.48909 7.33263C3.23064 7.58074 3.05489 7.87021 2.96185 8.20102L2.4191 10.5581Z" fill="#C4C4C4"/>
<path d="M104 1.8584V13.0623H100.885V1.8584H104Z" fill="url(#paint0_linear_1187_93248)"/>
<path d="M95.8176 11.2347H91.8446L91.2407 13.0623H87.9669L92.0512 1.8584H95.6428L99.7111 13.0623H96.4215L95.8176 11.2347ZM95.0389 8.8509L93.8311 5.22751L92.6392 8.8509H95.0389Z" fill="url(#paint1_linear_1187_93248)"/>
<path d="M75.3097 8.86028C75.3097 7.98291 75.466 7.21647 75.7786 6.56096C76.1013 5.90545 76.535 5.40121 77.0796 5.04825C77.6342 4.69528 78.2494 4.5188 78.9251 4.5188C79.51 4.5188 80.0142 4.63477 80.4378 4.86672C80.8613 5.09867 81.1891 5.4113 81.4211 5.8046V4.62469H84.386V13.111H81.4211V11.9311C81.1891 12.3244 80.8563 12.637 80.4227 12.869C79.9991 13.1009 79.4999 13.2169 78.9251 13.2169C78.2494 13.2169 77.6342 13.0404 77.0796 12.6874C76.535 12.3345 76.1013 11.8302 75.7786 11.1747C75.466 10.5091 75.3097 9.73766 75.3097 8.86028ZM81.4211 8.86028C81.4211 8.31571 81.2698 7.88711 80.9672 7.57448C80.6748 7.26185 80.3117 7.10554 79.8781 7.10554C79.4344 7.10554 79.0663 7.26185 78.7738 7.57448C78.4813 7.87702 78.3351 8.30562 78.3351 8.86028C78.3351 9.40486 78.4813 9.8385 78.7738 10.1612C79.0663 10.4738 79.4344 10.6302 79.8781 10.6302C80.3117 10.6302 80.6748 10.4738 80.9672 10.1612C81.2698 9.84859 81.4211 9.41495 81.4211 8.86028Z" fill="url(#paint2_linear_1187_93248)"/>
<path d="M74.8663 4.62329L69.481 17.1486H66.259L68.286 12.7466L64.8068 4.62329H68.1045L69.8895 9.43372L71.614 4.62329H74.8663Z" fill="url(#paint3_linear_1187_93248)"/>
<path d="M63.8903 4.62476V13.1111H60.9254V4.62476H63.8903Z" fill="url(#paint4_linear_1187_93248)"/>
<path d="M56.9726 6.12132C57.3054 5.63725 57.7088 5.25403 58.1828 4.97166C58.6568 4.68928 59.166 4.5481 59.7106 4.5481V7.70967H58.8786C58.2332 7.70967 57.7542 7.83572 57.4415 8.08784C57.1289 8.33996 56.9726 8.77865 56.9726 9.4039V13.1101H54.0077V4.62373H56.9726V6.12132Z" fill="url(#paint5_linear_1187_93248)"/>
<path d="M48.1882 13.2169C47.3411 13.2169 46.5797 13.0404 45.904 12.6874C45.2384 12.3345 44.714 11.8302 44.3308 11.1747C43.9476 10.5192 43.756 9.74774 43.756 8.86028C43.756 7.98291 43.9476 7.21647 44.3308 6.56096C44.7241 5.90545 45.2536 5.40121 45.9192 5.04825C46.5948 4.69528 47.3562 4.5188 48.2034 4.5188C49.0505 4.5188 49.8068 4.69528 50.4724 5.04825C51.1481 5.40121 51.6776 5.90545 52.0608 6.56096C52.4541 7.21647 52.6507 7.98291 52.6507 8.86028C52.6507 9.73766 52.4541 10.5091 52.0608 11.1747C51.6776 11.8302 51.1481 12.3345 50.4724 12.6874C49.7967 13.0404 49.0353 13.2169 48.1882 13.2169ZM48.1882 10.6453C48.6017 10.6453 48.9446 10.494 49.2169 10.1915C49.4992 9.87884 49.6404 9.43511 49.6404 8.86028C49.6404 8.28545 49.4992 7.84677 49.2169 7.54422C48.9446 7.24168 48.6067 7.09041 48.2034 7.09041C47.8 7.09041 47.4621 7.24168 47.1898 7.54422C46.9175 7.84677 46.7814 8.28545 46.7814 8.86028C46.7814 9.4452 46.9125 9.88893 47.1747 10.1915C47.4369 10.494 47.7748 10.6453 48.1882 10.6453Z" fill="url(#paint6_linear_1187_93248)"/>
<path d="M38.4208 13.2169C37.5737 13.2169 36.8123 13.0404 36.1366 12.6874C35.471 12.3345 34.9466 11.8302 34.5634 11.1747C34.1801 10.5192 33.9885 9.74774 33.9885 8.86028C33.9885 7.98291 34.1801 7.21647 34.5634 6.56096C34.9567 5.90545 35.4861 5.40121 36.1517 5.04825C36.8274 4.69528 37.5888 4.5188 38.4359 4.5188C39.283 4.5188 40.0394 4.69528 40.705 5.04825C41.3806 5.40121 41.9101 5.90545 42.2933 6.56096C42.6866 7.21647 42.8833 7.98291 42.8833 8.86028C42.8833 9.73766 42.6866 10.5091 42.2933 11.1747C41.9101 11.8302 41.3806 12.3345 40.705 12.6874C40.0293 13.0404 39.2679 13.2169 38.4208 13.2169ZM38.4208 10.6453C38.8342 10.6453 39.1771 10.494 39.4494 10.1915C39.7318 9.87884 39.873 9.43511 39.873 8.86028C39.873 8.28545 39.7318 7.84677 39.4494 7.54422C39.1771 7.24168 38.8393 7.09041 38.4359 7.09041C38.0325 7.09041 37.6947 7.24168 37.4224 7.54422C37.1501 7.84677 37.014 8.28545 37.014 8.86028C37.014 9.4452 37.1451 9.88893 37.4073 10.1915C37.6695 10.494 38.0073 10.6453 38.4208 10.6453Z" fill="url(#paint7_linear_1187_93248)"/>
<path d="M33.4768 4.62329L31.3136 13.1096H27.9856L26.8057 7.96639L25.5804 13.1096H22.2676L20.1195 4.62329H23.0693L24.0223 10.2506L25.2779 4.62329H28.4546L29.7555 10.2657L30.6934 4.62329H33.4768Z" fill="url(#paint8_linear_1187_93248)"/>
<circle cx="62.4364" cy="2.00833" r="2.00833" fill="url(#paint9_linear_1187_93248)"/>
<defs>
<linearGradient id="paint0_linear_1187_93248" x1="102.442" y1="1.8584" x2="102.442" y2="13.0623" gradientUnits="userSpaceOnUse">
<stop stop-color="#4860FF"/>
<stop offset="1" stop-color="#6F3CFF"/>
</linearGradient>
<linearGradient id="paint1_linear_1187_93248" x1="93.839" y1="1.8584" x2="93.839" y2="13.0623" gradientUnits="userSpaceOnUse">
<stop stop-color="#4860FF"/>
<stop offset="1" stop-color="#6F3CFF"/>
</linearGradient>
<linearGradient id="paint2_linear_1187_93248" x1="79.8478" y1="4.5188" x2="79.8478" y2="13.2169" gradientUnits="userSpaceOnUse">
<stop stop-color="#4761FF"/>
<stop offset="1" stop-color="#713BFF"/>
</linearGradient>
<linearGradient id="paint3_linear_1187_93248" x1="69.8365" y1="4.62329" x2="69.8365" y2="17.1486" gradientUnits="userSpaceOnUse">
<stop stop-color="#4761FF"/>
<stop offset="1" stop-color="#713BFF"/>
</linearGradient>
<linearGradient id="paint4_linear_1187_93248" x1="62.4079" y1="4.62476" x2="62.4079" y2="13.1111" gradientUnits="userSpaceOnUse">
<stop stop-color="#4761FF"/>
<stop offset="1" stop-color="#713BFF"/>
</linearGradient>
<linearGradient id="paint5_linear_1187_93248" x1="56.8592" y1="4.5481" x2="56.8592" y2="13.11" gradientUnits="userSpaceOnUse">
<stop stop-color="#4761FF"/>
<stop offset="1" stop-color="#713BFF"/>
</linearGradient>
<linearGradient id="paint6_linear_1187_93248" x1="48.2034" y1="4.5188" x2="48.2034" y2="13.2169" gradientUnits="userSpaceOnUse">
<stop stop-color="#4761FF"/>
<stop offset="1" stop-color="#713BFF"/>
</linearGradient>
<linearGradient id="paint7_linear_1187_93248" x1="38.4359" y1="4.5188" x2="38.4359" y2="13.2169" gradientUnits="userSpaceOnUse">
<stop stop-color="#4761FF"/>
<stop offset="1" stop-color="#713BFF"/>
</linearGradient>
<linearGradient id="paint8_linear_1187_93248" x1="26.7981" y1="4.62329" x2="26.7981" y2="13.1096" gradientUnits="userSpaceOnUse">
<stop stop-color="#4761FF"/>
<stop offset="1" stop-color="#713BFF"/>
</linearGradient>
<linearGradient id="paint9_linear_1187_93248" x1="62.4364" y1="0" x2="62.4364" y2="4.01667" gradientUnits="userSpaceOnUse">
<stop stop-color="#4761FF"/>
<stop offset="1" stop-color="#713BFF"/>
</linearGradient>
</defs>
</svg>
